<svg xmlns="http://www.w3.org/2000/svg" xmlns:xlink="http://www.w3.org/1999/xlink" width="500" zoomAndPan="magnify" viewBox="0 0 375 374.999991" height="500" preserveAspectRatio="xMidYMid meet" version="1.0"><defs><g/><clipPath id="229d673f92"><path d="M 0 81.414062 L 261 81.414062 L 261 335.664062 L 0 335.664062 Z M 0 81.414062 " clip-rule="nonzero"/></clipPath><clipPath id="8151d7dd0f"><path d="M 60 166 L 318.75 166 L 318.75 308 L 60 308 Z M 60 166 " clip-rule="nonzero"/></clipPath></defs><g clip-path="url(#229d673f92)"><path fill="#ffffff" d="M 132.59375 237.03125 L 48.632812 173.554688 L 48.632812 335.398438 L 0.308594 335.398438 L 0.308594 81.421875 L 80.527344 142.070312 L 80.535156 142.070312 L 132.59375 181.429688 L 260.027344 83.257812 L 260.027344 140.683594 L 169.359375 209.234375 L 158.210938 217.664062 Z M 211.5625 262.507812 L 211.707031 335.40625 L 260.027344 335.40625 L 259.886719 225.976562 Z M 211.5625 262.507812 " fill-opacity="1" fill-rule="nonzero"/></g><g clip-path="url(#8151d7dd0f)"><path fill="#ffffff" d="M 244.632812 166.875 L 132.59375 251.585938 L 60.996094 197.453125 L 60.996094 253.050781 L 132.59375 307.1875 L 318.175781 166.875 Z M 244.632812 166.875 " fill-opacity="1" fill-rule="nonzero"/></g><g fill="#ffffff" fill-opacity="1"><g transform="translate(253.868777, 335.299913)"><g><path d="M 122.546875 -245.8125 C 114.453125 -245.34375 108.617188 -244.390625 105.046875 -242.953125 C 101.472656 -241.523438 99.03125 -238.785156 97.71875 -234.734375 C 96.40625 -230.691406 95.75 -224.144531 95.75 -215.09375 L 95.75 -37.875 C 95.75 -28.820312 96.40625 -22.269531 97.71875 -18.21875 C 99.03125 -14.164062 101.472656 -11.425781 105.046875 -10 C 108.617188 -8.570312 114.453125 -7.617188 122.546875 -7.140625 L 122.546875 0 C 109.691406 -0.71875 91.707031 -1.078125 68.59375 -1.078125 C 43.113281 -1.078125 24.296875 -0.71875 12.140625 0 L 12.140625 -7.140625 C 20.003906 -7.617188 25.78125 -8.570312 29.46875 -10 C 33.164062 -11.425781 35.671875 -14.164062 36.984375 -18.21875 C 38.296875 -22.269531 38.953125 -28.820312 38.953125 -37.875 L 38.953125 -215.09375 C 38.953125 -224.144531 38.296875 -230.691406 36.984375 -234.734375 C 35.671875 -238.785156 33.164062 -241.523438 29.46875 -242.953125 C 25.78125 -244.390625 20.003906 -245.34375 12.140625 -245.8125 L 12.140625 -252.96875 C 24.296875 -252.25 43.113281 -251.890625 68.59375 -251.890625 C 91.707031 -251.890625 109.691406 -252.25 122.546875 -252.96875 Z M 122.546875 -245.8125 "/></g></g></g></svg>