<svg width="150" height="75" viewBox="0 0 150 75" fill="none" xmlns="http://www.w3.org/2000/svg">
<path d="M126.166 19.4187L125.982 20.4595L123.42 34.6354L115.671 34.6515L115.533 35.3534L115.056 34.6515L110.079 63.9796L93.1756 72.9999L100.429 61.5672L76.015 53.5151L44.3013 67.0052L33.7056 33.9657L30.593 48.069L28.8577 29.5201L25.2493 22.1215L22.6233 16.7319L20.5023 17.692L19.7861 19.701L16.545 16.1429L31.2816 13.3433L35.4961 19.9189L104.221 19.5397L126.166 19.4187Z" fill="#D1D4DD"/>
<path d="M132.427 32.36L136.522 37.798L130.196 34.6191L123.42 34.6353L115.671 34.6514L115.533 35.3533L110.079 63.9795L93.1756 72.9998L100.429 61.5671V43.0182L85.9128 22.9202L104.221 19.5396L109.17 18.6198L126.166 19.4186L125.982 20.4594L132.593 17.4822L136.982 20.177L126.661 24.6871L132.427 32.36Z" fill="#A4A3A4"/>
<path d="M73.0492 25.4541L57.5597 29.5205L46.9181 39.2588L44.0901 66.3439L37.5803 29.9804L25.6073 18.0958L41.3356 11.73L68.8991 19.7014L73.0492 25.4541Z" fill="#A4A3A4"/>
<path d="M44.3013 67.0054L62.8392 47.9967L82.8645 43.0186L87.5747 53.2814L100.429 61.5674L76.0149 53.5153L44.3013 67.0054Z" fill="#EAEAEA"/>
<path d="M12 12.1333L27.7007 7.39719L48.5065 4.37967L66.6037 6.27571L75.3355 3L94.2407 4.32319L101.614 7.37299L110.281 3.89557L121.244 8.66391L137 20.1612L132.069 27.3742L132.17 32.0215L136.522 37.7983L120.813 29.8269L89.6314 28.2133L80.1467 25.1393L73.0493 25.4539L44.5859 18.1844L25.6073 18.0957L27.0488 15.4816L16.545 16.1432L12 12.1333Z" fill="white"/>
<path d="M26.8469 10.8501L42.5935 8.60718L58.3585 10.7049L44.99 12.0846L43.778 12.4396L41.3356 11.7296L25.6073 18.0954L27.0489 15.4813L16.545 16.1429L26.8469 10.8501Z" fill="#C0C0C0"/>
<path d="M78.0717 20.2903L73.0493 25.454L80.1467 25.1393L89.6314 28.2133L78.0717 20.2903Z" fill="#C0C0C0"/>
<path d="M137 20.1611L126.661 24.6874L132.17 32.0215L132.069 27.3741L137 20.1611Z" fill="#EAEAEA"/>
<path d="M137 20.1611L120.996 23.7999L136.523 37.7983L126.661 24.6874L137 20.1611Z" fill="#D1D4DD"/>
<path d="M137 20.1615L120.996 23.8003L100.751 19.5564L84.4622 16.2242L74.4449 12.6903L61.8017 17.6442L60.5071 17.2731L58.6064 10.8346L85.6558 8.03491L99.8324 16.0628L137 20.1615Z" fill="#C0C0C0"/>
</svg>
