<svg width="151" height="75" viewBox="0 0 151 75" fill="none" xmlns="http://www.w3.org/2000/svg">
<path fill-rule="evenodd" clip-rule="evenodd" d="M74.95 47.4893C77.4577 54.3744 81.3096 68.0209 81.0615 75C78.99 67.6662 72.0024 54.6469 74.95 47.4893Z" fill="white"/>
<path fill-rule="evenodd" clip-rule="evenodd" d="M78.6436 46.8696C83.5831 52.127 92.3621 63.7428 94.6984 70.1791C90.0316 64.3406 78.3881 54.4847 78.6436 46.8696Z" fill="white"/>
<path fill-rule="evenodd" clip-rule="evenodd" d="M82.6626 45.0758C89.1629 48.2559 101.097 55.1286 105.836 60.1772C99.3779 56.6925 85.1752 52.1503 82.6626 45.0758Z" fill="white"/>
<path fill-rule="evenodd" clip-rule="evenodd" d="M84.9496 42.4952C92.1272 42.8376 105.833 44.46 112.083 47.2731C104.804 46.5412 89.9304 48.0875 84.9496 42.4952Z" fill="white"/>
<path fill-rule="evenodd" clip-rule="evenodd" d="M86.3446 38.8141C93.111 36.3095 106.114 32.3075 113 32.4051C105.863 34.6406 93.3802 41.686 86.3446 38.8141Z" fill="white"/>
<path fill-rule="evenodd" clip-rule="evenodd" d="M85.7668 34.7241C90.9944 29.7752 102.035 21.3786 108.404 18.8486C102.751 23.6673 93.3438 34.9416 85.7668 34.7241Z" fill="white"/>
<path fill-rule="evenodd" clip-rule="evenodd" d="M83.9297 31.1062C87.1337 24.5205 93.5821 12.5248 98.552 7.55581C95.22 14.1573 91.0563 28.53 83.9297 31.1062Z" fill="white"/>
<path fill-rule="evenodd" clip-rule="evenodd" d="M80.9908 28.3801C81.3422 21.0292 82.9317 7.59495 85.6374 1.09757C85.0335 8.5404 86.6771 23.2572 80.9908 28.3801Z" fill="white"/>
<path fill-rule="evenodd" clip-rule="evenodd" d="M76.8668 27.3424C75.4647 19.6376 70.5626 7.71007 70.5155 0C72.6877 6.72594 80.7881 21.0507 76.8668 27.3424Z" fill="white"/>
<path fill-rule="evenodd" clip-rule="evenodd" d="M73.1734 27.9617C68.7489 21.5052 59.7222 11.6814 56.8326 4.5792C61.4097 10.0757 74.345 20.5782 73.1734 27.9617Z" fill="white"/>
<path fill-rule="evenodd" clip-rule="evenodd" d="M69.9309 30.039C63.2674 25.9072 50.7043 20.1053 45.3118 14.6641C51.718 18.0376 68.0555 22.7236 69.9309 30.039Z" fill="white"/>
<path fill-rule="evenodd" clip-rule="evenodd" d="M67.0457 32.5567C59.2998 30.7792 46.0889 30.7963 38.9152 27.6834C46.0823 28.4355 62.7277 26.3661 67.0457 32.5567Z" fill="white"/>
<path fill-rule="evenodd" clip-rule="evenodd" d="M66.2066 36.6994C58.3433 38.0827 45.8567 43.0596 38 42.9462C44.9499 40.916 59.7793 32.6929 66.2066 36.6994Z" fill="white"/>
<path fill-rule="evenodd" clip-rule="evenodd" d="M66.4279 40.3489C59.9104 44.758 50.0371 54.0227 42.8181 56.7132C48.5224 52.2667 58.9806 39.1445 66.4279 40.3489Z" fill="white"/>
<path fill-rule="evenodd" clip-rule="evenodd" d="M68.2438 44.1659C64.1259 50.7481 58.5274 62.8202 52.9894 67.998C56.5109 61.7125 60.9628 45.9958 68.2438 44.1659Z" fill="white"/>
<path fill-rule="evenodd" clip-rule="evenodd" d="M71.2244 46.4933C69.4647 54.0592 69.3675 67.319 66.1143 74.2339C67.0075 67.2152 65.1242 50.6914 71.2244 46.4933Z" fill="white"/>
</svg>
