<svg xmlns="http://www.w3.org/2000/svg" xmlns:xlink="http://www.w3.org/1999/xlink" width="150" zoomAndPan="magnify" viewBox="0 0 112.5 56.249996" height="75" preserveAspectRatio="xMidYMid meet" version="1.0"><defs><clipPath id="5b306647c6"><path d="M 29.054688 1 L 83 1 L 83 54.6875 L 29.054688 54.6875 Z M 29.054688 1 " clip-rule="nonzero"/></clipPath></defs><g clip-path="url(#5b306647c6)"><path fill="#ffffff" d="M 39.808594 44.988281 L 40.421875 45.59375 L 40.480469 45.652344 C 42.378906 47.621094 42.359375 50.785156 40.421875 52.726562 C 38.480469 54.664062 35.316406 54.683594 33.347656 52.785156 L 33.289062 52.726562 L 32.675781 52.121094 L 31.015625 50.453125 C 29.054688 48.492188 29.054688 45.285156 31.015625 43.320312 C 32.976562 41.359375 36.191406 41.359375 38.148438 43.320312 Z M 73.453125 17.390625 L 74.042969 16.800781 L 74.722656 16.125 L 80.941406 9.90625 C 82.898438 7.945312 82.898438 4.738281 80.941406 2.773438 C 78.972656 0.8125 75.765625 0.8125 73.808594 2.773438 L 67.589844 8.992188 L 66.910156 9.667969 L 62.753906 13.824219 C 60.796875 15.785156 60.796875 18.992188 62.753906 20.957031 L 66.320312 24.523438 L 66.960938 25.15625 L 73.855469 32.050781 C 75.8125 34.011719 79.023438 34.011719 80.988281 32.050781 C 82.949219 30.09375 82.949219 26.878906 80.988281 24.917969 L 74.09375 18.023438 Z M 31.300781 2.820312 L 31.300781 2.8125 C 33.261719 0.855469 36.472656 0.855469 38.433594 2.8125 L 80.894531 45.28125 C 82.859375 47.238281 82.859375 50.453125 80.894531 52.414062 C 78.933594 54.371094 75.726562 54.371094 73.761719 52.414062 L 31.300781 9.945312 C 29.339844 7.988281 29.339844 4.78125 31.300781 2.820312 Z M 31.238281 23.148438 C 33.199219 21.1875 36.40625 21.1875 38.371094 23.148438 L 53.667969 38.445312 L 60.566406 45.339844 C 62.523438 47.300781 62.523438 50.515625 60.566406 52.472656 C 58.597656 54.433594 55.390625 54.433594 53.433594 52.472656 L 46.535156 45.578125 L 31.238281 30.28125 C 29.28125 28.320312 29.28125 25.109375 31.238281 23.148438 Z M 31.238281 23.148438 " fill-opacity="1" fill-rule="evenodd"/></g></svg>