<svg width="150" height="75" viewBox="0 0 150 75" fill="none" xmlns="http://www.w3.org/2000/svg">
<path d="M54.3875 5.92761C54.9618 7.08566 55.5543 8.27418 56.1469 9.46271C56.7333 10.639 57.2831 11.8398 57.9063 12.9917C58.1628 13.4671 58.0712 13.6987 57.668 13.9852C52.1028 17.9104 48.4925 23.213 46.6048 29.7103C46.281 30.8196 46.0856 31.9715 45.8045 33.2027H69.8491V48.044C72.7203 47.8734 75.5609 48.4097 78.2794 47.337C82.6167 45.6243 85.3291 41.2969 85.0175 36.6403C84.6754 31.551 80.0143 27.0711 74.8829 26.9736C71.7001 26.9127 68.5174 26.9431 65.3347 26.9675C64.7726 26.9675 64.4855 26.7969 64.2473 26.2727C63.5325 24.688 62.7567 23.1277 62.0053 21.5613C61.8343 21.2017 61.6754 20.8421 61.4861 20.4276C62.7323 20.4276 63.8991 20.4276 65.0598 20.4276C69.4887 20.4276 73.9177 20.4825 78.3466 20.4276C82.4334 20.3788 85.72 21.9513 88.3713 25.0049C90.2284 27.1382 91.6395 29.503 92.4154 32.2336C92.507 32.5444 92.617 32.8553 92.7208 33.1905H103.118C102.978 32.4225 102.898 31.6972 102.709 31.0024C99.63 19.4707 92.2993 12.1445 80.7107 9.21281C75.9214 7.99991 71.0831 8.30466 66.3182 9.65774C66.0738 9.72479 65.5912 9.63946 65.5118 9.47489C64.3145 7.05518 63.166 4.61719 62.0053 2.17919C76.6667 -3.26364 97.4796 1.0699 107.584 19.94C117.034 37.5789 110.669 58.9297 94.6635 69.0717C94.5474 68.8889 94.413 68.7182 94.3213 68.5293C93.2767 66.396 92.2565 64.2567 91.1936 62.1356C90.9187 61.581 90.9737 61.2945 91.5052 60.9044C97.7301 56.3393 101.481 50.1955 103.002 42.6682C103.014 42.5951 103.033 42.5159 103.039 42.4427C103.051 42.2416 103.063 42.0404 103.082 41.7723H92.7147C92.6048 42.1197 92.4826 42.5159 92.3604 42.912C91.0409 47.0871 88.6767 50.4942 84.9442 52.8834C83.0871 54.072 81.0101 54.4864 78.8475 54.4925C73.1174 54.5047 67.3934 54.4925 61.6632 54.4925C61.5899 54.4925 61.5166 54.4681 61.3761 54.4377V41.7723H45.9206C45.9328 42.0039 45.9084 42.2781 45.9634 42.5341C48.4802 54.1817 55.3527 61.9223 66.8191 65.4025C72.0178 66.9812 77.2898 66.8044 82.5068 65.3172C83.1238 65.1405 83.4048 65.2624 83.6797 65.8414C84.6693 67.9442 85.72 70.0165 86.7463 72.1009C86.9724 72.552 87.1129 72.9177 86.4287 73.1188C82.0608 74.3805 77.6319 75.1789 73.0624 74.9656C64.3756 74.5572 56.6906 71.5768 50.0869 65.9206C44.4545 61.0934 40.6242 55.0837 38.5227 47.977C37.0322 42.9486 36.629 37.8288 37.3437 32.642C38.816 21.9696 43.9658 13.461 52.6282 7.05518C53.1169 6.69558 53.6117 6.34207 54.1126 5.98856C54.1493 5.96418 54.2104 5.96418 54.3875 5.92761Z" fill="#FDFDFD"/>
</svg>
