<svg width="150" height="75" viewBox="0 0 150 75" fill="none" xmlns="http://www.w3.org/2000/svg">
<path d="M114.987 50.5399C114.634 48.4617 114.327 46.3836 114.043 44.2989C113.758 42.2143 113.436 40.0908 113.275 37.9802C113.09 35.5071 113.083 33.0276 112.937 30.548C112.886 29.9575 112.739 29.3757 112.499 28.8194C111.349 26.2253 109.73 23.7969 107.698 21.6202C105.884 19.705 104.383 17.5928 103.236 15.3404C102.415 13.5764 101.773 11.7572 101.316 9.90218C100.786 7.99176 100.703 6.0128 101.07 4.07552C101.204 3.43285 101.296 2.78447 101.346 2.1333C101.349 2.04283 101.329 1.95288 101.288 1.86924C101.247 1.78561 101.186 1.71015 101.108 1.64774C100.907 1.54537 100.678 1.48995 100.443 1.48718C100.209 1.48441 99.9772 1.53438 99.7731 1.63196C99.5689 1.72955 99.3993 1.87121 99.2816 2.04239C99.164 2.21357 99.1025 2.40808 99.1037 2.6059C98.9808 3.81008 98.904 5.01426 98.8041 6.21843C98.8041 6.43855 98.7273 6.6522 98.6966 6.81405C98.3817 6.60688 98.0975 6.44503 97.844 6.24433C97.1182 5.76532 96.6373 5.07042 96.4999 4.30211C96.4308 3.78418 96.4999 3.09146 95.678 2.90371C94.645 2.63303 93.715 2.13724 92.9821 1.46647C92.7995 1.28226 92.5487 1.15525 92.27 1.10592C91.9913 1.05659 91.701 1.08782 91.446 1.19456C91.1453 1.32599 90.8098 1.39078 90.4712 1.38286C90.1327 1.37493 89.802 1.29453 89.5104 1.14924C88.4505 0.715475 88.1202 0.780215 87.3521 1.50531C87.1638 1.72067 86.9109 1.88992 86.6194 1.99573C86.3278 2.10153 86.0081 2.14007 85.6931 2.1074C85.3976 2.05697 85.0904 2.09379 84.8233 2.21168C84.5562 2.32957 84.3453 2.52135 84.2261 2.75481C83.8113 3.84245 82.7744 4.5287 82.0371 5.40918C81.9065 5.55808 81.7452 5.68109 81.461 5.94652C81.4203 5.71949 81.4049 5.48973 81.4149 5.26027C81.6146 4.24384 81.8451 3.23389 82.014 2.21746C82.0394 2.09433 82.0312 1.96795 81.9899 1.84792C81.9487 1.72788 81.8755 1.61735 81.7759 1.52473C81.5916 1.41806 81.377 1.35442 81.154 1.34026C80.931 1.32611 80.7075 1.36195 80.5062 1.44414C80.305 1.52633 80.1331 1.65194 80.0081 1.80823C79.883 1.96452 79.8093 2.14591 79.7943 2.33399C79.5869 3.5058 79.3104 4.67113 79.0262 5.83646C78.7113 7.25429 78.4118 8.67211 78.0738 10.0899C77.6591 11.8315 77.252 13.573 76.7527 15.2692C76.4225 16.4151 75.8541 17.5092 75.5546 18.6616C75.2166 19.9564 75.0783 21.2512 74.7865 22.546C74.7404 22.7597 74.4946 22.9345 74.3333 23.1287C74.2181 22.9215 74.003 22.7144 73.9954 22.4813C73.9109 20.8563 73.9416 19.2443 73.7957 17.6063C73.6728 16.1756 73.7342 14.693 72.9738 13.3529C72.5404 12.5139 71.8248 11.8004 70.9154 11.3006C70.5565 11.147 70.1578 11.0713 69.7555 11.0803C69.3532 11.0894 68.9598 11.1829 68.6112 11.3524C68.1043 11.5142 67.989 11.3071 67.9814 10.9251C67.9814 10.0964 67.9814 9.25477 67.8815 8.43257C67.7279 6.99532 67.5896 5.51276 66.7064 4.25032C65.8308 2.92313 64.6249 1.9326 62.7124 3.1303C62.0518 3.53817 61.7062 3.31805 61.5219 2.61885C61.4444 2.03517 61.2135 1.47339 60.846 0.974437C59.3789 -0.579339 56.683 -0.210317 55.5616 1.62184C54.9949 2.75273 54.7326 3.97544 54.7936 5.20201C54.7936 5.59692 54.6399 5.71346 54.2252 5.64872C54.0205 5.61791 53.8233 5.55886 53.6414 5.47392C53.1286 5.22532 52.5326 5.12671 51.9463 5.19346C51.36 5.26021 50.8164 5.48857 50.4002 5.84294C49.4021 6.58112 48.7508 7.59632 48.5645 8.70448C48.1958 10.6467 47.927 12.6666 47.6812 14.6541C47.4201 16.7841 47.228 18.9141 47.0207 21.0505C46.7595 23.6919 46.5035 26.3355 46.2526 28.9813C46.2526 29.182 46.1758 29.3762 46.1374 29.5769L45.907 29.6222C45.7533 29.3568 45.5844 29.0913 45.4384 28.8259C44.8274 27.5616 44.1219 26.3312 43.3262 25.1421C42.8069 24.3336 42.0415 23.6562 41.1088 23.1794C40.176 22.7027 39.1095 22.4439 38.0189 22.4295C37.3837 22.4217 36.7497 22.476 36.1294 22.5914C35.3613 22.7467 34.9082 23.3682 35.0157 24.43C35.2231 26.437 35.5226 28.4439 35.7838 30.4444C36.0449 32.4449 36.3829 34.3288 36.5518 36.2711C36.7285 38.4269 36.8053 40.5893 36.8053 42.7451C36.8493 45.1517 37.7044 47.4981 39.2708 49.5105C40.7301 51.4528 42.3431 53.395 43.8792 55.3372C45.8621 57.7713 47.3231 60.4796 48.1958 63.3392C48.7296 65.0656 48.9879 66.8444 48.9639 68.6285C48.9021 69.9535 48.7482 71.2743 48.503 72.5841C48.3648 73.4322 48.6336 73.8077 49.5092 73.743C49.7493 73.739 49.98 73.6632 50.16 73.5292C50.3401 73.3952 50.4578 73.2117 50.4923 73.0114C50.6844 71.982 50.8533 70.9397 51.03 69.9039C51.1298 69.3406 51.2143 68.7709 51.3065 68.2012C51.6102 68.4144 51.8952 68.6459 52.1591 68.8939C52.5044 69.1175 52.7878 69.4019 52.9894 69.7273C53.1911 70.0527 53.3061 70.4112 53.3265 70.7779C53.333 71.1072 53.4694 71.4253 53.7142 71.682C53.9589 71.9388 54.2982 72.1195 54.6783 72.1957C55.5441 72.3993 56.2939 72.859 56.7905 73.4905C56.8853 73.631 57.015 73.7526 57.1708 73.8469C57.3266 73.9412 57.5047 74.0059 57.693 74.0367C57.8813 74.0674 58.0752 74.0635 58.2615 74.0251C58.4478 73.9867 58.622 73.9147 58.7722 73.8142C58.973 73.6813 59.2236 73.6134 59.4787 73.623C59.7337 73.6325 59.9763 73.7187 60.1624 73.866C60.9305 74.3192 61.6985 74.3321 62.2055 73.8013C62.5223 73.4864 62.92 73.2365 63.3685 73.0704C63.817 72.9044 64.3044 72.8267 64.7939 72.8431C65.0359 72.8542 65.2737 72.7864 65.4581 72.6539C65.6425 72.5213 65.7594 72.3341 65.7847 72.1309C66.0228 70.8361 67.2517 70.1887 68.5344 69.3147C68.4806 69.7809 68.4576 70.0851 68.4038 70.3829C68.2348 71.244 68.0121 72.0921 67.8969 72.9726C67.8201 73.5811 68.327 73.866 69.0413 73.6977C69.2831 73.6476 69.501 73.5364 69.6657 73.3791C69.8304 73.2217 69.9342 73.0256 69.963 72.8172C70.0936 72.2539 70.2241 71.6907 70.347 71.1275C70.7003 69.4571 71.0229 67.7804 71.407 66.1101C71.791 64.4397 72.1136 62.873 72.6205 61.2998C73.4961 58.5807 74.5868 55.9004 74.8326 53.0583C74.9076 52.6204 75.0205 52.1876 75.1705 51.7635H75.3702C75.4691 51.9717 75.5387 52.189 75.5776 52.4109C75.5857 55.0171 75.8736 57.6174 76.4378 60.1798C76.6167 61.2012 77.1241 62.1617 77.9049 62.9572C78.5961 63.6046 79.3949 64.252 80.5931 63.6888C80.7501 63.6477 80.9128 63.6238 81.077 63.6175C81.6531 63.5075 81.8451 63.6693 81.8451 64.1873C81.9756 65.8446 82.1293 67.502 82.3981 69.1399C82.5777 70.207 83.2276 71.1778 84.2184 71.859C84.6 72.1569 85.0935 72.3324 85.6129 72.3549C86.1323 72.3773 86.6445 72.2454 87.0603 71.982C87.3214 71.8396 87.6056 71.7166 87.9666 71.5418C88.1049 71.982 88.2124 72.3446 88.3353 72.7007C88.7116 73.7689 89.9559 75.1543 91.8146 74.986C92.4735 74.9306 93.0949 74.702 93.5911 74.3325C94.0873 73.9631 94.4332 73.4715 94.5797 72.9272C94.8574 71.9676 95.0474 70.9915 95.1481 70.0074C95.2403 69.2759 95.2863 69.2111 96.1235 69.4895L96.3232 69.5478C98.0668 70.1952 99.2342 69.8715 100.263 68.5184C101.385 67.0488 101.646 65.372 101.915 63.7211C102.291 61.384 102.537 59.0339 102.76 56.6838C103.098 53.2072 103.366 49.7307 103.666 46.2476C103.687 46.1118 103.72 45.9776 103.766 45.8462C104.396 45.9304 104.58 46.3188 104.749 46.7073C105.309 48.2419 106.257 49.6557 107.529 50.8507C108.181 51.479 108.997 51.9715 109.912 52.2894C110.828 52.6073 111.818 52.742 112.806 52.6828C113.119 52.6702 113.426 52.6038 113.708 52.4877C113.99 52.3715 114.24 52.2082 114.445 52.0076C114.649 51.8069 114.802 51.5733 114.896 51.3209C114.989 51.0686 115.02 50.8028 114.987 50.5399ZM71.5606 19.4968L70.0244 19.5809C70.0244 19.5097 70.0244 19.432 70.0244 19.3543L71.5606 19.1795C71.5375 19.3155 71.5452 19.3932 71.5606 19.4968ZM70.3931 15.431C70.6202 15.4446 70.8459 15.4706 71.069 15.5087C70.9422 15.6873 70.7842 15.8488 70.6005 15.9878C70.3441 16.0823 70.0722 16.1434 69.794 16.1691C69.794 15.9231 69.7479 15.7418 69.7249 15.5217C69.945 15.4789 70.1682 15.4486 70.3931 15.431ZM71.4761 20.4549C71.3071 21.6915 71.3071 21.6915 69.8247 21.5426C69.5098 20.2348 69.625 20.4031 71.4684 20.4614L71.4761 20.4549ZM65.4467 8.85338C65.4467 9.13177 65.393 9.3713 65.3622 9.66911L63.8799 9.60437C63.8414 9.37131 63.803 9.16414 63.7493 8.8728L65.4467 8.85338ZM65.2931 15.7483L63.8261 15.8907C63.772 14.9979 63.772 14.1033 63.8261 13.2104C63.8952 12.6601 64.5942 12.9644 65.0012 12.8867C65.1367 13.0178 65.2224 13.1802 65.247 13.3529C65.3085 14.1362 65.2931 14.9131 65.2931 15.7483ZM57.8966 4.69055C58.2652 4.63876 58.6646 4.64523 59.1716 4.61934L59.4788 4.87183C59.3405 4.97541 59.2253 5.13079 59.0717 5.16963C58.7231 5.28846 58.3493 5.34574 57.9734 5.33796C57.7353 5.33796 57.5202 5.079 57.2975 4.94304C57.4815 4.83473 57.6833 4.74967 57.8966 4.69055ZM56.9749 7.01474L58.2192 7.77221L59.6401 6.74283C59.9243 7.27371 59.7937 7.53267 59.1946 7.68157C58.6837 7.81132 58.2511 8.1009 57.9855 8.49093C57.7198 8.88097 57.6413 9.34189 57.766 9.77917C57.8274 9.95397 58.1808 10.2194 58.2729 10.187C58.5497 10.1003 58.7756 9.92615 58.9027 9.70148C58.9478 9.42737 58.9321 9.14859 58.8567 8.87928C60.0318 9.26125 60.1009 9.49431 59.1792 10.1093C58.8072 10.345 58.3956 10.5327 57.958 10.6661C57.8121 10.7114 57.5817 10.5561 57.3052 10.4654V12.2976H57.0133L56.9749 7.01474ZM59.3866 12.1422C59.1639 11.7538 58.9488 11.3588 58.6877 10.9057C59.6785 11.1323 59.9166 11.6049 59.3866 12.1357V12.1422ZM57.1899 13.2493C57.8735 14.1103 57.8735 14.1103 58.8183 13.7801L59.5863 13.5277L59.7399 13.696C59.21 14.2333 58.0348 14.5311 58.8029 15.5476L57.4357 15.7224C57.2307 15.2023 57.0614 14.6727 56.9288 14.1362C56.9507 13.8275 57.0392 13.5248 57.1899 13.2428V13.2493ZM53.6722 10.0122C53.5109 10.2906 53.4648 10.5755 53.2958 10.6596C52.8647 10.7722 52.4029 10.7704 51.973 10.6546C51.543 10.5389 51.1656 10.3146 50.8917 10.0122H53.6722ZM50.4232 14.1362C51.1529 14.1362 51.8902 14.1362 52.6122 14.1362C52.8196 14.1362 53.0116 14.3045 53.2113 14.3952C53.0731 14.5052 52.8887 14.6024 52.8196 14.7383C52.5858 15.1559 52.3931 15.5889 52.2436 16.0331C52.0055 16.7712 51.8518 16.8748 50.8687 16.7647C51.007 16.3504 50.8687 15.8583 51.5369 15.6317C51.6752 15.5864 51.7904 15.3275 51.775 15.1785C51.7597 15.0296 51.5677 14.8548 51.4524 14.693C51.3546 14.8417 51.2674 14.9952 51.1913 15.1527C51.176 15.2189 51.176 15.2871 51.1913 15.3533C50.8687 15.1203 50.5461 14.9066 50.2542 14.7059C50.1956 14.6618 50.1484 14.608 50.1153 14.5479C50.0823 14.4878 50.0642 14.4226 50.0622 14.3563C50.093 14.2657 50.308 14.1686 50.4232 14.1362ZM37.6655 29.0266C37.7132 28.685 37.8412 28.3549 38.0419 28.0555C38.3623 27.8635 38.7402 27.7514 39.1326 27.7318C40.0619 27.544 40.999 27.3886 42.082 27.1944C42.1895 27.311 42.466 27.4922 42.4353 27.6023C42.3696 27.8472 42.1933 28.0609 41.9437 28.1979C41.5078 28.3342 41.0578 28.436 40.5996 28.5022C39.8853 28.6705 39.1786 28.8712 38.4567 29.0266C38.1937 29.0495 37.9285 29.0495 37.6655 29.0266ZM43.8101 32.1082V32.911C42.5813 32.9417 41.3764 33.205 40.2847 33.6814C39.2862 34.0569 38.8945 33.9728 38.5258 33.0923L43.8101 32.1082ZM44.1634 51.8995C43.9161 51.8898 43.6711 51.8551 43.4338 51.7959C43.4875 51.5887 43.4338 51.2974 43.6104 51.1938C44.3785 50.7341 45.1466 50.3198 45.9146 49.899C47.374 49.0768 48.8256 48.2351 50.308 47.4324C50.6844 47.2317 51.1452 46.8691 51.5907 47.3935C51.6598 47.4712 51.7136 47.5554 51.7904 47.659C51.7012 47.777 51.5926 47.8838 51.4678 47.9762L44.6934 51.6858C44.5532 51.7917 44.3845 51.8673 44.2018 51.9059L44.1634 51.8995ZM50.9225 60.0503C50.7228 60.756 50.4847 61.4552 50.2542 62.1544L50.0545 62.2515C49.7089 61.5135 49.3402 60.7819 49.0176 60.0374C48.1191 57.7687 46.7313 55.6595 44.9238 53.8158C44.5167 53.4144 44.6704 53.1295 45.1005 52.8771C46.3524 52.1455 47.6044 51.4139 48.864 50.6953C49.6321 50.268 50.3618 49.8796 51.0838 49.4005C51.1482 49.3447 51.2252 49.3003 51.3103 49.2701C51.3954 49.2398 51.4868 49.2242 51.5792 49.2242C51.6715 49.2242 51.763 49.2398 51.848 49.2701C51.9331 49.3003 52.0102 49.3447 52.0746 49.4005C53.1729 50.1385 54.2943 50.8442 55.4003 51.5693C55.594 51.7142 55.8364 51.8045 56.0939 51.8277C56.3514 51.8509 56.611 51.8058 56.8366 51.6988C57.0965 51.5586 57.4034 51.4935 57.711 51.5134C58.0186 51.5332 58.3102 51.6369 58.5417 51.8088C58.9488 52.1002 59.018 52.2944 58.4265 52.521C56.6688 53.1259 55.0941 54.055 53.8181 55.2401C52.427 56.6325 51.4478 58.2833 50.9609 60.0568L50.9225 60.0503ZM60.4773 36.6984C60.2035 36.5381 59.9466 36.3583 59.7092 36.161C59.4682 35.9401 59.1388 35.8021 58.7844 35.7734C58.43 35.7447 58.0755 35.8274 57.789 36.0056C57.4233 36.1888 57.1222 36.4511 56.917 36.7652C56.7117 37.0793 56.6097 37.434 56.6216 37.7925C56.6748 38.045 56.6564 38.3046 56.5678 38.5499C56.4449 38.7506 56.107 38.8542 55.8612 39.0031C55.7301 38.854 55.6289 38.6878 55.5616 38.5111C55.5347 38.2353 55.5347 37.9582 55.5616 37.6824C55.5324 37.3142 55.5989 36.9451 55.7567 36.6009C55.9145 36.2566 56.1597 35.9457 56.475 35.6897C56.7904 35.4337 57.1684 35.239 57.5824 35.1191C57.9965 34.9992 58.4366 34.9571 58.872 34.9957C59.4755 35.0145 60.0519 35.2115 60.5003 35.5524C61.1317 36.1819 61.6494 36.8866 62.0365 37.6436C62.4128 38.3492 62.0749 38.5823 60.9765 38.4593C61.094 38.3194 61.1748 38.16 61.2133 37.9918C61.2519 37.8235 61.2474 37.6502 61.2001 37.4835C61.1529 37.3168 61.064 37.1605 60.9393 37.0251C60.8146 36.8897 60.6571 36.7783 60.4773 36.6984ZM59.8628 37.2616C59.7707 37.6565 59.8167 38.2262 59.571 38.3298C59.0146 38.4896 58.4306 38.5705 57.8428 38.5694C57.8428 37.4429 57.9887 37.3199 59.8628 37.2616ZM59.0948 41.3856C60.9765 41.2885 63.6341 43.5932 63.7032 45.6196C63.7723 47.3417 60.9842 49.3357 58.5187 49.4005C56.5294 49.4523 54.0639 47.2122 54.1023 45.2894C54.2091 44.233 54.7788 43.2479 55.7003 42.5262C56.6219 41.8045 57.8292 41.3978 59.0871 41.3856H59.0948ZM61.8982 70.8685C60.2392 71.6778 58.4726 71.3217 57.0517 70.2211C56.426 69.7749 55.9528 69.1962 55.6809 68.5445C55.4089 67.8928 55.3481 67.1918 55.5046 66.5138C55.6611 65.8357 56.0293 65.205 56.5713 64.6868C57.1132 64.1687 57.8093 63.7817 58.5878 63.5657C59.0304 63.3792 59.5156 63.2756 60.0102 63.2622C60.5047 63.2488 60.9969 63.3258 61.4527 63.4881C62.9792 64.0384 64.2198 65.0335 64.9475 66.2913C65.0525 66.5739 65.0993 66.8695 65.0857 67.1653C65.0704 69.1658 63.4805 70.0787 61.8905 70.8685H61.8982ZM65.3853 62.2839C65.276 62.31 65.1615 62.3166 65.0491 62.3032C64.9367 62.2899 64.8288 62.2568 64.7324 62.2062C64.4539 62.0207 64.2082 61.8027 64.0027 61.5588C63.3499 60.8466 62.6817 60.3287 61.2914 60.8207C61.1032 60.8674 60.9059 60.8823 60.7108 60.8645C60.5157 60.8467 60.3268 60.7967 60.1547 60.7172C59.7438 60.4988 59.2564 60.406 58.774 60.4543C58.2916 60.5027 57.8436 60.6891 57.5049 60.9826C56.7368 61.5523 55.746 61.63 54.8243 61.8436L54.6092 61.6818C55.024 60.9179 55.4311 60.1539 55.8535 59.3964C56.1897 58.721 56.6974 58.1159 57.3411 57.6237C57.9847 57.1316 58.7485 56.7643 59.5786 56.5479C60.1128 56.4275 60.6729 56.4139 61.2143 56.5084C61.7557 56.6028 62.2634 56.8025 62.697 57.0917C63.4932 57.5325 64.1555 58.1249 64.6304 58.8209C65.1053 59.517 65.3797 60.2973 65.4314 61.0991C65.4848 61.334 65.5156 61.5722 65.5235 61.8113C65.5158 61.9861 65.4698 62.258 65.3776 62.2839H65.3853ZM68.2195 64.1096C68.0632 64.2564 67.882 64.3829 67.6818 64.4851C67.5732 64.3556 67.4926 64.2109 67.4437 64.0578C67.3362 63.2291 67.3285 62.3875 67.1518 61.5782C66.7371 59.636 66.0689 57.7326 64.2101 56.3277C61.7062 54.4373 59.1255 54.3855 56.7137 56.386C54.7075 57.9375 53.4429 60.0534 53.1576 62.3357C53.1433 62.6142 53.0891 62.8903 52.9963 63.1579C52.868 63.3858 52.7136 63.6026 52.5354 63.8053L52.2282 63.7082C52.1898 63.2059 52.1898 62.702 52.2282 62.1997C52.5764 59.9275 53.7548 57.8029 55.6 56.1206C56.1885 55.5269 56.9112 55.038 57.7262 54.6823C58.5412 54.3267 59.432 54.1113 60.3467 54.0489C62.6509 53.9323 64.2716 54.8711 65.5696 56.2889C66.9057 57.7253 67.7408 59.447 67.9814 61.261C68.0889 62.0638 68.1734 62.873 68.2579 63.6758C68.2915 63.8212 68.2755 63.9716 68.2118 64.1096H68.2195ZM72.3671 56.0947C71.8524 57.4801 71.3378 58.872 70.8309 60.2575C70.6773 60.6524 70.4853 61.0344 70.2625 61.5135C69.963 60.4452 69.7556 59.5 69.4407 58.5872C69.022 57.2 68.193 55.925 67.0312 54.8811C65.8693 53.8373 64.4125 53.0587 62.7969 52.6181C62.2055 52.4998 61.5996 52.4412 60.9919 52.4433C60.7999 52.4433 60.6002 52.4433 60.339 52.4433C60.5314 52.0978 60.7739 51.7738 61.061 51.4787C61.2989 51.2864 61.6147 51.1776 61.9443 51.1744C63.7032 51.3815 63.9797 50.7082 64.5634 49.6206C64.6863 49.4005 64.8323 49.1868 65.0012 48.902C65.7693 49.4005 66.3684 49.8278 66.9905 50.2745C68.5267 51.3945 70.0628 52.5469 71.6451 53.641C72.0751 53.9221 72.3797 54.3175 72.5093 54.7629C72.639 55.2084 72.5862 55.6777 72.3594 56.0947H72.3671ZM72.9661 53.013C71.8678 52.2426 70.8539 51.5499 69.8939 50.8312C68.9338 50.1126 68.0198 49.4587 67.0981 48.7531C66.8428 48.575 66.6337 48.3547 66.4836 48.1057C66.3914 47.9438 66.4836 47.7043 66.4836 47.5036C66.6987 47.5036 66.9675 47.5036 67.1134 47.5683C67.6895 47.9373 68.2195 48.3582 68.7802 48.7531C69.9246 49.5753 71.0844 50.3845 72.2288 51.2067C72.5591 51.4058 72.807 51.6871 72.9379 52.0111C73.0688 52.335 73.076 52.6854 72.9585 53.013H72.9661ZM73.4654 44.4543C73.404 45.4837 73.4654 46.5195 73.4039 47.5489C73.3725 47.7099 73.3157 47.8667 73.235 48.015C73.0762 47.9511 72.9245 47.8753 72.7818 47.7884C72.0137 47.2058 71.2457 46.6102 70.4776 46.0145C70.2853 45.9008 70.1144 45.7633 69.9707 45.6067C69.7246 45.2753 69.3859 44.9999 68.9841 44.8047C68.5824 44.6094 68.1299 44.5002 67.6664 44.4867C66.8062 44.3701 65.6618 43.0947 65.5312 42.1819C65.5312 42.0395 65.5312 41.9035 65.5312 41.7611C65.4774 40.8677 65.224 40.6087 64.2024 40.4663C63.4344 40.3433 63.3192 40.1685 63.4344 39.5146C63.6668 38.7932 63.778 38.0479 63.7646 37.3004C63.7301 36.6683 63.523 36.0514 63.1593 35.4978C62.7956 34.9442 62.2852 34.4688 61.6678 34.1087C61.35 33.9685 61.0185 33.8515 60.677 33.7591C60.9689 33.157 61.2838 32.6003 61.4988 32.0176C61.5833 31.8104 61.7523 31.422 61.1916 31.3702C60.6309 31.3184 60.2085 31.3055 60.1009 31.8622C59.9934 32.419 59.9243 32.9046 59.8244 33.4937C59.6094 33.4937 59.3559 33.4937 59.1101 33.4548C58.0231 33.3203 56.9133 33.4697 55.9301 33.883C54.9469 34.2962 54.1374 34.9534 53.6107 35.7661C53.3339 36.4285 53.2113 37.1297 53.2497 37.8313C53.2497 38.5176 53.388 39.2103 53.3803 39.8965C53.2935 40.6133 52.8905 41.2764 52.2512 41.7546C51.8058 42.1819 51.4064 42.648 50.9839 43.0947C50.9647 43.1304 50.9388 43.1632 50.9071 43.1918C49.8472 43.8393 48.8026 44.5514 47.7273 45.1988C46.291 46.0534 44.8393 46.8821 43.3877 47.7107C43.0128 47.9426 42.6144 48.1463 42.1972 48.3193C41.3446 48.6301 41.0835 48.5524 40.5842 47.8726C39.8225 46.8757 39.3465 45.7431 39.194 44.5643C39.0173 43.0688 38.9943 41.5539 38.9329 40.0325C38.9613 39.713 39.0256 39.3965 39.1249 39.0873C39.4296 39.3215 39.7529 39.5378 40.0926 39.7347C40.1464 39.7347 40.5151 39.4628 40.492 39.4304C40.361 39.1392 40.1443 38.8807 39.8622 38.6794C39.605 38.5489 39.4024 38.3541 39.2826 38.122C39.1628 37.89 39.1319 37.6322 39.194 37.3846C39.194 37.2098 39.6625 37.0609 39.9621 36.912C40.2616 36.7631 40.3615 36.7372 40.5612 36.6466C40.446 36.5236 40.3461 36.3811 40.2232 36.2711C39.8469 35.9474 40.1464 34.6396 40.6687 34.536C41.6211 34.3418 42.5889 34.1929 43.549 34.0246C43.9945 33.9404 44.2556 34.0246 44.317 34.4648C44.4553 35.3453 44.6243 36.2257 44.7933 37.0997C44.8596 37.6108 44.97 38.1171 45.1235 38.6147C45.2618 38.9837 45.5152 39.3592 46.122 39.2621C46.7288 39.165 46.9669 38.796 47.0667 38.3557C47.1767 37.8697 47.2562 37.3792 47.3048 36.8861C47.5276 34.8921 47.7273 32.8981 47.95 30.9105C48.1958 28.7353 48.4646 26.5664 48.7181 24.3976C48.8487 23.2582 48.9332 22.1123 49.0714 20.9664C49.1146 20.4335 49.2253 19.9061 49.4017 19.3932C49.5329 19.0335 49.8033 18.7212 50.1698 18.5062C51.2143 18.0012 52.3204 17.5869 53.5954 17.056V17.9365C53.5954 21.0699 53.5954 24.2034 53.5416 27.3369C53.5311 27.485 53.5649 27.6331 53.6399 27.7674C53.7149 27.9017 53.8287 28.018 53.9709 28.1056C54.1131 28.1932 54.2791 28.2494 54.4537 28.2689C54.6283 28.2884 54.8059 28.2707 54.9702 28.2173C55.1652 28.1775 55.3364 28.0795 55.4522 27.9414C55.568 27.8033 55.6205 27.6345 55.6 27.4663C55.6692 24.5918 55.7767 21.7174 55.8612 18.8429C55.8612 17.9624 55.9533 17.8782 57.1362 17.7164L56.7291 18.2214C57.2103 18.276 57.6952 18.3041 58.1808 18.3055C58.3651 18.3055 58.5417 18.1242 58.7184 18.0207C58.5341 17.8523 58.3881 17.5998 58.1577 17.5351C57.6079 17.4296 57.0706 17.2823 56.5524 17.0949C57.1362 17.0301 57.7199 16.9848 58.296 16.8877C58.5187 16.8489 58.703 16.6676 58.9258 16.5964C59.2066 16.4861 59.5081 16.4182 59.8167 16.3957C59.8936 16.3957 60.0549 16.7258 60.0549 16.9071C60.1701 20.1442 60.2622 23.3359 60.3698 26.547C60.3698 26.9808 60.5387 27.4081 60.5925 27.8418C60.6463 28.2756 60.9842 28.4504 61.4681 28.3921C61.952 28.3339 62.6202 28.3921 62.6509 27.7123C62.6817 27.0326 62.7124 26.3657 62.7277 25.686C62.7892 23.8214 62.8199 21.9569 62.9121 20.0924C62.9571 19.2456 63.0675 18.4022 63.2424 17.5675C63.2961 17.315 63.6033 16.9201 63.8338 16.9201C64.4252 16.8683 65.2009 16.7258 65.4851 17.3797C65.9502 18.2418 66.2286 19.1671 66.307 20.1118C66.307 22.669 66.4683 25.2263 66.5912 27.7836C66.6165 28.2569 66.7279 28.7242 66.9214 29.169C67.0041 29.3703 67.1723 29.5386 67.3936 29.6415C67.6149 29.7443 67.8736 29.7743 68.1196 29.7258C68.6573 29.6546 68.8339 29.3244 68.8877 28.91C69.0183 27.1491 69.1719 25.3882 69.2564 23.6272C69.2564 23.1934 69.4484 23.0834 69.9092 23.064C70.519 23.0342 71.1266 22.978 71.7296 22.8956C72.2288 22.8374 72.4515 22.9733 72.4976 23.4136C73.7726 30.3861 73.811 37.4429 73.4654 44.4543ZM105.916 24.1322C103.812 25.291 101.715 26.4499 99.6029 27.5829C99.3571 27.7123 98.7734 27.79 98.7119 27.7059C98.6424 27.6249 98.5945 27.5322 98.5715 27.4341C98.5485 27.3361 98.551 27.235 98.5787 27.1378C98.6065 27.0407 98.6588 26.9497 98.7322 26.8712C98.8056 26.7927 98.8982 26.7285 99.0038 26.683C100.486 25.8867 101.976 25.0968 103.451 24.294C104.296 23.8344 105.118 23.3553 106.009 22.8503C106.723 23.3877 106.715 23.679 105.893 24.1322H105.916ZM98.2357 16.6741C98.7196 15.567 99.0038 14.4146 99.4186 13.2816C99.4589 13.1931 99.5104 13.1084 99.5722 13.0292L99.841 12.9644C100.233 13.7284 100.671 14.4793 101.016 15.2562C101.941 17.3703 103.235 19.3561 104.857 21.1476C105.417 21.7562 105.402 21.795 104.634 22.2223C102.744 23.297 100.855 24.3588 98.9961 25.4594C98.4047 25.809 97.9515 25.8996 97.46 25.3882C97.2272 25.1961 96.9696 25.0267 96.6919 24.8832C96.095 24.5131 95.5207 24.1176 94.9714 23.6984C94.754 23.4596 94.454 23.2834 94.1129 23.1942C93.7718 23.1049 93.4063 23.1069 93.0666 23.1999C92.5902 23.302 92.0976 23.3391 91.6073 23.31C91.5135 23.2952 91.4257 23.2608 91.3518 23.2099C91.278 23.1589 91.2206 23.0932 91.1848 23.0186C91.1824 22.9351 91.2034 22.8523 91.2461 22.777C91.2888 22.7016 91.352 22.6358 91.4306 22.5849C91.9414 22.2726 92.4778 21.9914 93.0359 21.7433C95.4796 20.6781 97.346 18.8639 98.2511 16.6741H98.2357ZM90.1326 38.7701C90.3093 38.9337 90.5281 39.0611 90.7722 39.1424C91.0163 39.2238 91.2792 39.257 91.5409 39.2395C91.8026 39.222 92.0561 39.1543 92.2819 39.0415C92.5077 38.9287 92.7 38.7738 92.8439 38.5888C93.4199 37.9867 94.0421 37.3458 93.466 36.4653C93.4122 36.3747 93.6734 36.0963 93.85 35.9733C93.9115 35.9279 94.2648 36.0445 94.3186 36.1481C94.4443 36.4596 94.5469 36.7775 94.6258 37.0997C94.6578 37.7372 94.432 38.3649 93.9855 38.88C93.5389 39.3952 92.8981 39.7673 92.168 39.9354C91.7699 40.0262 91.3542 40.0486 90.9457 40.0011C90.5371 39.9536 90.1441 39.8373 89.79 39.6591C89.436 39.4809 89.1281 39.2444 88.8848 38.9637C88.6414 38.6831 88.4676 38.364 88.3737 38.0255C88.229 37.7119 88.156 37.378 88.1586 37.0415C88.1903 36.9112 88.2584 36.7892 88.3572 36.6856C88.4561 36.5821 88.5829 36.4998 88.727 36.4459C89.2032 36.3423 89.2109 36.7178 89.2032 36.9962C89.178 37.333 89.2492 37.67 89.411 37.9787C89.5727 38.2875 89.8202 38.5589 90.1326 38.7701ZM90.4091 37.035C90.4091 36.6142 90.6241 36.3876 91.1771 36.3876C91.7302 36.3876 92.3369 36.7502 92.2985 37.1515C92.2448 37.7601 91.6226 37.4688 91.3692 37.5659C90.7393 37.663 90.4321 37.4429 90.4091 37.035ZM91.2847 33.6296C88.9805 33.7203 86.177 31.545 86.2768 29.7452C86.2656 28.6703 86.7615 27.6358 87.6552 26.869C88.549 26.1023 89.7675 25.6663 91.0427 25.6568C92.3179 25.6474 93.5453 26.0653 94.455 26.8187C95.3646 27.572 95.8819 28.5991 95.8931 29.674C95.8613 30.7025 95.368 31.6825 94.5128 32.4166C93.6576 33.1506 92.5041 33.5841 91.2847 33.6296ZM85.3705 5.94005C85.7546 4.89772 86.7991 4.42512 87.7439 3.84245C88.0434 3.66765 88.5119 3.75829 88.9651 3.72592C89.2714 3.54405 89.6347 3.4427 90.0092 3.43463C90.3837 3.42657 90.7527 3.51215 91.0696 3.6806C91.8971 4.01081 92.6466 4.46488 93.2817 5.02073C93.7717 5.6286 94.1812 6.27989 94.5029 6.96295C94.6354 7.17914 94.7083 7.41772 94.7163 7.66095C94.7243 7.90418 94.6671 8.1458 94.549 8.36783C94.2643 9.20994 93.7091 9.96937 92.9447 10.5623C92.1802 11.1552 91.2363 11.5586 90.2171 11.7279C88.6118 12.0127 86.1463 10.8021 85.5241 9.4231C85.5088 9.34665 85.4804 9.27249 85.4396 9.20298C84.4642 8.14123 84.9865 7.05359 85.3705 5.94005ZM84.541 12.6019C84.7588 12.64 84.9685 12.7054 85.1631 12.7961C85.5757 13.09 85.9705 13.4011 86.346 13.7284C86.5912 13.9978 86.9412 14.1857 87.3346 14.2591C87.7279 14.3325 88.1393 14.2867 88.4966 14.1297C88.9336 14.0245 89.4014 14.0591 89.81 14.2269C90.8699 14.7189 91.3461 14.7318 92.2909 14.065C93.0211 13.5193 93.9443 13.1917 94.9177 13.1327C94.7871 13.5665 94.6796 13.9485 94.549 14.324C94.1441 15.7398 93.1731 16.995 91.7993 17.8782C91.0887 18.3212 90.2207 18.5478 89.3374 18.5207C88.4542 18.4937 87.608 18.2146 86.9374 17.7293C86.0984 17.198 85.4257 16.5023 84.9773 15.7025C84.529 14.9027 84.3186 14.0229 84.3643 13.1392C84.3981 12.9549 84.4574 12.7745 84.541 12.6019ZM81.6223 10.8344C81.6998 10.6521 81.8029 10.4782 81.9296 10.3165C82.0832 10.4784 82.3443 10.6273 82.3674 10.8021C82.4749 11.6308 82.5286 12.4594 82.5901 13.2946C82.78 15.0763 83.6661 16.7544 85.1094 18.066C85.7924 18.8299 86.7196 19.4138 87.7823 19.7492C88.5525 19.9507 89.3666 20.0035 90.1644 19.9037C90.9621 19.804 91.723 19.5543 92.3907 19.173C94.2012 18.1732 95.4814 16.6207 95.9622 14.8419C96.2771 13.8967 96.4922 12.8997 96.8148 11.9739C96.8839 11.7602 97.2065 11.6049 97.4139 11.4301C97.4907 11.6502 97.6827 11.8832 97.6443 12.0775C97.1528 14.7513 96.2464 17.2567 93.85 19.1989C90.916 21.6591 86.7915 21.4001 84.2184 18.6681C82.8188 17.1466 81.9921 15.3065 81.8451 13.3852C81.7836 12.7378 81.6838 12.0904 81.6146 11.5595C81.5885 11.3182 81.5911 11.0753 81.6223 10.8344ZM77.3595 19.3737C77.9125 17.684 78.4963 16.0072 79.0877 14.324C79.2309 14.0552 79.4059 13.7992 79.61 13.56C79.8327 14.2528 79.9787 14.7707 80.1707 15.2821C80.5773 16.6567 81.241 17.968 82.1369 19.1666C83.4502 20.8477 85.4606 22.0552 87.7746 22.5525C88.4276 22.6371 89.0879 22.6761 89.7485 22.669C89.5792 22.9654 89.3234 23.2207 89.005 23.411C88.6866 23.6012 88.3161 23.7202 87.9282 23.7567C86.0618 23.9574 86.008 23.9703 85.4934 25.4658C85.2707 26.1133 84.925 26.165 84.349 25.7507C82.5671 24.4559 80.7774 23.1611 78.9725 21.8663C78.5808 21.5814 78.2044 21.2189 77.8434 20.9793C77.5723 20.7888 77.3795 20.531 77.2926 20.2427C77.2057 19.9543 77.2291 19.6502 77.3595 19.3737ZM77.2059 22.0152C77.9125 22.5266 78.5577 22.9863 79.1799 23.4459L83.1354 26.3916C83.2583 26.4823 83.4503 26.5859 83.4657 26.6894C83.4835 26.9721 83.4784 27.2555 83.4503 27.5375C83.1548 27.5094 82.8682 27.4348 82.6055 27.3174C81.0155 26.1521 79.4487 24.9673 77.8741 23.7761C77.0216 23.1611 76.9064 22.8503 77.2059 22.0152ZM78.8419 59.4547C78.8002 59.4217 78.7677 59.3814 78.7464 59.3367C78.7252 59.292 78.7158 59.2439 78.719 59.1957C78.7386 59.1535 78.7697 59.1157 78.8097 59.0854C78.8497 59.055 78.8975 59.033 78.9494 59.0209C79.4103 59.0209 79.8711 59.0209 80.4395 59.0209C80.1323 59.4159 79.0954 59.6554 78.8419 59.4547ZM78.4963 55.6156C78.55 54.7416 78.5961 53.9453 78.6499 53.1036C78.9264 53.1036 79.249 53.0519 79.5639 52.9936C79.8788 52.9353 80.1169 53.0648 80.1015 53.4015C80.1015 53.9712 80.1015 54.5474 80.1015 55.1171C80.1015 55.4732 79.9556 55.635 79.5332 55.6156C79.1107 55.5962 78.9033 55.635 78.5039 55.635L78.4963 55.6156ZM84.6409 66.0971C84.5256 66.0971 84.3797 65.7669 84.1877 65.508H86.5764L86.6225 65.8187C85.9696 65.9288 85.3091 66.0647 84.6485 66.1165L84.6409 66.0971ZM84.3797 60.3676C84.3797 59.6489 84.5256 59.5907 85.647 59.5324C86.3613 59.5 86.4151 59.8561 86.4151 60.2834C86.4151 60.4388 86.4151 60.5941 86.4151 60.7948C85.9389 60.8272 85.3936 60.7301 85.0633 60.9179C84.733 61.1056 84.7868 61.5653 84.6101 62.0184C84.6101 62.0184 84.372 61.889 84.3567 61.7854C84.3643 61.3322 84.372 60.8596 84.3874 60.387L84.3797 60.3676ZM85.4396 58.0887V57.8686C85.8198 57.7979 86.2045 57.746 86.5918 57.7132C86.6808 57.8836 86.7477 58.0616 86.7915 58.2441L85.4396 58.0887ZM92.3523 70.3894C92.0053 70.5115 91.6289 70.5625 91.254 70.5383C90.7086 70.5383 90.5396 70.2535 90.6702 69.7938C91.176 69.6862 91.689 69.604 92.2064 69.5478C92.3907 69.5478 92.6058 69.6967 92.8055 69.7808C92.6672 70.0074 92.5827 70.3182 92.3677 70.4024L92.3523 70.3894ZM93.2509 66.1359C93.1818 66.2266 93.0052 66.2525 92.8976 66.3302C92.3523 66.7121 92.3907 67.1394 93.0205 67.8775C91.8838 67.0941 90.893 67.7415 89.8868 68.13C89.8868 68.0652 89.833 68.0005 89.81 67.9357C89.9619 67.8091 90.1354 67.7022 90.3246 67.6185C90.5188 67.5717 90.6865 67.4673 90.7966 67.3246C90.9067 67.1818 90.9518 67.0103 90.9237 66.8416C90.9237 66.4532 90.8699 66.0842 90.2401 66.0259C90.1095 66.0259 90.002 65.7734 89.8868 65.6374C90.0346 65.5597 90.1886 65.4904 90.3476 65.4303C90.45 65.4045 90.5558 65.3893 90.6625 65.385L91.83 66.6798C92.0813 66.3445 92.3531 66.0203 92.6442 65.7087C92.7923 65.5742 92.9807 65.4758 93.1895 65.4238C93.2663 65.4238 93.5044 65.5533 93.489 65.5986C93.4584 65.7926 93.3827 65.9796 93.2663 66.1489L93.2509 66.1359ZM92.8592 60.879H90.747C90.6472 60.128 90.8315 59.7396 91.3461 59.7396C93.1741 59.7331 92.8208 59.6489 92.8746 60.892L92.8592 60.879ZM93.466 63.8377C93.0589 64.2261 91.9299 64.0642 92.4214 64.9706H91.0005L90.5704 63.8377H93.466ZM92.5981 58.7037C91.83 58.7037 91.0082 58.7037 90.2094 58.7037C90.0404 58.7037 89.7255 58.4771 89.7485 58.393C89.8177 58.0887 89.4567 57.5319 90.0711 57.5125C91.3 57.4736 92.529 57.5837 93.7502 57.629C93.7787 57.6692 93.7994 57.7129 93.8116 57.7585C93.827 58.7685 93.827 58.749 92.6134 58.7167L92.5981 58.7037ZM97.7979 56.6709C97.2987 57.7973 97.2987 57.7973 96.4 57.765C96.0237 56.6968 96.2771 56.4961 97.8133 56.6838L97.7979 56.6709ZM97.9285 58.6131C98.5737 58.1793 99.3341 58.6131 99.3725 59.3188C99.3725 59.513 99.3725 59.7072 99.3725 59.9662C98.0975 59.4741 97.2296 59.9662 96.354 60.6783C96.354 60.51 96.354 60.2963 96.4384 60.1733C96.8512 59.5926 97.3578 59.0631 97.9439 58.6001L97.9285 58.6131ZM98.5737 65.0871C97.99 65.0871 97.4062 65.126 96.8225 65.1325C96.0544 65.1325 96.4154 64.6599 96.3002 64.3556H99.1958C99.2726 64.8023 99.0806 65.0289 98.589 65.0548L98.5737 65.0871ZM99.4339 61.1121C98.9654 61.1121 98.4892 61.1121 98.013 61.1121V61.0214C98.4431 60.9373 98.8655 60.8402 99.2957 60.7754C99.3878 60.7754 99.5031 60.8596 99.6029 60.9049C99.5799 60.9502 99.5184 61.0732 99.4493 61.0797L99.4339 61.1121ZM99.1113 57.5772C99.1595 57.2463 99.2288 56.9178 99.3187 56.5932C99.3187 56.5932 99.8103 56.5932 99.864 56.645C100.027 56.9283 100.153 57.2257 100.24 57.5319L99.1113 57.5772ZM105.363 40.285C105.256 39.3786 105.156 38.4723 105.025 37.5659C104.99 37.1544 104.887 36.7491 104.718 36.3617C104.488 35.8697 103.95 35.8826 103.389 35.9085C102.829 35.9344 102.79 36.2257 102.752 36.5559C102.46 39.4757 102.184 42.3826 101.869 45.3218C101.646 47.264 101.346 49.2581 101.101 51.2262C100.955 52.4692 100.832 53.7187 100.747 54.9617C100.686 55.8487 100.425 56.2565 99.0499 55.8357C98.8425 55.771 98.4815 55.6997 98.4047 55.7774C97.8363 56.3666 97.0683 56.1141 96.2695 56.2436V55.5508C96.2695 52.8792 96.2695 50.2011 96.2695 47.5165C96.2695 47.277 96.4308 46.8691 95.9008 46.8691C95.3708 46.8691 94.7564 46.6425 94.4875 47.2446C94.3593 47.5415 94.2918 47.8545 94.2878 48.1704C94.2878 50.7082 94.2418 53.2461 94.2264 55.7904C94.2573 55.9664 94.2573 56.1453 94.2264 56.3213C94.1112 56.6061 93.996 57.0269 93.7656 57.0981C93.5351 57.1694 93.0666 56.9428 92.7056 56.8651C92.3978 56.7639 92.0677 56.7198 91.7378 56.7356C91.0881 56.8872 90.4495 57.0709 89.8253 57.2859C89.8253 56.9298 89.7793 56.7227 89.7716 56.509L89.4951 47.4065C89.4951 46.9727 89.3875 46.6231 88.727 46.5907C87.813 46.5325 87.3752 46.7073 87.2369 47.2381C87.1857 47.4729 87.1651 47.7117 87.1755 47.9503C87.1755 50.6694 87.1627 53.3885 87.1371 56.1076C87.1371 56.3989 87.091 56.6903 87.0603 57.0917C86.6916 56.9492 86.4074 56.8457 86.1309 56.7162C85.3244 56.3472 84.9788 56.4961 84.902 57.26C84.902 57.5384 84.902 57.8103 84.902 58.1275C84.4335 58.3541 84.2722 58.27 84.1339 57.752C83.097 53.9841 83.8574 50.1256 83.266 46.3318C83.1431 45.516 82.7053 45.1859 81.7299 45.3736C81.608 45.4069 81.4969 45.4634 81.405 45.5386C81.3132 45.6138 81.243 45.7057 81.1999 45.8074C81.0754 46.3684 80.9856 46.9346 80.9311 47.5036C80.7467 49.0574 80.5701 50.6047 80.3934 52.1261C79.3642 52.262 79.2259 51.4787 78.6652 51.1614L79.2874 50.8636C78.143 50.5917 78.1967 50.6435 78.1122 51.3815C78.0641 51.6266 77.9974 51.8688 77.9125 52.1066C77.6376 51.9112 77.4207 51.6641 77.2793 51.3853C77.138 51.1065 77.076 50.8037 77.0984 50.5011C76.8296 48.0733 76.7067 45.639 76.4225 43.2113C75.8771 38.5305 76.3687 33.8562 76.4762 29.1755C76.5151 28.6004 76.592 28.0277 76.7067 27.4599C76.7503 27.3352 76.8123 27.2156 76.891 27.1038C77.0633 27.1438 77.2268 27.2072 77.3749 27.2915C78.3503 28.0555 79.2797 28.8777 80.3012 29.5963C80.8494 29.954 81.4646 30.2319 82.1216 30.4185C82.9818 30.6839 84.3567 32.1406 84.3259 32.8851C84.2879 33.0689 84.2953 33.2573 84.3477 33.4385C84.4002 33.6197 84.4965 33.7898 84.6306 33.9382C84.7648 34.0865 84.9339 34.2099 85.1273 34.3005C85.3207 34.3911 85.5343 34.4471 85.7546 34.4648C86.4842 34.5684 86.6686 34.8856 86.5226 35.4035C86.4258 35.7869 86.3027 36.1652 86.154 36.5365C86.1079 36.6854 85.9696 36.8408 86.0003 36.9703C86.1309 37.7914 86.3547 38.6 86.6686 39.3851C87.1109 40.092 87.8301 40.648 88.704 40.9583C89.3204 41.3049 90.018 41.5357 90.7495 41.6351C91.481 41.7345 92.2293 41.7002 92.9437 41.5345C92.552 42.2596 92.36 42.8746 92.8515 43.4379C93.0758 43.624 93.3354 43.7772 93.6196 43.891C93.7502 43.6645 93.9883 43.4314 93.9806 43.2436C93.9434 42.7726 93.8481 42.3061 93.6964 41.8517C93.6503 41.7158 93.3892 41.6381 93.2509 41.541C93.8577 41.1655 94.5643 40.7705 95.2095 40.3109C95.8597 39.785 96.3249 39.1181 96.554 38.3835C96.783 37.649 96.767 36.8754 96.5076 36.1481C96.3678 35.6555 96.419 35.1382 96.6535 34.672C97.0005 34.0931 97.4258 33.55 97.9208 33.0535C99.8948 30.8587 102.744 29.5898 105.386 28.1008C106.239 27.6217 107.069 27.1167 107.929 26.6377C108.043 26.5543 108.18 26.4966 108.327 26.4701C108.474 26.4435 108.628 26.4489 108.772 26.4858C108.916 26.5227 109.047 26.5898 109.152 26.6809C109.257 26.772 109.333 26.8841 109.373 27.0067C109.936 27.9325 110.355 28.9162 110.617 29.933C110.947 31.8234 111.024 33.7527 111.201 35.669C111.201 35.7143 111.147 35.7661 111.116 35.8244C110.97 35.6884 110.863 35.4942 110.709 35.4618C110.29 35.4006 109.867 35.3595 109.442 35.3388C109.572 35.656 109.688 35.9862 109.849 36.284C109.941 36.4248 110.067 36.5482 110.218 36.6466C110.986 37.294 110.932 37.7277 110.026 38.2262C109.788 38.4125 109.627 38.6572 109.565 38.9254C109.434 39.2865 109.367 39.6616 109.365 40.039C109.365 40.6152 109.066 40.7188 108.474 40.7317C107.768 40.7566 107.065 40.8237 106.37 40.9324C105.724 40.9842 105.44 40.7641 105.379 40.2526L105.363 40.285ZM106.385 42.7516C105.847 42.6933 105.824 42.2984 105.909 41.9682C105.909 41.8388 106.285 41.7287 106.508 41.6834C106.763 41.6611 107.021 41.6611 107.276 41.6834C107.276 41.7352 107.276 41.787 107.33 41.8452C108.213 41.6186 109.096 41.3856 109.987 41.1978C110.283 41.1197 110.596 41.1019 110.901 41.146C110.974 41.2145 111.027 41.2965 111.055 41.3854C111.083 41.4743 111.085 41.5676 111.063 41.6575C110.865 41.8651 110.597 42.0166 110.294 42.0913C109.365 42.3308 108.413 42.538 107.46 42.7387C107.108 42.7798 106.75 42.7732 106.4 42.7192L106.385 42.7516ZM110.448 47.3482C109.942 47.4298 109.443 47.5445 108.958 47.6913C107.768 48.0539 107.537 47.9309 107.376 46.7267L111.546 46.0793C111.608 47.0245 111.5 47.154 110.463 47.3158L110.448 47.3482Z" fill="white"/>
<path d="M57.4588 31.3058C57.5663 30.7555 57.6585 30.1469 57.8044 29.5513C57.832 29.4702 57.8818 29.3957 57.9498 29.3338C58.0179 29.272 58.1022 29.2245 58.1961 29.1952C58.3184 29.1881 58.4412 29.2016 58.5573 29.2349C58.6734 29.2683 58.7804 29.3208 58.872 29.3894C59.1548 29.6324 59.3568 29.9337 59.4579 30.2632C59.559 30.5928 59.5556 30.9389 59.4481 31.2669C59.1869 31.7525 58.4342 32.0632 57.9119 32.4323C57.7724 32.3595 57.6583 32.2567 57.5817 32.1345C57.5136 31.8616 57.4724 31.5844 57.4588 31.3058Z" fill="white"/>
<path d="M55.4157 31.6162C55.6 31.3378 55.6615 31.15 55.8151 31.0724C55.8975 31.0498 55.9854 31.0457 56.0703 31.0604C56.1551 31.0752 56.2339 31.1083 56.299 31.1565C56.7061 31.6939 57.0671 32.2442 57.4434 32.8074C57.4895 32.8721 57.3128 33.1182 57.1823 33.1635C57.0517 33.2088 56.6984 33.2153 56.6216 33.1635C56.1914 32.6585 55.7997 32.1341 55.4157 31.6162Z" fill="white"/>
<path d="M70.5544 24.4947C70.2932 24.2099 70.0551 24.061 70.0091 23.8797C69.8939 23.4653 70.2241 23.2323 70.6466 23.3488C70.9584 23.4593 71.2465 23.6124 71.4991 23.802L70.5544 24.4947Z" fill="white"/>
<path d="M52.1437 19.0826C51.7597 19.3091 51.5677 19.4969 51.3756 19.5228C51.0377 19.5228 50.6076 19.4386 50.7689 19.0761C50.8533 18.843 51.1759 18.6747 51.391 18.4805L52.1437 19.0826Z" fill="white"/>
<path d="M90.5089 44.2339C90.5089 43.8649 90.555 43.5282 90.5857 43.1916C90.5857 42.7449 90.9083 42.6348 91.3538 42.8485C91.6306 42.9846 91.8591 43.1806 92.0158 43.4163C92.1724 43.6519 92.2515 43.9185 92.2448 44.1886C92.2716 44.4662 92.2154 44.745 92.0812 44.9995C91.947 45.254 91.7391 45.476 91.4767 45.6453C91.0466 45.9042 90.6549 45.7229 90.6088 45.2698C90.5473 44.9137 90.532 44.5641 90.5089 44.2339Z" fill="white"/>
<path d="M88.8268 42.0332C89.7408 42.1174 90.002 42.4281 89.7178 42.9978C89.5597 43.3249 89.3449 43.6304 89.0803 43.9042C88.7731 44.2344 88.4428 44.092 88.389 43.7488C88.3315 43.2809 88.3469 42.8085 88.4351 42.344C88.4428 42.2015 88.7347 42.0915 88.8268 42.0332Z" fill="white"/>
<path d="M90.939 26.437C89.4029 26.3011 87.2369 28.0814 87.1908 29.4022C87.1448 30.7229 89.4567 32.9111 90.9698 32.7622C91.9594 32.6658 92.8768 32.2776 93.5598 31.6664C94.2428 31.0551 94.6476 30.26 94.7026 29.4216C94.6258 27.8095 92.936 26.5859 90.939 26.437ZM90.8853 30.7747C90.5688 30.6834 90.2962 30.5076 90.1091 30.2739C89.9219 30.0402 89.8304 29.7614 89.8484 29.4798C89.8472 29.3391 89.8799 29.1996 89.9445 29.0698C90.009 28.94 90.1041 28.8225 90.2239 28.7245C90.3438 28.6265 90.486 28.55 90.6419 28.4995C90.7978 28.4491 90.9642 28.4258 91.1311 28.431C91.4698 28.466 91.7814 28.6047 92.0066 28.8208C92.2318 29.0369 92.3548 29.3152 92.3523 29.6029C92.3104 29.91 92.1394 30.1944 91.8703 30.4046C91.6013 30.6148 91.2519 30.7369 90.8853 30.7488V30.7747Z" fill="white"/>
<path d="M62.5664 45.2766C62.4128 44.6952 62.1222 44.1458 61.7118 43.6609C61.3015 43.1761 60.7798 42.7656 60.1777 42.4539C59.1255 41.9295 58.1577 42.2467 57.2437 42.7905C56.1761 43.4379 55.2698 44.1371 55.1929 45.4773C55.2725 45.7803 55.3751 46.0787 55.5002 46.3707C55.76 46.967 56.2143 47.4894 56.8108 47.8777C57.4073 48.2659 58.1218 48.5043 58.872 48.5654C60.2776 48.5654 61.6448 47.4777 62.3744 46.1894C62.5557 45.9112 62.6232 45.5904 62.5664 45.2766ZM58.7722 46.6167C58.3958 46.5764 58.0492 46.4235 57.7954 46.1858C57.5417 45.9482 57.3977 45.6416 57.3896 45.3219C57.3896 44.6745 57.8351 44.4285 58.9258 44.4349C60.0164 44.4414 60.4005 44.7198 60.4005 45.3542C60.353 45.694 60.1626 46.0082 59.8638 46.2398C59.5651 46.4714 59.1778 46.6051 58.7722 46.6167Z" fill="white"/>
<path d="M91.3922 4.76815C90.6241 4.3797 89.7716 4.07542 88.9574 3.73877C88.6263 4.10138 88.2532 4.43535 87.8437 4.73578C87.2874 5.0361 86.8174 5.43713 86.468 5.90972C86.1186 6.3823 85.8985 6.91457 85.8237 7.46783C85.5856 9.46832 87.7055 10.5948 89.2877 10.7826C90.8699 10.9703 93.2049 9.39063 93.443 7.94692C93.6811 6.5032 92.8131 5.47382 91.3922 4.76815ZM89.5335 9.44242C89.2508 9.44012 88.9715 9.38965 88.7126 9.29405C88.4536 9.19845 88.2202 9.0597 88.0265 8.88613C87.8328 8.71257 87.6827 8.50777 87.5853 8.28407C87.4879 8.06036 87.4452 7.82235 87.4597 7.58437C87.4938 7.09985 87.7325 6.64162 88.1326 6.29252C88.5326 5.94343 89.0677 5.72651 89.641 5.68099C90.2176 5.71034 90.7614 5.91707 91.1691 6.26195C91.5769 6.60684 91.8202 7.06588 91.853 7.552C91.8522 7.80554 91.791 8.05635 91.6731 8.28962C91.5553 8.52289 91.3831 8.73388 91.1669 8.91012C90.9507 9.08635 90.6947 9.22426 90.4141 9.31569C90.1336 9.40712 89.8341 9.45021 89.5335 9.44242Z" fill="white"/>
<path d="M61.8061 68.1817C61.3914 68.6532 60.8023 68.9949 60.1317 69.1528H60.0625C59.6083 68.9805 59.2004 68.7321 58.8637 68.4227C58.527 68.1133 58.2685 67.7493 58.1039 67.353C58.0655 67.1459 58.1039 66.8934 58.6032 66.3755C59.1024 65.8575 59.5095 65.5015 59.763 65.5015H59.9473C60.3532 65.5077 60.7503 65.6022 61.1001 65.7757C61.45 65.9492 61.7407 66.196 61.9443 66.492C62.7124 67.3142 62.7124 67.3142 61.8061 68.1817Z" fill="white"/>
<path d="M63.3345 65.5404C62.9604 65.0674 62.4549 64.6786 61.8619 64.4078C61.2689 64.137 60.6064 63.9924 59.932 63.9866C58.7107 63.9283 57.9657 64.6729 57.236 65.3915C56.8926 65.6782 56.6316 66.0274 56.4732 66.4124C56.3147 66.7973 56.263 67.2077 56.322 67.6121C56.5449 68.3209 56.9711 68.9727 57.5631 69.5101C58.1551 70.0475 58.8947 70.454 59.7169 70.6937C59.99 70.7455 60.2733 70.7455 60.5464 70.6937C61.6102 70.4496 62.5461 69.9116 63.2039 69.1659C64.6172 67.748 64.6863 66.9841 63.3345 65.5404ZM62.2439 68.5185C61.7559 69.0755 61.0567 69.4753 60.2622 69.6514C60.1933 69.6581 60.1237 69.6581 60.0548 69.6514H59.9627C59.3912 69.4578 58.8781 69.1592 58.4609 68.7773C58.0436 68.3954 57.7328 67.9398 57.5509 67.4438C57.5216 67.1894 57.5633 66.9329 57.6727 66.6945C57.782 66.4562 57.956 66.2428 58.1808 66.0713C58.8336 65.4239 59.2637 65.0289 59.786 65.0289H59.9704C60.4521 65.0397 60.9229 65.1527 61.3391 65.3575C61.7553 65.5624 62.1035 65.8524 62.3514 66.2007C63.2808 67.1783 63.3422 67.392 62.2439 68.5185Z" fill="white"/>
<path d="M64.2485 13.2622C64.8015 13.191 65.2854 13.1133 65.0704 13.8061C65.0598 14.0246 65.0909 14.2432 65.1625 14.4535H64.0181L64.2485 13.2622Z" fill="white"/>
</svg>
