<svg width="150" height="75" viewBox="0 0 150 75" fill="none" xmlns="http://www.w3.org/2000/svg">
<path d="M150 32.4812V55.9123H141.427V45.3453H134.926L126.353 36.4958H141.427V33.6188H124.187V55.9123H115.614V32.4812C115.627 30.4548 116.408 28.5154 117.786 27.0825C119.163 25.6496 121.028 24.8382 122.977 24.8239H142.521C144.489 24.8094 146.382 25.6076 147.784 27.0433C149.186 28.479 149.983 30.4348 150 32.4812Z" fill="white"/>
<path d="M81.6164 36.4189H51.8373V44.2731H81.6164V36.4189Z" fill="white"/>
<path d="M76.2728 24.7693H46.4937V32.6234H76.2728V24.7693Z" fill="white"/>
<path d="M101.602 40.412L113.268 55.9343H102.623L96.2903 47.5004L89.9474 55.9343H79.3022L85.1928 48.102L90.9677 40.412L79.2181 24.7693H89.8527L96.2903 33.3345L102.717 24.7693H113.352L101.602 40.412Z" fill="white"/>
<path d="M76.2728 48.1021V55.9562H47.756L46.4937 54.6545V48.1021H76.2728Z" fill="white"/>
<path d="M43.3591 24.7693V55.9999H34.8282L34.7861 55.9562L17.5982 38.1913V55.9999H9.02527V24.7693H17.5772L17.5982 24.7912L34.7861 42.545V24.7693H43.3591Z" fill="white"/>
</svg>
