<svg width="150" height="75" viewBox="0 0 150 75" fill="none" xmlns="http://www.w3.org/2000/svg">
<path fill-rule="evenodd" clip-rule="evenodd" d="M38.0002 18.6493L56.6508 0.000168007H80.8992C78.325 1.25016 75.95 2.89833 73.8485 5.00015L43.251 35.5997C42.4039 34.569 41.6499 33.4727 40.9938 32.3109C40.3378 31.1492 39.7848 29.9395 39.3374 28.6819C38.89 27.4244 38.5531 26.1391 38.3294 24.8236C38.1057 23.5081 37.9951 22.1825 38.0002 20.8493V18.6493ZM58.6993 74.9998H56.6508L38.0002 56.348V32.0992C39.2494 34.6749 40.9008 37.0488 42.9996 39.1483L73.5997 69.7503C72.5691 70.597 71.4732 71.348 70.3095 72.0056C69.1482 72.661 67.9392 73.2153 66.6824 73.6613C65.4256 74.11 64.1387 74.4451 62.8241 74.6697C61.5095 74.8939 60.1848 75.0048 58.8501 74.9998H58.6993ZM113 56.348L94.3493 74.9998H70.0983C72.6747 73.7498 75.0499 72.099 77.1488 69.9996L107.749 39.4003C108.596 40.4308 109.347 41.5272 110.006 42.6888C110.662 43.8508 111.215 45.0578 111.663 46.3155C112.11 47.5728 112.444 48.8583 112.67 50.1735C112.894 51.4892 113.005 52.8147 113 54.1479V56.348ZM107.998 35.8492L77.4001 5.24963C78.4308 4.40287 79.5267 3.64934 80.688 2.9941C81.8493 2.33634 83.0581 1.78443 84.3149 1.33585C85.5744 0.88978 86.8589 0.55208 88.1759 0.327785C89.4905 0.103493 90.8151 -0.00487266 92.1499 0.000168007H94.3493L113 18.6493V42.8981C111.73 40.2672 110.064 37.9158 107.998 35.8492Z" fill="#F6F6FA"/>
</svg>
