<svg width="150" height="75" viewBox="0 0 150 75" fill="none" xmlns="http://www.w3.org/2000/svg">
<path d="M90.9377 21.1453C90.9377 16.2142 90.9377 11.283 90.9377 6.35192C90.9165 5.57203 91.1853 4.8061 91.7062 4.16159C92.2272 3.51708 92.9742 3.02633 93.8426 2.75818C94.3671 2.60342 94.9167 2.51774 95.4721 2.50415C99.174 2.50415 102.876 2.50415 106.578 2.50415C108.349 2.50415 110.067 2.50415 111.821 2.50415C112.872 2.50954 113.887 2.83048 114.684 3.40954C115.481 3.98859 116.007 4.78796 116.169 5.66455C116.242 6.16014 116.268 6.65975 116.249 7.15883C116.249 11.8359 116.205 16.513 116.205 21.1901C116.205 26.171 116.205 31.152 116.205 36.1329C116.217 36.7526 116.059 37.3663 115.744 37.926C115.483 38.3707 115.117 38.7662 114.67 39.0885C114.222 39.4108 113.702 39.6533 113.14 39.8014C112.343 39.9899 111.514 40.0682 110.687 40.033C108.128 40.033 105.559 40.033 103 40.033C101.158 40.033 99.3157 40.033 97.4736 40.033C96.6589 40.033 95.8352 40.033 95.0205 39.9807C93.8946 39.9028 92.8466 39.4649 92.091 38.7565C91.3353 38.0482 90.9291 37.123 90.9555 36.1703C90.9555 32.7334 90.9555 29.2941 90.9555 25.8523V21.1453H90.9377ZM93.7452 21.1453V28.6391C93.7452 29.319 93.7452 30.0064 93.7452 30.6863C93.7452 31.9265 93.7452 33.1742 93.7452 34.422C93.7403 34.466 93.7462 34.5104 93.7626 34.5523C93.779 34.5943 93.8055 34.633 93.8404 34.666C93.8753 34.6989 93.9179 34.7255 93.9655 34.7439C94.0131 34.7623 94.0647 34.7723 94.1171 34.7731C94.3562 34.7731 94.5865 34.7731 94.8256 34.7731H112.219C112.485 34.7731 112.759 34.7731 113.034 34.7731C113.086 34.7743 113.138 34.7662 113.186 34.7496C113.234 34.7329 113.277 34.7079 113.313 34.6762C113.349 34.6445 113.376 34.6069 113.394 34.5657C113.411 34.5245 113.419 34.4806 113.415 34.4369C113.415 34.2576 113.415 34.0857 113.415 33.9139C113.415 25.2869 113.415 16.66 113.415 8.03298C113.415 7.93586 113.415 7.83126 113.415 7.72666C113.415 7.642 113.376 7.56057 113.307 7.49933C113.238 7.43809 113.143 7.40176 113.043 7.39792C112.749 7.36625 112.453 7.35127 112.157 7.35309H94.7991C94.6575 7.34563 94.5155 7.34563 94.374 7.35309C93.8692 7.39792 93.7452 7.50999 93.7452 7.94333V21.1453ZM103.602 35.7743C103.082 35.7693 102.578 35.9319 102.195 36.2289C101.812 36.526 101.577 36.9352 101.539 37.3732C101.587 37.7986 101.817 38.1948 102.185 38.4886C102.553 38.7825 103.034 38.9542 103.54 38.972C104.053 38.9743 104.548 38.8157 104.929 38.5271C105.31 38.2385 105.551 37.8405 105.604 37.4105C105.605 37.1899 105.554 36.9713 105.453 36.7676C105.353 36.5639 105.205 36.3793 105.018 36.2247C104.831 36.0701 104.61 35.9486 104.367 35.8674C104.124 35.7861 103.864 35.7469 103.602 35.7519V35.7743ZM103.602 4.70074C102.469 4.70074 101.335 4.70074 100.192 4.70074C99.9876 4.70512 99.7846 4.73534 99.5903 4.7904C99.4852 4.81774 99.3948 4.87536 99.3349 4.9532C99.275 5.03103 99.2494 5.12414 99.2626 5.21627C99.2626 5.54501 99.5548 5.74674 100.095 5.74674H107.029C107.197 5.74287 107.362 5.71246 107.517 5.65708C107.631 5.62671 107.729 5.56411 107.795 5.47977C107.862 5.39543 107.891 5.29449 107.88 5.19385C107.889 5.09397 107.854 4.99481 107.782 4.91501C107.71 4.83521 107.606 4.78027 107.49 4.76051C107.337 4.72657 107.179 4.70653 107.021 4.70074H103.602Z" fill="white"/>
<path d="M35.7192 48.5876C35.7359 47.7551 35.9879 46.938 36.4543 46.2042C36.6457 45.9309 36.9018 45.6936 37.2065 45.5073C37.5112 45.3209 37.858 45.1894 38.2255 45.1209C39.8818 44.8141 41.6127 44.9933 43.1319 45.6289C44.7539 46.2141 46.2047 47.0913 47.3828 48.1991C48.6039 49.2538 49.3253 50.649 49.4109 52.1216C49.4497 53.116 49.0701 54.09 48.3393 54.871C48.0559 55.1848 48.0648 55.1774 48.3393 55.4688C49.3489 56.3578 50.3585 57.2619 51.3681 58.1585C51.6161 58.3826 51.6427 58.3751 51.8818 58.1585C52.5372 57.5682 53.2102 56.9929 53.8745 56.4101C54.1844 56.1412 54.1756 56.1262 53.8745 55.8871C53.5589 55.6855 53.2628 55.4632 52.9888 55.2222C52.8316 55.1005 52.7051 54.9532 52.6169 54.7892C52.5288 54.6252 52.4808 54.4479 52.4758 54.2679C52.4709 54.0879 52.5091 53.9089 52.5881 53.7417C52.6671 53.5744 52.7853 53.4223 52.9357 53.2946C53.5025 52.7118 54.1136 52.1589 54.7069 51.5986C56.0442 50.3508 57.3638 49.1031 58.7188 47.8629C59.817 46.8393 60.924 45.8306 62.031 44.8145C62.1776 44.6705 62.3475 44.5448 62.5358 44.441C62.6333 44.3887 62.7927 44.441 62.9255 44.441C62.9255 44.553 62.9787 44.6801 62.9255 44.7697C62.8143 44.9441 62.6838 45.1092 62.5358 45.2628L59.2325 48.7594L56.5048 51.5986C56.4249 51.6872 56.351 51.7795 56.2834 51.875C56.2224 51.9325 56.1886 52.007 56.1886 52.0842C56.1886 52.1614 56.2224 52.2359 56.2834 52.2934C56.3525 52.3491 56.4445 52.3802 56.5402 52.3802C56.6358 52.3802 56.7278 52.3491 56.797 52.2934C56.9881 52.1809 57.166 52.0533 57.3284 51.9124C58.1343 51.1652 58.9225 50.4181 59.7196 49.6709L62.8015 46.8019L63.7757 45.9054L64.13 45.6289C64.2628 45.5318 64.4222 45.4571 64.5816 45.5766C64.741 45.6962 64.6791 45.8456 64.5816 45.9577C64.3602 46.2416 64.1211 46.518 63.8731 46.787L58.5594 52.4055C58.4088 52.5624 58.276 52.7193 58.1343 52.8837C57.9926 53.048 57.9483 53.2946 58.1343 53.4365C58.3203 53.5785 58.5505 53.5635 58.7897 53.3693C59.0288 53.175 59.3565 52.8911 59.6753 52.6221L65.3256 47.3473C65.5197 47.1548 65.7396 46.9818 65.9809 46.8318C66.0512 46.8028 66.1285 46.7877 66.2067 46.7877C66.285 46.7877 66.3623 46.8028 66.4326 46.8318C66.6186 46.9289 66.5211 47.0933 66.4326 47.2129C65.9278 47.7657 65.4318 48.3186 64.9182 48.864C63.324 50.5526 61.7211 52.2262 60.127 53.9147C60.0015 54.0419 59.9081 54.1894 59.8524 54.348C59.8368 54.4124 59.8391 54.479 59.8591 54.5425C59.879 54.606 59.9162 54.6647 59.9675 54.7141C60.0392 54.7438 60.118 54.7593 60.1978 54.7593C60.2776 54.7593 60.3564 54.7438 60.4281 54.7141C60.6184 54.6096 60.7887 54.4811 60.9329 54.3331L65.3078 50.2687C65.9986 49.6336 66.6894 48.9911 67.3891 48.3635C67.5423 48.2237 67.7182 48.103 67.9116 48.0048C68.1064 47.9077 68.2658 48.0048 68.2481 48.1692C68.2412 48.3022 68.1855 48.4301 68.0887 48.5353C67.3153 49.3821 66.533 50.2238 65.7418 51.0606C64.561 52.3357 63.3506 53.6084 62.1107 54.8785C61.234 55.79 60.4369 56.6791 59.5513 57.5458C59.3331 57.8218 59.0206 58.0354 58.6552 58.1582C58.2899 58.2809 57.8889 58.3071 57.5055 58.2332C57.2468 58.1676 57.0039 58.0639 56.7882 57.9268C56.5136 57.7699 56.2656 57.5682 56 57.3889C55.7343 57.2096 55.69 57.2395 55.5129 57.4337C54.8221 58.1809 54.1401 58.928 53.4405 59.7125C53.4129 59.7307 53.3906 59.7539 53.3752 59.7804C53.3599 59.807 53.3519 59.8361 53.3519 59.8657C53.3519 59.8952 53.3599 59.9243 53.3752 59.9509C53.3906 59.9774 53.4129 60.0007 53.4405 60.0188C54.2021 60.6763 54.9549 61.3413 55.6988 62.0137C58.0605 64.1306 60.4222 66.245 62.7838 68.3569C63.3063 68.8276 63.8377 69.2908 64.3337 69.7765C64.4341 69.8535 64.5121 69.9489 64.5619 70.0554C64.6117 70.1619 64.6318 70.2766 64.6206 70.3906C64.6095 70.5047 64.5675 70.6151 64.4977 70.7133C64.428 70.8115 64.3325 70.8949 64.2185 70.957L62.4473 72.1599C61.8008 72.5932 61.4465 72.5783 60.924 72.0328C60.0384 71.0989 59.1528 70.15 58.2671 69.2012C57.0627 67.8862 55.8671 66.5638 54.6627 65.2413L51.687 61.9614C51.5364 61.797 51.4656 61.797 51.3062 61.9614C49.4582 63.9837 47.6102 66.0134 45.7622 68.0506C44.6109 69.3207 43.4684 70.5983 42.3082 71.861C41.9578 72.2327 41.5853 72.5893 41.1924 72.9294C41.1003 73.0164 40.9732 73.0714 40.8357 73.0838C40.6983 73.0962 40.5603 73.0652 40.4484 72.9967C40.2342 72.8961 40.0298 72.7811 39.8374 72.653C39.3237 72.3093 38.81 71.9656 38.3141 71.5995C37.6764 71.1213 37.6676 70.8524 38.2344 70.2995C39.2971 69.3382 40.3628 68.3768 41.4315 67.4155L48.1976 61.3637C48.667 60.9453 49.1364 60.5344 49.6146 60.1309C49.6531 60.1065 49.6844 60.075 49.7059 60.0387C49.7274 60.0023 49.7386 59.9623 49.7386 59.9217C49.7386 59.8811 49.7274 59.8411 49.7059 59.8048C49.6844 59.7684 49.6531 59.7369 49.6146 59.7125C48.605 58.6067 47.6043 57.4985 46.6124 56.3877C46.5948 56.3603 46.5709 56.3362 46.5421 56.3168C46.5133 56.2973 46.4801 56.283 46.4445 56.2746C46.409 56.2663 46.3718 56.264 46.3352 56.268C46.2986 56.2721 46.2634 56.2823 46.2315 56.2981C45.7356 56.455 45.2396 56.6193 44.726 56.7389C44.0275 56.881 43.299 56.881 42.6005 56.7389C41.564 56.5383 40.5871 56.1612 39.7296 55.6306C38.8722 55.0999 38.1524 54.427 37.6144 53.6532C36.8289 52.6629 36.2591 51.5623 35.9318 50.4031C35.8875 49.8278 35.8343 49.2003 35.7192 48.5876Z" fill="white"/>
<path d="M55.0435 13.203H44.9474C43.8227 13.203 42.6979 13.2404 41.5643 13.203C40.4307 13.1656 39.0934 13.203 37.8536 13.203C37.5082 13.203 37.4462 13.1432 37.4905 12.8444C37.8741 9.8806 39.5502 7.14303 42.1931 5.16378C43.723 4.00807 45.5379 3.15321 47.5068 2.66086C49.0356 2.26721 50.6293 2.08307 52.2272 2.11545C53.8816 2.13358 55.5167 2.41758 57.045 2.95225C59.1804 3.67356 61.0875 4.80415 62.6156 6.2546C63.8755 7.45787 64.8228 8.87039 65.3964 10.4012C65.6975 11.2081 65.8215 12.0674 66.0341 12.8967C66.0783 13.0984 65.9721 13.1806 65.7507 13.1881H55.0435V13.203ZM60.8709 7.77877C60.7709 7.62468 60.6615 7.47506 60.5432 7.33049C60.0054 6.76177 59.3765 6.25887 58.6745 5.83621C57.8745 5.30167 56.9733 4.88489 56.0088 4.60343C55.8583 4.5586 55.7254 4.56607 55.6634 4.7155C55.6457 4.74315 55.6351 4.77362 55.6323 4.80495C55.6295 4.83628 55.6345 4.86776 55.647 4.89735C55.6595 4.92694 55.6793 4.95398 55.705 4.97671C55.7307 4.99944 55.7618 5.01736 55.7963 5.0293C55.9452 5.10153 56.0989 5.16639 56.2568 5.22355C57.6617 5.70073 58.8992 6.47216 59.8524 7.46497C60.0114 7.62898 60.1894 7.77916 60.3838 7.91326C60.4294 7.93766 60.4806 7.95361 60.534 7.96005C60.5874 7.9665 60.6419 7.96328 60.6938 7.95061C60.7646 7.96556 60.8 7.86843 60.8709 7.77877Z" fill="white"/>
<path d="M55.4774 30.5589H52.6257C52.1741 30.5589 52.1298 30.5589 51.9792 30.1704C51.8287 29.7819 51.6693 29.341 51.4833 28.9376C51.4186 28.8008 51.2997 28.6873 51.1467 28.6163C49.9904 28.1568 49.0691 27.361 48.5519 26.3749C48.0382 25.5232 47.6308 24.6565 47.1526 23.7898C46.6659 22.7379 46.0733 21.723 45.3813 20.7564C44.4812 19.5232 43.2339 18.4966 41.7503 17.7679C41.5023 17.6483 41.3872 17.5437 41.458 17.2822C41.4871 17.0519 41.4121 16.8208 41.2479 16.6352C41.0837 16.4495 40.8424 16.3231 40.5724 16.281C40.5044 16.2802 40.4371 16.2925 40.3757 16.3171C40.3142 16.3418 40.2603 16.378 40.2182 16.423C40.2182 16.5052 40.2802 16.6546 40.3599 16.7368C40.4839 16.8323 40.614 16.9221 40.7495 17.0058C40.7495 17.0058 40.8381 17.1403 40.8204 17.1627C40.7969 17.1911 40.7648 17.2138 40.7274 17.2282C40.69 17.2427 40.6487 17.2484 40.6078 17.2449C40.4532 17.224 40.3017 17.1889 40.1562 17.1403C39.8639 17.0506 39.5717 16.9684 39.2706 16.8563C39.2049 16.8377 39.146 16.8053 39.0994 16.7622C39.0527 16.7191 39.0199 16.6666 39.0039 16.6098C38.988 16.553 38.9895 16.4936 39.0082 16.4374C39.027 16.3812 39.0624 16.33 39.1111 16.2885C39.386 15.9694 39.7944 15.7504 40.2536 15.6759C41.204 15.5467 42.1786 15.6776 43.0344 16.0494C44.91 16.8205 46.6051 17.8709 48.0382 19.1501C48.9349 19.9839 49.9092 20.756 50.9519 21.4587C51.9588 22.1186 53.1708 22.5183 54.4413 22.6093C55.0769 22.6334 55.7103 22.5309 56.2903 22.3103C56.8703 22.0896 57.3806 21.757 57.7801 21.3392C58.5701 20.524 59.2448 19.6339 59.7904 18.6868C60.2293 17.924 60.7765 17.2089 61.42 16.5575C61.6107 16.3546 61.8493 16.1875 62.1207 16.0666C62.3921 15.9457 62.6903 15.8737 62.9964 15.8552C63.389 15.8558 63.7786 15.9139 64.1477 16.027C64.5374 16.1391 64.5728 16.4155 64.2805 16.677C64.1256 16.8252 63.9568 16.9626 63.7757 17.088C63.696 17.1403 63.5543 17.1328 63.448 17.1552C63.4393 17.0732 63.4393 16.9907 63.448 16.9086C63.448 16.8265 63.5189 16.7368 63.4923 16.6546C63.4658 16.5724 63.386 16.3632 63.3152 16.3632C63.2412 16.3625 63.168 16.3756 63.1007 16.4014C63.0333 16.4272 62.9735 16.4652 62.9255 16.5127C62.8105 16.6694 62.7571 16.8527 62.773 17.0366C62.7889 17.2204 62.8733 17.3953 63.0141 17.5362C63.0825 17.5996 63.1205 17.6822 63.1205 17.7679C63.1205 17.8535 63.0825 17.9362 63.0141 17.9995C62.1501 19.1121 61.4986 20.3324 61.0834 21.6156C60.5432 23.0651 60.003 24.5071 59.383 25.9341C59.0693 26.5354 58.7052 27.1172 58.2937 27.6749C58.2465 27.7477 58.1755 27.8075 58.0891 27.8473C58.0028 27.887 57.9047 27.905 57.8066 27.8991C57.1955 27.8991 56.5933 27.8991 55.9822 27.9439C55.7874 27.9439 55.6546 28.0037 55.6723 28.1979C55.6622 28.2383 55.6636 28.2801 55.6764 28.32C55.6892 28.3598 55.7129 28.3966 55.7458 28.4272C55.7786 28.4578 55.8195 28.4814 55.8653 28.4961C55.911 28.5108 55.9602 28.5161 56.0088 28.5117C56.5313 28.5117 57.045 28.5117 57.5587 28.5117C57.6935 28.4869 57.8346 28.5073 57.952 28.5686C58.0694 28.63 58.1538 28.7275 58.1874 28.8405C58.4 29.3186 58.6037 29.8043 58.7985 30.2899C58.8871 30.4991 58.7985 30.5813 58.4974 30.5813H55.4774V30.5589Z" fill="white"/>
<path d="M102.061 71.6368H95.3304C93.9754 71.6368 92.6204 71.6368 91.2654 71.6368C91.1532 71.6511 91.0385 71.6394 90.9335 71.6031C90.8285 71.5667 90.737 71.5071 90.669 71.4305C90.6009 71.3539 90.5586 71.2632 90.5467 71.168C90.5347 71.0728 90.5536 70.9766 90.6012 70.8897C90.6465 70.7289 90.7149 70.5733 90.8049 70.4265C91.0706 70.0155 91.354 69.6121 91.6197 69.2086C91.6614 69.1267 91.694 69.0416 91.7171 68.9546C91.6197 68.9546 91.5223 68.9546 91.4248 68.9546C91.0352 68.9546 90.6543 68.9546 90.2647 68.9546C89.875 68.9546 89.7599 68.8201 89.7422 68.6184C89.7244 68.4166 89.9104 68.2224 90.2558 68.2149C90.8846 68.2149 91.5134 68.2149 92.1422 68.2149C92.5117 68.2402 92.878 68.1408 93.1607 67.9385C93.5238 67.662 93.9046 67.408 94.2677 67.1316C94.3954 67.0273 94.4977 66.9029 94.5688 66.7655C94.7371 66.489 94.6396 66.3321 94.2677 66.3247C93.4706 66.3247 92.6736 66.3247 91.8765 66.3247H89.4233C89.3596 66.3304 89.2952 66.3241 89.2347 66.3064C89.1742 66.2886 89.1191 66.2597 89.0734 66.2219C89.0277 66.184 88.9925 66.1381 88.9703 66.0874C88.9481 66.0367 88.9395 65.9825 88.9451 65.9287C88.9451 65.7195 89.1134 65.5999 89.4233 65.585H101.539C101.837 65.5875 102.134 65.6176 102.424 65.6746C102.903 65.7718 103.044 66.0109 102.796 66.377C102.46 66.8775 102.052 67.3482 101.698 67.8712C101.411 68.2594 101.157 68.6638 100.936 69.0816C100.858 69.2274 100.819 69.3861 100.823 69.5461C100.827 69.7062 100.873 69.8635 100.957 70.0067C101.042 70.1498 101.164 70.2752 101.314 70.3737C101.463 70.4722 101.637 70.5412 101.822 70.5759C102.61 70.7654 103.432 70.8337 104.249 70.7776C105.641 70.6754 106.965 70.2225 108.048 69.4776C109.286 68.641 110.398 67.6801 111.36 66.616C112.858 65.1842 114.195 63.6385 115.354 61.9987C115.548 61.7137 115.683 61.4029 115.753 61.0797C115.774 60.9991 115.774 60.9155 115.751 60.835C115.729 60.7546 115.686 60.6793 115.625 60.6148C115.564 60.5503 115.486 60.4982 115.398 60.4623C115.31 60.4264 115.213 60.4076 115.115 60.4073C114.655 60.3625 114.23 60.3475 113.734 60.3177C113.673 60.3197 113.612 60.3113 113.555 60.2931C113.499 60.2748 113.447 60.2471 113.403 60.2115C113.359 60.1759 113.324 60.1332 113.3 60.086C113.276 60.0387 113.264 59.9879 113.264 59.9366C113.264 59.6228 113.362 59.4809 113.734 59.4734C114.814 59.4734 115.895 59.4734 116.975 59.4734C117.24 59.4959 117.486 59.5968 117.671 59.7582C117.856 59.9196 117.967 60.1311 117.985 60.355C118.049 61.091 117.912 61.8295 117.586 62.5142C116.893 64.0844 116.002 65.5872 114.929 66.9971C114.726 67.281 114.743 67.3258 115.133 67.4005C115.527 67.4558 115.918 67.5306 116.302 67.6247C116.661 67.7344 116.987 67.9079 117.259 68.1335C117.531 68.3592 117.742 68.6315 117.878 68.9322C117.993 69.1787 117.94 69.2908 117.639 69.4402C116.515 70.0006 115.363 70.5161 114.274 71.1213C113.59 71.4683 112.793 71.6251 111.998 71.5696C108.703 71.5696 105.409 71.5696 102.105 71.5696L102.061 71.6368Z" fill="white"/>
<path d="M93.2049 56.0515H99.6611C99.8115 56.0589 99.9624 56.0589 100.113 56.0515C100.316 56.0515 100.387 56.1188 100.352 56.2831C100.148 57.2843 99.9445 58.2929 99.7497 59.2717C99.5814 60.1234 99.422 60.9826 99.2537 61.8418L98.8286 63.9712C98.8286 64.2028 98.7312 64.4419 98.6958 64.6735C98.6604 64.9051 98.5984 65.0321 98.2087 65.0321H96.0743H88.9894C88.7857 65.0321 88.706 64.9649 88.7325 64.8005C88.7857 64.4718 88.8477 64.143 88.9097 63.8143C88.9982 63.3212 89.0868 62.8206 89.1842 62.32C89.1842 62.0959 89.1134 62.0212 88.8565 62.0286C88.6117 62.0398 88.3663 62.0398 88.1215 62.0286C88.0742 62.0317 88.0267 62.0267 87.9818 62.014C87.9369 62.0013 87.8954 61.9811 87.8599 61.9546C87.8244 61.9281 87.7956 61.8959 87.7751 61.8598C87.7546 61.8238 87.7429 61.7847 87.7406 61.7447C87.7288 61.7059 87.7264 61.6656 87.7334 61.626C87.7404 61.5864 87.7568 61.5484 87.7816 61.5142C87.8064 61.4801 87.839 61.4505 87.8777 61.4272C87.9163 61.4039 87.96 61.3874 88.0063 61.3786C88.3296 61.3229 88.6597 61.3003 88.9894 61.3114C89.2816 61.3114 89.4145 61.2441 89.4499 60.9752C89.5119 60.5269 89.627 60.0711 89.7156 59.6228C89.7687 59.4062 89.6182 59.3912 89.4233 59.3912H87.3687C87.1296 59.3912 86.9524 59.3315 86.9259 59.0924C86.8993 58.8533 87.0587 58.7412 87.3155 58.7263C87.962 58.7263 88.6086 58.6814 89.2551 58.674C89.9016 58.6665 89.8838 58.674 89.999 58.1659C90.0787 57.7924 90.1407 57.4188 90.2292 57.0452C90.2292 56.851 90.1761 56.7912 89.9547 56.7912H86.6779C86.5484 56.8056 86.417 56.7818 86.3059 56.7239C86.1748 56.6386 86.0838 56.5168 86.0491 56.3803C86.0491 56.2159 86.1908 56.1038 86.3945 56.0889H93.2049V56.0515Z" fill="white"/>
<path d="M110.297 60.7735H109.058C108.594 60.7779 108.143 60.6398 107.791 60.385L106.463 59.4735C106.002 59.1522 105.79 59.1821 105.506 59.6005C104.984 60.3925 104.452 61.177 103.956 61.9764C103.866 62.1449 103.841 62.3332 103.886 62.5144C103.907 62.6093 103.967 62.6946 104.057 62.755C104.146 62.8153 104.258 62.8465 104.373 62.8431C104.984 62.8431 105.595 62.8431 106.197 62.8954C106.76 62.8962 107.322 62.9312 107.88 63C108.126 63.011 108.365 63.0761 108.573 63.189C108.781 63.3019 108.95 63.4586 109.063 63.6436C109.177 63.8286 109.231 64.0355 109.221 64.2437C109.211 64.4518 109.136 64.6541 109.004 64.8305C108.715 65.3694 108.378 65.8889 107.995 66.3845C107.233 67.4231 106.445 68.4466 105.666 69.4702C105.53 69.6434 105.376 69.806 105.205 69.9559C105.043 70.0725 104.852 70.1556 104.645 70.1985C104.439 70.2414 104.223 70.2429 104.016 70.203C103.808 70.1631 103.615 70.0828 103.451 69.9685C103.287 69.8542 103.157 69.7092 103.071 69.5449C103.027 69.403 103.025 69.2543 103.063 69.1113C103.102 68.9684 103.18 68.8352 103.292 68.7231C103.753 68.1329 104.231 67.5576 104.691 66.9673C105.037 66.5265 105.4 66.0857 105.719 65.6299C105.766 65.5661 105.797 65.4944 105.81 65.4197C105.822 65.345 105.815 65.2689 105.79 65.1966C105.736 65.1069 105.497 65.0472 105.338 65.0397C104.196 65.0397 103.044 65.0023 101.902 64.9725C101.351 64.9854 100.81 64.8464 100.361 64.5765C99.9806 64.3118 99.7115 63.9509 99.5935 63.5472C99.4755 63.1435 99.5147 62.7185 99.7054 62.335C99.9558 61.8189 100.252 61.3194 100.591 60.8408C101.388 59.6155 102.212 58.3976 103.026 57.1798C103.243 56.8218 103.582 56.5274 104.001 56.3355C104.337 56.1956 104.716 56.1492 105.086 56.2029C105.455 56.2566 105.794 56.4076 106.055 56.6344C106.976 57.3815 107.892 58.1286 108.801 58.8758C108.906 58.9709 109.034 59.0466 109.175 59.0981C109.317 59.1495 109.47 59.1756 109.624 59.1746C110.235 59.1746 110.847 59.1746 111.458 59.1746C111.663 59.1823 111.868 59.2048 112.069 59.2419C112.278 59.2661 112.468 59.3572 112.6 59.4962C112.731 59.6352 112.795 59.8116 112.777 59.989C112.787 60.0729 112.776 60.1575 112.746 60.2378C112.716 60.3181 112.666 60.3923 112.601 60.4559C112.535 60.5195 112.455 60.5712 112.365 60.6079C112.275 60.6445 112.177 60.6653 112.078 60.6689C111.493 60.7212 110.9 60.7212 110.306 60.7511L110.297 60.7735Z" fill="white"/>
<path d="M51.749 13.726H68.9389C69.2678 13.7273 69.5962 13.7473 69.9219 13.7857C70.1029 13.8184 70.2635 13.9056 70.3739 14.0309C70.4842 14.1563 70.5367 14.3112 70.5215 14.4668C70.5063 14.6224 70.4245 14.768 70.2913 14.8764C70.1582 14.9848 69.9828 15.0486 69.7979 15.0559C68.2038 15.0559 66.6008 15.0559 65.0067 15.0559H34.8956C34.5059 15.0559 34.1251 15.0559 33.7443 15.0559C33.5496 15.0452 33.3664 14.9746 33.2293 14.8575C33.0922 14.7405 33.0108 14.5851 33.0003 14.4208C32.995 14.2738 33.0517 14.13 33.1604 14.0151C33.2691 13.9001 33.4227 13.8215 33.5937 13.7932C33.8588 13.7462 34.1287 13.7212 34.3996 13.7185L51.749 13.726Z" fill="white"/>
<path d="M104.142 54.6617C104.12 54.0163 104.386 53.3874 104.888 52.9002C105.391 52.4129 106.092 52.1029 106.852 52.0318C107.448 52.002 108.04 52.1301 108.544 52.398C109.049 52.666 109.443 53.0604 109.669 53.5261C109.732 53.7256 109.756 53.9326 109.739 54.1387C109.739 54.4077 109.571 54.4824 109.27 54.4002C108.969 54.3181 108.792 54.2508 108.553 54.1761C108.145 54.0566 107.942 54.1313 107.667 54.4824C107.393 54.8336 107.49 54.998 107.818 55.2296C108.145 55.4612 108.278 55.4761 108.5 55.6031C108.721 55.7302 108.889 55.9692 108.65 56.2457C108.181 56.7612 108.039 56.8583 107.339 56.6342C106.454 56.3503 105.489 56.0813 104.567 55.7825C104.491 55.7509 104.423 55.707 104.367 55.6531C104.31 55.5993 104.267 55.5366 104.24 55.4687C104.188 55.2016 104.156 54.9321 104.142 54.6617Z" fill="white"/>
<path d="M111.059 72.1448C111.369 72.1448 111.679 72.1448 111.945 72.1448C111.993 72.1498 112.039 72.1647 112.079 72.1881C112.12 72.2115 112.152 72.2428 112.175 72.2793C112.21 72.443 112.296 72.596 112.423 72.7232C112.55 72.8505 112.714 72.9476 112.899 73.0049C113.084 73.0623 113.284 73.0779 113.479 73.0502C113.673 73.0225 113.856 72.9525 114.008 72.8471C114.204 72.7433 114.37 72.6032 114.493 72.4376C114.615 72.272 114.692 72.085 114.717 71.8908C114.737 71.7284 114.809 71.5735 114.924 71.4422C115.039 71.3109 115.194 71.2078 115.372 71.1437C115.833 70.9345 116.258 70.6879 116.718 70.4563C116.984 70.3218 117.037 70.3442 117.081 70.5908C117.247 71.3901 117.1 72.2132 116.662 72.9357C116.225 73.6582 115.52 74.2408 114.655 74.5954C114.05 74.8746 113.369 75.0138 112.68 74.9989C112.113 74.9877 111.563 74.8318 111.103 74.5517C110.643 74.2716 110.294 73.8805 110.103 73.4299C109.987 73.0827 109.907 72.7277 109.863 72.369C109.863 72.227 109.863 72.1598 110.085 72.1672L111.059 72.1448Z" fill="white"/>
<path d="M46.9489 15.6238C48.3924 15.4744 49.3932 16.1842 50.3319 16.9388C51.6613 18.0731 52.7969 19.3581 53.7062 20.7567C53.9276 21.0779 54.1401 21.3992 54.3438 21.728C54.378 21.8073 54.3989 21.8903 54.4058 21.9745C54.3115 21.9818 54.2167 21.9818 54.1224 21.9745C53.1992 21.9011 52.3188 21.6113 51.5807 21.1377C51.3507 20.9534 51.1618 20.7357 51.0227 20.4952C49.9115 18.9008 48.4789 17.4824 46.7895 16.3037C46.5946 16.1618 46.3998 16.0273 46.2138 15.8778C46.1589 15.8214 46.1142 15.7585 46.081 15.6911C46.1639 15.6619 46.2499 15.6394 46.3378 15.6238H46.9489Z" fill="white"/>
<path d="M99.1209 72.1673C98.8815 72.901 98.3877 73.5576 97.7028 74.0528C97.018 74.548 96.1733 74.8593 95.2773 74.9467C94.5347 75.0346 93.7809 74.8721 93.1792 74.4946C92.5775 74.117 92.1763 73.5547 92.0625 72.9294C92.0625 72.7426 92.0005 72.5558 91.9739 72.369C91.9473 72.1823 91.9739 72.1449 92.1953 72.1449C92.8241 72.1449 93.4618 72.1449 94.0906 72.1449C94.1376 72.1537 94.1814 72.1718 94.2184 72.1978C94.2554 72.2238 94.2844 72.2569 94.3031 72.2943C94.3278 72.4574 94.406 72.6115 94.5289 72.739C94.6519 72.8666 94.8147 72.9626 94.9989 73.0162C95.1832 73.0699 95.3815 73.0789 95.5715 73.0425C95.7616 73.006 95.9357 72.9254 96.0743 72.8099C96.265 72.6711 96.4345 72.513 96.5791 72.3392C96.6223 72.2745 96.6855 72.2209 96.7619 72.184C96.8383 72.1472 96.9251 72.1285 97.0131 72.13C97.6153 72.13 98.2087 72.13 98.7844 72.13C98.8976 72.1341 99.0102 72.1466 99.1209 72.1673Z" fill="white"/>
<path d="M51.7755 1.6821C51.2442 1.6821 50.7039 1.6821 50.1726 1.6821C49.7917 1.6821 49.6855 1.56256 49.7829 1.25623C49.9374 0.825554 50.279 0.459985 50.7394 0.232648C51.0063 0.103151 51.3042 0.0254819 51.6112 0.00528881C51.9182 -0.0149043 52.2268 0.0228868 52.5143 0.115913C52.8019 0.208939 53.0612 0.354862 53.2735 0.543069C53.4858 0.731277 53.6457 0.957037 53.7416 1.20393C53.8833 1.55509 53.7416 1.6821 53.3254 1.68957H51.7755V1.6821Z" fill="white"/>
<path d="M104.594 20.2485C104.514 19.8002 104.435 19.3818 104.346 18.9634C104.263 18.5453 104.331 18.1158 104.541 17.7306C105.019 16.7743 105.506 15.8254 105.984 14.8691L106.728 13.4346C106.763 13.3454 106.82 13.2637 106.897 13.1955C107.009 13.1391 107.132 13.0988 107.26 13.0759C107.26 13.1805 107.384 13.3001 107.357 13.3897C107.26 13.6444 107.145 13.8939 107.012 14.1369L105.382 17.3944C105.339 17.4474 105.315 17.5095 105.311 17.5737C105.33 17.6689 105.363 17.7617 105.409 17.8501C105.515 17.8053 105.666 17.7754 105.71 17.7082C106.02 17.1329 106.312 16.5501 106.596 15.9674L107.72 13.7259C107.752 13.6435 107.803 13.5673 107.871 13.5018C107.951 13.442 108.101 13.3748 108.163 13.4047C108.212 13.4332 108.252 13.4712 108.279 13.5154C108.307 13.5596 108.322 13.6087 108.323 13.6587C108.278 13.8376 108.207 14.0109 108.11 14.1742L106.339 17.7829C106.332 17.8125 106.332 17.843 106.339 17.8726C106.339 17.9772 106.339 18.0818 106.41 18.1938C106.507 18.1266 106.658 18.0743 106.702 17.9921C107.153 17.1329 107.587 16.2587 108.03 15.3995C108.252 14.9512 108.491 14.5104 108.721 14.0696C108.753 14.0133 108.788 13.9584 108.827 13.9053C108.925 13.7484 109.102 13.6736 109.261 13.7708C109.421 13.8679 109.359 14.0024 109.314 14.0995C109.12 14.5478 108.889 14.9961 108.659 15.4369C108.207 16.3335 107.773 17.2226 107.304 18.1191C107.251 18.2162 107.304 18.3433 107.304 18.4553C107.419 18.3806 107.596 18.3358 107.649 18.2387C108.075 17.4318 108.473 16.6248 108.889 15.8179C109.164 15.2875 109.438 14.7645 109.722 14.234C109.784 14.107 109.872 13.98 110.076 14.0323C110.28 14.0846 110.289 14.234 110.235 14.3685C110.138 14.6225 110.014 14.8765 109.89 15.1156L107.995 18.926C107.786 19.3975 107.404 19.8005 106.906 20.0766C106.054 20.5603 105.428 21.2787 105.134 22.1088C104.984 22.46 104.815 22.856 104.629 23.1623C104.57 23.2646 104.539 23.3771 104.539 23.4911C104.539 23.605 104.57 23.7175 104.629 23.8198C105.639 25.5083 106.64 27.1894 107.632 28.8779C107.798 29.1788 107.923 29.4946 108.004 29.8193C108.11 30.1705 107.72 30.5067 107.189 30.5665C106.944 30.6073 106.69 30.5673 106.479 30.4547C106.268 30.3421 106.116 30.1655 106.055 29.9613C105.586 28.9751 105.17 27.9888 104.709 26.9727C104.461 26.3974 104.257 25.8147 104.018 25.2394C104.018 25.1721 103.912 25.1273 103.859 25.075C103.806 25.0227 103.708 25.1796 103.682 25.2468C103.372 25.8819 103.062 26.517 102.796 27.1595C102.362 28.0785 101.911 29.0049 101.512 29.9239C101.484 30.0311 101.431 30.1325 101.355 30.222C101.28 30.3115 101.184 30.3875 101.074 30.4453C100.963 30.5031 100.84 30.5416 100.711 30.5586C100.583 30.5755 100.452 30.5706 100.325 30.5441C100.104 30.4884 99.9169 30.362 99.8043 30.1917C99.6918 30.0214 99.6627 29.8207 99.7231 29.6325C100.077 28.8854 100.449 28.2279 100.83 27.5331C101.48 26.3377 102.132 25.1422 102.787 23.9468C102.847 23.8402 102.889 23.727 102.911 23.6106C102.935 23.5482 102.943 23.482 102.933 23.4169C102.924 23.3517 102.897 23.2892 102.856 23.2336C102.815 23.178 102.759 23.1308 102.694 23.0952C102.628 23.0596 102.555 23.0366 102.477 23.0278C102.271 22.9749 102.061 22.9325 101.849 22.9008C101.2 22.7868 100.625 22.4724 100.237 22.0192C98.9786 20.6942 98.0481 19.1699 97.5002 17.5364C97.19 16.7283 97.0404 15.8826 97.0574 15.0334C97.0676 14.7608 97.153 14.494 97.3067 14.2541C97.4604 14.0142 97.6783 13.8078 97.943 13.6512C98.2618 13.457 98.5984 13.442 98.8286 13.7185C99.16 14.131 99.4559 14.5629 99.7143 15.011C100.972 17.2076 102.212 19.4117 103.46 21.6157C103.499 21.695 103.544 21.7724 103.593 21.8473C103.648 21.9171 103.71 21.9821 103.779 22.0416C103.841 21.9818 103.93 21.9445 103.965 21.8772C104.187 21.4588 104.408 21.0479 104.612 20.622C104.629 20.4975 104.623 20.3714 104.594 20.2485Z" fill="white"/>
</svg>
