<svg width="150" height="50" viewBox="0 0 150 50" fill="none" xmlns="http://www.w3.org/2000/svg">
<g clip-path="url(#clip0_1_29)">
<path d="M47.8045 0H19.5V26.3385C19.5 39.187 30.7363 49.6429 44.544 49.6429H72.8485V23.3045C72.8485 10.4559 61.6121 0 47.8045 0ZM52.3667 43.3949H44.544C34.4361 43.3949 26.2104 35.7442 26.2104 26.3347V19.0553H47.9012C50.3637 19.0553 52.3667 20.9193 52.3667 23.2107C52.3667 25.5021 50.3637 27.366 47.9012 27.366H36.689V33.7716H47.9012C50.3637 33.7716 52.3667 35.6355 52.3667 37.9269V43.3949ZM66.1381 43.3949H59.2544V37.9269C59.2544 35.0692 58.0252 32.474 56.0342 30.5688C58.0252 28.6637 59.2544 26.0684 59.2544 23.2107C59.2544 17.3865 54.1642 12.6498 47.9052 12.6498H26.2104V6.24427H47.8045C57.9123 6.24427 66.1381 13.8949 66.1381 23.3045V43.3986V43.3949Z" fill="white"/>
<path style="mix-blend-mode:multiply" d="M45.6524 43.3986V49.6429H52.3628V43.3986H45.6524Z" fill="url(#paint0_linear_1_29)"/>
<path style="mix-blend-mode:multiply" d="M26.2104 6.40553H19.5V12.6498H26.2104V6.40553Z" fill="url(#paint1_linear_1_29)"/>
<path d="M84.6704 1.92371C87.0454 1.92371 88.8961 2.52315 90.2225 3.72204C91.549 4.92092 92.2122 6.59332 92.2122 8.73922C92.2122 10.326 91.8447 11.6458 91.1143 12.7086C90.3794 13.7715 89.3487 14.5422 88.0133 15.0208L92.2704 22.8689H87.9595L84.0923 15.5497H80.7V22.8689H77.0568V1.92371H84.6793H84.6704ZM84.5046 12.2754C85.7279 12.2754 86.6779 11.9883 87.3546 11.414C88.0312 10.8398 88.3718 10.054 88.3718 9.05154C88.3718 8.04911 88.0312 7.26328 87.3546 6.68903C86.6779 6.11477 85.7279 5.82764 84.5046 5.82764H80.6911V12.2704H84.5046V12.2754Z" fill="white"/>
<path d="M96.7067 15.6202C96.8546 16.7486 97.2758 17.6855 97.9704 18.4361C98.665 19.1866 99.5702 19.5594 100.681 19.5594C101.403 19.5594 102.048 19.3781 102.617 19.0103C103.182 18.6476 103.594 18.1943 103.854 17.6503H107.775C107.367 19.3176 106.538 20.6525 105.284 21.6549C104.033 22.6574 102.487 23.1561 100.65 23.1561C99.5747 23.1561 98.5709 22.9445 97.6433 22.5163C96.7157 22.0881 95.9091 21.4937 95.2235 20.7331C94.5378 19.9725 94.0046 19.0758 93.6237 18.0432C93.2428 17.0105 93.0546 15.9023 93.0546 14.7135C93.0546 13.5247 93.2383 12.3812 93.6102 11.3536C93.9822 10.3209 94.502 9.42429 95.1697 8.66365C95.8374 7.90301 96.6305 7.30861 97.5492 6.88043C98.4678 6.45226 99.4627 6.24069 100.538 6.24069C101.56 6.24069 102.51 6.41196 103.388 6.7545C104.271 7.09704 105.037 7.58062 105.696 8.19518C106.355 8.80973 106.888 9.55526 107.296 10.4318C107.703 11.3082 107.954 12.2754 108.049 13.3383C108.084 13.7765 108.102 14.1644 108.102 14.512C108.102 14.8596 108.093 15.2273 108.075 15.6202H96.6978H96.7067ZM104.275 13.2124C104.163 12.2099 103.769 11.3989 103.092 10.7743C102.416 10.1497 101.578 9.83735 100.574 9.83735C99.5702 9.83735 98.7412 10.1497 98.0825 10.7743C97.4237 11.3989 96.9935 12.215 96.7874 13.2124H104.271H104.275Z" fill="white"/>
<path d="M113.009 15.6202C113.157 16.7486 113.578 17.6855 114.273 18.4361C114.968 19.1866 115.873 19.5594 116.984 19.5594C117.706 19.5594 118.351 19.3781 118.92 19.0103C119.484 18.6476 119.897 18.1943 120.157 17.6503H124.078C123.67 19.3176 122.841 20.6525 121.586 21.6549C120.336 22.6574 118.79 23.1561 116.953 23.1561C115.877 23.1561 114.873 22.9445 113.946 22.5163C113.018 22.0881 112.212 21.4937 111.526 20.7331C110.84 19.9725 110.307 19.0758 109.926 18.0432C109.545 17.0105 109.357 15.9023 109.357 14.7135C109.357 13.5247 109.541 12.3812 109.913 11.3536C110.285 10.3209 110.804 9.42429 111.472 8.66365C112.14 7.90301 112.933 7.30861 113.852 6.88043C114.77 6.45226 115.765 6.24069 116.841 6.24069C117.862 6.24069 118.812 6.41196 119.691 6.7545C120.573 7.09704 121.34 7.58062 121.998 8.19518C122.657 8.80973 123.19 9.55526 123.598 10.4318C124.006 11.3082 124.257 12.2754 124.351 13.3383C124.387 13.7765 124.405 14.1644 124.405 14.512C124.405 14.8596 124.396 15.2273 124.378 15.6202H113H113.009ZM120.578 13.2124C120.466 12.2099 120.072 11.3989 119.395 10.7743C118.718 10.1497 117.88 9.83735 116.877 9.83735C115.873 9.83735 115.044 10.1497 114.385 10.7743C113.726 11.3989 113.296 12.215 113.09 13.2124H120.573H120.578Z" fill="white"/>
<path d="M125.996 0.357086H129.5V22.879H125.996V0.357086Z" fill="white"/>
<path d="M76.5459 34.7318C76.5459 32.732 77.1733 31.1755 78.4235 30.0723C79.6738 28.9691 81.4304 28.415 83.6934 28.415C85.9564 28.415 87.7892 29.0094 89.0215 30.1982C90.2538 31.3871 90.8902 33.0141 90.926 35.0794H87.1125C87.0767 34.1828 86.7764 33.4322 86.2208 32.8277C85.6651 32.2232 84.7733 31.921 83.55 31.921C82.5462 31.921 81.7575 32.1527 81.1705 32.6111C80.5879 33.0695 80.2922 33.7143 80.2922 34.5505C80.2922 35.0744 80.4042 35.5026 80.6282 35.8501C80.8523 36.1977 81.1525 36.4798 81.5334 36.7115C81.9143 36.9432 82.349 37.1346 82.8419 37.2908C83.3349 37.447 83.8592 37.588 84.4148 37.7139C85.1946 37.9003 85.9922 38.1068 86.8078 38.3235C87.6234 38.5401 88.3672 38.8624 89.0349 39.2755C89.7026 39.6936 90.2493 40.2628 90.6751 40.9781C91.1008 41.6985 91.3159 42.6404 91.3159 43.8091C91.3159 45.7082 90.7109 47.2143 89.5055 48.3276C88.3 49.4408 86.4627 50 83.9981 50C81.5334 50 79.49 49.4056 78.1546 48.2168C76.8192 47.028 76.1516 45.4009 76.1516 43.3356H79.965C80.0591 44.3582 80.4535 45.139 81.1481 45.683C81.8426 46.227 82.7927 46.494 83.9981 46.494C85.0915 46.494 85.9519 46.2774 86.5703 45.8392C87.1932 45.4009 87.5024 44.8166 87.5024 44.0862C87.5024 43.5673 87.3859 43.1391 87.1528 42.8016C86.9198 42.4692 86.6061 42.1921 86.2073 41.9705C85.8085 41.7539 85.3469 41.5725 84.8316 41.4365C84.3118 41.3005 83.7651 41.1695 83.1915 41.0436C82.4297 40.8774 81.6544 40.686 80.8702 40.4643C80.0815 40.2477 79.369 39.9102 78.7282 39.4619C78.0874 39.0136 77.5631 38.4141 77.1553 37.6636C76.7475 36.913 76.5414 35.9358 76.5414 34.7218L76.5459 34.7318Z" fill="white"/>
<path d="M98.0241 28.541V33.3566H101.64V36.641H98.0241V44.0207C98.0241 44.9375 98.2079 45.552 98.5798 45.8643C98.9517 46.1767 99.4626 46.3328 100.108 46.3328C100.35 46.3328 100.596 46.3177 100.847 46.2875C101.098 46.2573 101.363 46.222 101.64 46.1767V49.7733C100.789 49.8992 100 49.9597 99.2744 49.9597C98.5484 49.9597 97.8628 49.8741 97.2713 49.7078C96.6798 49.5416 96.1779 49.2545 95.7701 48.8464C95.3623 48.4384 95.0531 47.9095 94.838 47.2496C94.6229 46.5948 94.5198 45.7837 94.5198 44.8267V36.6309H92.0417V33.3466H94.5198V28.5309H98.0241V28.541Z" fill="white"/>
<path d="M117.114 49.6826H113.61V47.5267C113.166 48.2974 112.57 48.8968 111.831 49.325C111.087 49.7532 110.159 49.9647 109.048 49.9647C108.026 49.9647 107.085 49.7532 106.225 49.325C105.364 48.8968 104.616 48.3024 103.984 47.5418C103.352 46.7811 102.868 45.8845 102.523 44.8518C102.178 43.8192 102.008 42.711 102.008 41.5222C102.008 40.3334 102.178 39.1899 102.523 38.1623C102.868 37.1296 103.352 36.233 103.984 35.4723C104.616 34.7117 105.36 34.1173 106.225 33.6891C107.085 33.2609 108.04 33.0494 109.075 33.0494C110.186 33.0494 111.109 33.2609 111.844 33.6891C112.575 34.1173 113.166 34.7167 113.61 35.4874V33.3617H117.114V49.6877V49.6826ZM113.61 40.7716C113.48 39.6886 113.063 38.7768 112.359 38.0363C111.656 37.2958 110.755 36.9281 109.662 36.9281C109.048 36.9281 108.492 37.0541 107.99 37.3009C107.488 37.5527 107.067 37.8852 106.727 38.3033C106.382 38.7214 106.117 39.21 105.933 39.7742C105.75 40.3384 105.656 40.9328 105.656 41.5574C105.656 42.1821 105.75 42.7362 105.933 43.2752C106.117 43.8192 106.382 44.2977 106.727 44.7158C107.072 45.1339 107.493 45.4664 107.99 45.7183C108.492 45.9701 109.048 46.091 109.662 46.091C110.199 46.091 110.701 45.9903 111.163 45.7938C111.625 45.5974 112.028 45.3254 112.373 44.9828C112.718 44.6403 112.996 44.2323 113.206 43.7638C113.421 43.2953 113.556 42.8016 113.61 42.2778V40.7766V40.7716Z" fill="white"/>
<path d="M118.951 33.3567H122.456V36.5151C123.047 35.3464 123.822 34.48 124.777 33.9057C125.731 33.3315 126.758 33.0443 127.851 33.0443V37.2052C127.219 37.185 126.587 37.2858 125.96 37.5024C125.328 37.719 124.759 38.0414 124.248 38.4544C123.737 38.8725 123.32 39.3964 122.998 40.0362C122.675 40.6709 122.491 41.4063 122.456 42.2425V49.6877H118.951V33.3617V33.3567Z" fill="white"/>
</g>
<defs>
<linearGradient id="paint0_linear_1_29" x1="52.3668" y1="46.5189" x2="45.6564" y2="46.5189" gradientUnits="userSpaceOnUse">
<stop stop-color="#231F20" stop-opacity="0.2"/>
<stop offset="1" stop-color="#231F20" stop-opacity="0"/>
</linearGradient>
<linearGradient id="paint1_linear_1_29" x1="22.8532" y1="12.6498" x2="22.8532" y2="6.40553" gradientUnits="userSpaceOnUse">
<stop stop-color="#231F20" stop-opacity="0.2"/>
<stop offset="1" stop-color="#231F20" stop-opacity="0"/>
</linearGradient>
<clipPath id="clip0_1_29">
<rect width="150" height="50" fill="white"/>
</clipPath>
</defs>
</svg>
