<svg width="151" height="50" viewBox="0 0 151 50" fill="none" xmlns="http://www.w3.org/2000/svg">
<path d="M47.7613 0H20V24.1892C20 35.9914 31.0192 45.5927 44.5643 45.5927H72.3256V21.4035C72.3256 9.6013 61.3064 0 47.7613 0ZM52.235 39.8565H44.5608C34.6463 39.8565 26.5798 32.8279 26.5798 24.1892V17.5024H47.8542C50.27 17.5024 52.2316 19.2146 52.2316 21.3166C52.2316 23.4185 50.2666 25.1307 47.8542 25.1307H36.8557V31.0138H47.8542C50.27 31.0138 52.2316 32.726 52.2316 34.828V39.8505L52.235 39.8565ZM65.7423 39.8565H58.9904V34.834C58.9904 32.2072 57.7859 29.8234 55.8347 28.0753C57.7859 26.3271 58.9904 23.9433 58.9904 21.3166C58.9904 15.9672 53.997 11.6163 47.8576 11.6163H26.5833V5.73619H47.7613C57.6758 5.73619 65.7423 12.7648 65.7423 21.4035V39.8565Z" fill="white"/>
<path style="mix-blend-mode:multiply" d="M45.6517 39.8565V45.5927H52.235V39.8565H45.6517Z" fill="url(#paint0_linear_1_2)"/>
<path style="mix-blend-mode:multiply" d="M26.5833 5.88312H20V11.6193H26.5833V5.88312Z" fill="url(#paint1_linear_1_2)"/>
<path d="M85.2785 5.68724C87.6484 5.68724 89.493 6.1798 90.8161 7.16134C92.1392 8.14287 92.8008 9.51629 92.8008 11.278C92.8008 12.5759 92.435 13.6617 91.7034 14.5354C90.9718 15.4055 89.9405 16.0383 88.6096 16.4338L92.8553 22.8694H88.5551L84.6986 16.8688H81.313V22.8694H77.6783V5.68724H85.2823H85.2785ZM85.1111 14.1759C86.3331 14.1759 87.2787 13.9422 87.9558 13.4712C88.633 13.0002 88.9676 12.3566 88.9676 11.5369C88.9676 10.7171 88.6291 10.07 87.9558 9.60258C87.2787 9.13159 86.3331 8.89789 85.1111 8.89789H81.3091V14.1795H85.1111V14.1759Z" fill="white"/>
<path d="M97.2838 16.9191C97.4317 17.8431 97.852 18.6125 98.5486 19.2274C99.2413 19.8422 100.144 20.1514 101.253 20.1514C101.973 20.1514 102.619 20.0004 103.183 19.7019C103.748 19.4035 104.16 19.0296 104.417 18.5874H108.332C107.923 19.9536 107.098 21.0502 105.849 21.8699C104.6 22.6897 103.059 23.0995 101.23 23.0995C100.156 23.0995 99.1557 22.9234 98.2334 22.5746C97.3072 22.2259 96.5016 21.7369 95.8206 21.1149C95.1357 20.4929 94.6026 19.7559 94.2251 18.911C93.8437 18.0661 93.6569 17.1528 93.6569 16.1785C93.6569 15.2041 93.8398 14.2694 94.2134 13.4209C94.5831 12.5759 95.1007 11.8389 95.7661 11.2169C96.4316 10.5949 97.2216 10.1059 98.14 9.75359C99.0545 9.40484 100.051 9.22867 101.125 9.22867C102.14 9.22867 103.09 9.36889 103.969 9.65292C104.849 9.93336 105.616 10.3288 106.273 10.8322C106.931 11.3355 107.46 11.9468 107.869 12.6658C108.277 13.3849 108.526 14.1795 108.62 15.0495C108.655 15.4091 108.674 15.7291 108.674 16.0095C108.674 16.2899 108.667 16.5956 108.647 16.9191H97.2955H97.2838ZM104.833 14.9453C104.721 14.1255 104.327 13.4568 103.654 12.9463C102.977 12.4321 102.14 12.1769 101.144 12.1769C100.148 12.1769 99.3152 12.4321 98.6614 12.9463C98.0038 13.4604 97.5757 14.1255 97.3694 14.9453H104.833Z" fill="white"/>
<path d="M113.547 16.9191C113.694 17.8431 114.115 18.6125 114.811 19.2274C115.504 19.8422 116.407 20.1514 117.516 20.1514C118.236 20.1514 118.882 20.0004 119.446 19.7019C120.01 19.4035 120.423 19.0296 120.68 18.5874H124.595C124.186 19.9536 123.361 21.0502 122.112 21.8699C120.863 22.6897 119.322 23.0995 117.493 23.0995C116.419 23.0995 115.418 22.9234 114.496 22.5746C113.57 22.2259 112.764 21.7369 112.083 21.1149C111.398 20.4929 110.865 19.7559 110.488 18.911C110.106 18.0661 109.92 17.1528 109.92 16.1785C109.92 15.2041 110.106 14.2694 110.476 13.4209C110.846 12.5759 111.363 11.8389 112.029 11.2169C112.694 10.5949 113.484 10.1059 114.403 9.75359C115.317 9.40484 116.313 9.22867 117.388 9.22867C118.403 9.22867 119.353 9.36889 120.232 9.65292C121.112 9.93336 121.878 10.3288 122.536 10.8322C123.194 11.3355 123.723 11.9468 124.132 12.6658C124.536 13.3849 124.789 14.1795 124.883 15.0495C124.918 15.4091 124.937 15.7291 124.937 16.0095C124.937 16.2899 124.929 16.5956 124.91 16.9191H113.558H113.547ZM121.096 14.9453C120.983 14.1255 120.59 13.4568 119.917 12.9463C119.24 12.4321 118.403 12.1769 117.407 12.1769C116.411 12.1769 115.578 12.4321 114.924 12.9463C114.267 13.4604 113.838 14.1255 113.632 14.9453H121.096Z" fill="white"/>
<path d="M126.501 4.4073H130V22.8694H126.501V4.4073Z" fill="white"/>
<path d="M85.1111 27.6656C86.2591 27.6656 87.2981 27.8095 88.2321 28.1007C89.1661 28.3919 89.9561 28.8054 90.6059 29.3447C91.2519 29.884 91.7539 30.5383 92.1042 31.3077C92.4544 32.0771 92.6295 32.9328 92.6295 33.8712C92.6295 34.8096 92.4544 35.6617 92.1042 36.4239C91.7539 37.1861 91.2519 37.8333 90.6059 38.3726C89.96 38.9119 89.17 39.3254 88.2477 39.6166C87.3215 39.9078 86.2786 40.0516 85.1111 40.0516H81.3091V44.8479H77.6744V27.6692H85.1111V27.6656ZM84.862 36.974C86.084 36.974 87.0452 36.7008 87.7496 36.1543C88.4539 35.6078 88.8042 34.8707 88.8042 33.9503C88.8042 33.0299 88.4539 32.2713 87.7496 31.732C87.0452 31.1927 86.084 30.923 84.862 30.923H81.3091V36.974H84.862Z" fill="white"/>
<path d="M108.176 44.8443H104.678V43.0753C104.234 43.7081 103.643 44.2007 102.903 44.5494C102.164 44.8982 101.238 45.0744 100.129 45.0744C99.109 45.0744 98.1711 44.8982 97.3111 44.5494C96.451 44.2007 95.7078 43.7117 95.0773 43.0897C94.4469 42.4677 93.9605 41.7307 93.6219 40.8858C93.2794 40.0409 93.1082 39.1276 93.1082 38.1533C93.1082 37.179 93.2794 36.2442 93.6219 35.3957C93.9644 34.5508 94.4508 33.8137 95.0773 33.1917C95.7078 32.5697 96.451 32.0807 97.3111 31.7284C98.1711 31.3796 99.1206 31.2035 100.156 31.2035C101.265 31.2035 102.187 31.3796 102.919 31.7284C103.65 32.0807 104.238 32.5697 104.682 33.2025V31.4587H108.18V44.8443H108.176ZM104.678 37.5349C104.549 36.6468 104.133 35.899 103.429 35.2914C102.724 34.6838 101.829 34.3818 100.736 34.3818C100.125 34.3818 99.5682 34.486 99.0701 34.691C98.5719 34.8959 98.1478 35.1692 97.8053 35.5107C97.4628 35.8523 97.1982 36.255 97.0153 36.7152C96.8285 37.1754 96.739 37.6643 96.739 38.1785C96.739 38.6926 96.8324 39.1456 97.0153 39.5878C97.1982 40.0337 97.4628 40.4256 97.8053 40.7671C98.1478 41.1087 98.568 41.3819 99.0701 41.5869C99.5721 41.7918 100.125 41.8961 100.736 41.8961C101.273 41.8961 101.771 41.8134 102.234 41.6516C102.697 41.4898 103.098 41.2669 103.44 40.9864C103.783 40.706 104.059 40.3716 104.273 39.9869C104.487 39.6022 104.619 39.196 104.674 38.7681V37.5385L104.678 37.5349Z" fill="white"/>
<path d="M112.328 50L114.465 44.6933L108.97 31.4624H112.69L116.189 40.3357L119.824 31.4624H123.571L115.745 50H112.332H112.328Z" fill="white"/>
<defs>
<linearGradient id="paint0_linear_1_2" x1="52.235" y1="42.7261" x2="45.6517" y2="42.7261" gradientUnits="userSpaceOnUse">
<stop stop-color="#231F20" stop-opacity="0.3"/>
<stop offset="1" stop-color="#231F20" stop-opacity="0"/>
</linearGradient>
<linearGradient id="paint1_linear_1_2" x1="23.2899" y1="11.6193" x2="23.2899" y2="5.88312" gradientUnits="userSpaceOnUse">
<stop stop-color="#231F20" stop-opacity="0.3"/>
<stop offset="1" stop-color="#231F20" stop-opacity="0"/>
</linearGradient>
</defs>
</svg>
