<svg width="150" height="75" viewBox="0 0 150 75" fill="none" xmlns="http://www.w3.org/2000/svg">
<path d="M93.7991 37.9836L107.989 25.3327L95.6605 39.9012L93.7991 37.9836Z" fill="white"/>
<mask id="mask0_2_92" style="mask-type:luminance" maskUnits="userSpaceOnUse" x="49" y="5" width="64" height="65">
<path d="M49.7375 5H113V70H49.7375V5Z" fill="white"/>
</mask>
<g mask="url(#mask0_2_92)">
<path d="M87.2253 46.6593L90.8191 42.9702" stroke="white" stroke-width="3" stroke-miterlimit="10"/>
</g>
<path d="M93.0832 42.6858C92.1697 42.8826 91.2763 42.282 91.0853 41.3417C90.8944 40.4037 91.4791 39.4837 92.3915 39.2857C93.3033 39.09 94.1982 39.6917 94.389 40.6298C94.5798 41.5689 93.995 42.4901 93.0832 42.6858ZM91.9186 36.9665C89.7597 37.4322 88.3774 39.6085 88.8302 41.8287C89.2819 44.0489 91.3985 45.4706 93.5554 45.0061C95.7135 44.5404 97.0958 42.3641 96.6444 40.1439C96.1913 37.9237 94.0761 36.5021 91.9186 36.9665Z" fill="white"/>
<mask id="mask1_2_92" style="mask-type:luminance" maskUnits="userSpaceOnUse" x="64" y="12" width="49" height="58">
<path d="M64.8193 12.909H112.999V69.9188H64.8193V12.909Z" fill="white"/>
</mask>
<g mask="url(#mask1_2_92)">
<path d="M90.071 13.2827C82.7414 13.9913 76.1199 17.5938 71.4241 23.4254C66.7283 29.2582 64.5211 36.6229 65.2106 44.1619C66.3769 56.9284 75.6431 66.941 87.2856 69.3229C89.8386 69.8462 92.5063 70 95.2271 69.7383C97.0778 69.559 98.8767 69.1993 100.618 68.6596C100.344 68.2117 100.134 67.7179 99.9951 67.1951C98.1709 67.5897 96.2977 67.7777 94.5641 67.7023C81.3754 67.1209 70.0504 57.3334 68.8165 43.8133C68.2175 37.264 70.1345 30.8689 74.2128 25.802C78.291 20.7351 84.043 17.6073 90.4092 16.9909C97.9491 16.2621 104.941 18.4913 109.992 24.3117L113.008 22.3153C107.194 15.6154 98.7512 12.4437 90.071 13.2827Z" fill="white"/>
</g>
<path d="M87.1175 15.6231L61.261 14.5142L90.8204 13.2466L87.1175 15.6231Z" fill="white"/>
<path d="M67.8017 42.9587L45.4627 41.8497L67.8017 40.7407V42.9587Z" fill="white"/>
<path d="M89.5417 69.7697L38 68.0939L85.9489 66.5337L89.5417 69.7697Z" fill="white"/>
<path d="M70.8859 56.3992L48.9997 55.5828L70.8859 54.7676V56.3992Z" fill="white"/>
<path d="M70.3556 28.9676L56.362 28.1522L70.3556 27.3356V28.9676Z" fill="white"/>
<path d="M68.0958 35.9202L54.1 35.1048L68.0958 34.2883V35.9202Z" fill="white"/>
<path d="M68.3362 49.5514L46.7119 48.7349L68.3362 47.9195V49.5514Z" fill="white"/>
<path d="M75.6844 63.0975L44.8408 62.2817L75.6844 61.4653V63.0975Z" fill="white"/>
<path d="M75.6871 22.0941L61.6934 21.2787L75.6871 20.4622V22.0941Z" fill="white"/>
<mask id="mask2_2_92" style="mask-type:luminance" maskUnits="userSpaceOnUse" x="88" y="5" width="9" height="5">
<path d="M88.837 5H96.3782V9.16483H88.837V5Z" fill="white"/>
</mask>
<g mask="url(#mask2_2_92)">
<path d="M95.6617 8.9613H89.6142C89.3251 8.9613 89.0895 8.71946 89.0895 8.42255V5.55902C89.0895 5.25985 89.3251 5.01917 89.6142 5.01917H95.6617C95.9521 5.01917 96.1868 5.25985 96.1868 5.55902V8.42255C96.1868 8.71946 95.9521 8.9613 95.6617 8.9613Z" fill="white"/>
</g>
<path d="M94.4093 12.5739H90.8643V9.49329H94.4093V12.5739Z" fill="white"/>
<path d="M83.358 23.9668L81.9549 21.4643L81.1246 21.9569L82.5277 24.4605C82.8005 24.2885 83.0776 24.1243 83.358 23.9668Z" fill="white"/>
<path d="M92.6436 21.5386C92.804 21.5386 92.9644 21.5465 93.1237 21.551L93.1248 18.6526L92.1668 18.6514L92.1657 21.551C92.325 21.5465 92.4832 21.5386 92.6436 21.5386Z" fill="white"/>
<path d="M76.0835 31.0929L73.6494 29.6476L73.1704 30.5013L75.6034 31.9466C75.7562 31.6575 75.9165 31.3741 76.0835 31.0929Z" fill="white"/>
<path d="M102.758 24.4642L104.164 21.9617L103.336 21.4691L101.929 23.9705C102.211 24.1291 102.487 24.2933 102.758 24.4642Z" fill="white"/>
<path d="M73.2372 41.4995C73.2372 41.3342 73.2449 41.17 73.2492 41.0046H70.4322L70.4311 41.9899L73.2492 41.991C73.2449 41.8268 73.2372 41.6648 73.2372 41.4995Z" fill="white"/>
<path d="M75.5991 51.0535L73.1672 52.4977L73.6462 53.3513L76.0792 51.906C75.9123 51.627 75.753 51.3414 75.5991 51.0535Z" fill="white"/>
<path d="M92.643 61.4635C92.4809 61.4635 92.3216 61.4548 92.1612 61.4514V64.3496L93.1192 64.3508V61.4525C92.9599 61.4548 92.8023 61.4635 92.643 61.4635Z" fill="white"/>
<path d="M82.5248 58.538L81.1195 61.0417L81.9487 61.5343L83.354 59.0317C83.0725 58.8757 82.7965 58.7103 82.5248 58.538Z" fill="white"/>
</svg>
