<svg width="150" height="76" viewBox="0 0 150 76" fill="none" xmlns="http://www.w3.org/2000/svg">
<g clip-path="url(#clip0_1_43)">
<path d="M47.0144 48.5491C47.0144 46.1507 46.9905 43.7571 47.0239 41.3587C47.0479 39.5345 47.3349 39.3704 48.9229 40.2922C56.5235 44.7078 64.1098 49.1427 71.7057 53.5632C73.3415 54.5139 74.9678 55.4839 76.6372 56.3718C78.5553 57.3949 80.2007 56.8592 81.2483 54.9434C82.1236 53.3412 82.4489 51.5942 82.468 49.7942C82.5063 46.2279 82.4776 42.6665 82.5254 39.1002C82.5493 37.2712 82.865 37.0878 84.4148 37.9999C88.3562 40.3259 92.4268 42.4686 96.1721 45.0842C100.429 48.0569 102.539 52.2843 101.601 57.6651C101.085 60.6185 99.4103 62.8963 96.9039 64.3972C91.0922 67.8766 85.2232 71.2595 79.335 74.6134C75.9197 76.5582 72.4614 76.4135 69.0749 74.4542C63.5263 71.2498 57.9681 68.0551 52.4482 64.7977C48.899 62.7081 47.11 59.5134 47.0335 55.3729C46.9905 53.0999 47.0239 50.8269 47.0239 48.5491C47.0192 48.5491 47.0144 48.5491 47.0144 48.5491Z" fill="white"/>
<path d="M101.883 28.3627C101.883 30.6984 101.903 33.0389 101.879 35.3746C101.86 37.3387 101.582 37.5028 99.9271 36.5425C91.6425 31.7166 83.3626 26.8812 75.0732 22.0553C74.1213 21.5004 73.1599 20.9647 72.1793 20.4725C70.4239 19.5893 68.7976 20.0671 67.7835 21.7561C66.8747 23.2618 66.4538 24.9219 66.4346 26.6785C66.4059 30.3702 66.4203 34.0572 66.382 37.7489C66.3629 39.6455 66.1189 39.7999 64.55 38.8975C60.5751 36.6245 56.4519 34.5735 52.7497 31.8662C48.5547 28.8018 46.364 24.6516 47.3207 19.266C47.8468 16.3271 49.4875 14.0445 52.0274 12.5388C57.8056 9.11246 63.6077 5.72472 69.4529 2.40938C72.9207 0.44044 76.4508 0.570734 79.8995 2.57346C85.3907 5.76333 90.8628 8.98698 96.3731 12.1527C100.066 14.2761 101.735 17.5577 101.874 21.7175C101.941 23.9326 101.879 26.1525 101.883 28.3627Z" fill="white"/>
<path d="M101.501 58.3118C101.348 58.7557 101.199 59.2045 101.032 59.6437C100.927 59.9139 100.812 60.1842 100.687 60.4448C100.443 60.9515 100.156 61.4389 99.836 61.8974C99.525 62.3365 99.1806 62.7515 98.798 63.1279C98.4345 63.4899 98.0374 63.8229 97.6117 64.1124C97.2052 64.3923 96.7699 64.6336 96.3155 64.8314C95.8754 65.0197 95.4114 65.1644 94.9427 65.2561C94.4787 65.3478 94.0004 65.3816 93.5268 65.3623C93.0437 65.343 92.5654 65.261 92.1062 65.1258C91.6183 64.9811 91.1543 64.7784 90.7143 64.5226C90.5851 64.4502 90.4655 64.3633 90.3412 64.291L80.9468 58.6303C80.6359 58.4276 80.3728 58.249 80.1576 58.0994L78.0147 56.8544C78.0147 56.8544 79.2966 57.1198 80.2724 56.1836C80.2915 56.1594 80.3107 56.1353 80.3346 56.116C80.7938 55.6286 81.3582 54.7117 81.6308 54.0506C81.7983 53.6404 81.8987 53.1916 82.0039 52.7621C82.1331 52.2457 82.2527 51.7245 82.3579 51.1985C82.5205 50.3926 82.4488 49.5577 82.4536 48.7421C82.4583 47.9362 82.4631 47.1255 82.4727 46.3196C82.4775 45.422 82.487 44.5196 82.4918 43.622C82.4966 42.8112 82.5014 42.0005 82.511 41.1946C82.5157 40.6541 82.5205 40.1184 82.5205 39.5779C82.5205 39.4042 82.5205 39.216 82.511 39.0374C82.5014 38.8637 82.4727 38.6948 82.4679 38.5259C82.4583 38.217 82.5014 37.8937 82.7023 37.6476C82.9367 37.3532 83.3385 37.3194 83.6829 37.3677C83.9603 37.4063 84.2377 37.4835 84.4912 37.5897C84.5582 37.6186 84.6252 37.6476 84.6921 37.6814C84.7591 37.7151 84.8308 37.7489 84.8978 37.7875C84.9791 37.831 85.0604 37.8744 85.1418 37.9178C85.2374 37.9709 85.3283 38.0192 85.424 38.0723C85.5292 38.1302 85.6344 38.1929 85.7397 38.2508C85.8545 38.3184 85.974 38.3859 86.0888 38.4535C86.218 38.5259 86.3424 38.6031 86.4667 38.6803C86.6007 38.7623 86.7394 38.8444 86.8733 38.9264C87.0168 39.0133 87.1651 39.1001 87.3086 39.1918C87.4616 39.2835 87.6147 39.3801 87.7678 39.4717C87.9304 39.5731 88.0882 39.6696 88.2461 39.7709C88.4135 39.8771 88.5809 39.9784 88.7483 40.0846C88.9205 40.1956 89.0927 40.3018 89.2649 40.4128C89.4419 40.5238 89.6189 40.6396 89.7959 40.7554C89.9776 40.8712 90.1594 40.9919 90.3412 41.1077C90.5277 41.2283 90.7143 41.349 90.896 41.4696C91.0826 41.5951 91.2739 41.7158 91.4605 41.8412C91.6518 41.9667 91.8431 42.0922 92.0344 42.2225C92.2258 42.3528 92.4171 42.4782 92.6084 42.6085C92.7998 42.7388 92.9959 42.8691 93.1872 42.9994C93.3785 43.1297 93.5747 43.26 93.766 43.3951C93.9573 43.5254 94.1486 43.6605 94.34 43.7908C94.5313 43.9211 94.7226 44.0563 94.9092 44.1914C95.0957 44.3217 95.2871 44.4568 95.4736 44.5919C95.6602 44.7222 95.8419 44.8574 96.0285 44.9877C96.2102 45.118 96.392 45.2531 96.5738 45.3834C96.7507 45.5137 96.9277 45.644 97.1047 45.7743C97.2769 45.9046 97.4491 46.03 97.6213 46.1603C97.6404 46.1748 97.6548 46.1845 97.6739 46.1989C97.9322 46.3968 98.1809 46.5995 98.4249 46.8166C98.6545 47.0193 98.8745 47.2317 99.0898 47.4585C99.2907 47.6708 99.4868 47.888 99.6685 48.1148C99.8455 48.332 100.013 48.5539 100.171 48.7856C100.324 49.0076 100.467 49.2344 100.601 49.466C100.73 49.688 100.85 49.9197 100.96 50.1513C101.07 50.3781 101.166 50.6049 101.257 50.8366C101.343 51.0585 101.424 51.2902 101.496 51.517C101.568 51.739 101.63 51.9658 101.682 52.1926C101.735 52.4098 101.783 52.6318 101.821 52.8538C101.859 53.0661 101.893 53.2833 101.917 53.5004C101.941 53.7079 101.96 53.9154 101.974 54.1229C101.988 54.3208 101.993 54.5235 101.998 54.7214C102.003 54.9096 101.998 55.1026 101.993 55.2908C101.988 55.4694 101.979 55.6479 101.965 55.8265C101.95 55.9954 101.936 56.1594 101.917 56.3235C101.898 56.4779 101.878 56.6275 101.855 56.782C101.835 56.9171 101.811 57.0571 101.788 57.1922C101.764 57.3128 101.74 57.4335 101.716 57.5541C101.692 57.6555 101.668 57.7568 101.644 57.8581C101.625 57.9402 101.601 58.0222 101.577 58.1042C101.553 58.167 101.529 58.2394 101.501 58.3118Z" fill="#DCDCDC"/>
<path d="M47.5262 18.5469C47.684 18.103 47.8371 17.6542 48.0045 17.2198C48.1097 16.9496 48.2293 16.6842 48.3585 16.4236C48.6072 15.9217 48.8942 15.4343 49.2242 14.9806C49.5399 14.5463 49.8891 14.1361 50.2718 13.7597C50.6401 13.3978 51.0371 13.0696 51.4628 12.7849C51.8742 12.5098 52.3094 12.2685 52.7638 12.0803C53.2087 11.8969 53.6679 11.757 54.1414 11.6701C54.6102 11.5833 55.0837 11.5543 55.5573 11.5784C56.0404 11.6026 56.5139 11.6894 56.9779 11.8294C57.461 11.979 57.9298 12.1865 58.3651 12.4471C58.4895 12.5243 58.609 12.6063 58.7382 12.6835C58.786 12.7125 58.8386 12.7463 58.8865 12.7752C59.0252 12.8621 59.1639 12.9441 59.3026 13.031C59.5131 13.1613 59.7235 13.2916 59.934 13.4219C60.2019 13.586 60.4697 13.7501 60.7424 13.919C61.0533 14.112 61.3642 14.3002 61.6751 14.4932C62.0099 14.7007 62.3495 14.9083 62.6844 15.1158C63.0336 15.3281 63.378 15.5453 63.7271 15.7576C64.0715 15.9699 64.4111 16.1774 64.7555 16.3898C65.0808 16.5876 65.4013 16.7855 65.7265 16.9834C66.0135 17.1619 66.3005 17.3356 66.5875 17.5142C66.8219 17.659 67.0611 17.8037 67.2954 17.9485C67.4629 18.0547 67.6351 18.156 67.8025 18.2622C67.8981 18.3201 67.9938 18.378 68.0895 18.4359C68.2473 18.5373 68.4052 18.6483 68.5582 18.7544C68.6778 18.8365 68.7878 18.9282 68.9122 18.9957C69.0079 19.0488 69.1083 19.0922 69.2088 19.1405C69.5579 19.3142 69.9023 19.488 70.2515 19.6569C70.5433 19.8016 70.8351 19.9464 71.1221 20.0912C71.1555 20.1057 71.1842 20.1201 71.2177 20.1395C71.2177 20.1395 69.7206 19.9609 68.74 20.8923C68.7209 20.9164 68.7017 20.9357 68.6778 20.9598C68.2138 21.4472 67.6398 22.3545 67.3624 23.0156C67.1902 23.4258 67.085 23.8746 66.975 24.3041C66.841 24.8205 66.7215 25.3417 66.6114 25.8629C66.444 26.6688 66.5062 27.4988 66.4919 28.3192C66.4775 29.1251 66.4679 29.9359 66.4536 30.7418C66.4392 31.6394 66.4249 32.5418 66.4105 33.4394C66.3962 34.2502 66.3866 35.0609 66.3723 35.8668C66.3627 36.4025 66.3531 36.943 66.3484 37.4786C66.3436 37.6524 66.3484 37.8406 66.3579 38.0191C66.3675 38.1929 66.3914 38.3618 66.3962 38.5355C66.401 38.8443 66.3531 39.1677 66.157 39.4138C65.9179 39.7082 65.5209 39.7371 65.1717 39.6889C64.8942 39.6503 64.6216 39.5682 64.3633 39.4572C64.2963 39.4283 64.2294 39.3945 64.1624 39.3655C64.0954 39.3318 64.0285 39.298 63.9615 39.2594C63.8802 39.2159 63.7989 39.1725 63.7176 39.1242C63.6219 39.0712 63.531 39.0181 63.4401 38.965C63.3349 38.9023 63.2297 38.8444 63.1244 38.7816C63.0096 38.7141 62.8948 38.6465 62.7753 38.5741C62.6509 38.4969 62.5217 38.4245 62.3974 38.3473C62.2634 38.2652 62.1247 38.1832 61.9908 38.0963C61.8473 38.0095 61.7038 37.9178 61.5603 37.8261C61.4072 37.7296 61.2542 37.6379 61.1059 37.5414C60.948 37.44 60.7854 37.3387 60.6276 37.2373C60.4602 37.1312 60.2975 37.025 60.1301 36.9188C59.9579 36.8078 59.7857 36.6969 59.6135 36.5859C59.4365 36.47 59.2596 36.3542 59.0826 36.2384C58.9008 36.1178 58.719 36.0019 58.5421 35.8813C58.3555 35.7606 58.1738 35.6352 57.9872 35.5145C57.8007 35.3891 57.6141 35.2636 57.4228 35.1381C57.2315 35.0126 57.0449 34.8823 56.8536 34.7521C56.6622 34.6218 56.4709 34.4915 56.2795 34.3612C56.0882 34.2309 55.8969 34.0957 55.7056 33.9654C55.5142 33.8303 55.3229 33.7 55.1316 33.5649C54.9402 33.4298 54.7489 33.2946 54.5576 33.1644C54.3662 33.0292 54.1797 32.8941 53.9884 32.759C53.8018 32.6239 53.6153 32.4887 53.4287 32.3536C53.2422 32.2185 53.0604 32.0834 52.8786 31.9482C52.6969 31.8131 52.5199 31.6828 52.3381 31.5477C52.1611 31.4174 51.9842 31.2823 51.812 31.152C51.6398 31.0217 51.4724 30.8914 51.3002 30.7611C51.2858 30.7466 51.2667 30.737 51.2523 30.7225C50.994 30.5246 50.7453 30.3171 50.5061 30.0999C50.2765 29.8924 50.0613 29.6801 49.8508 29.4533C49.6499 29.241 49.4586 29.019 49.2768 28.7922C49.1046 28.575 48.9372 28.3482 48.7794 28.1165C48.6311 27.8946 48.4876 27.6677 48.3585 27.4313C48.2293 27.2045 48.1145 26.9776 48.0045 26.7412C47.8993 26.5144 47.8036 26.2876 47.7127 26.0511C47.6266 25.8243 47.5501 25.5975 47.4783 25.3658C47.4114 25.1438 47.3492 24.917 47.2966 24.6902C47.2439 24.473 47.2009 24.2511 47.1626 24.0291C47.1244 23.8167 47.0957 23.5996 47.0718 23.3824C47.0478 23.1749 47.0335 22.9674 47.0191 22.7599C47.0096 22.562 47 22.3593 47 22.1615C47 21.9733 47 21.7802 47.0096 21.592C47.0191 21.4135 47.0287 21.2349 47.043 21.0564C47.0574 20.8875 47.0717 20.7234 47.0957 20.5593C47.1148 20.4049 47.1339 20.2553 47.1578 20.1008C47.1818 19.9657 47.2057 19.8258 47.2296 19.6907C47.2535 19.57 47.2774 19.4494 47.3061 19.3287C47.33 19.2274 47.354 19.126 47.3827 19.0247C47.4018 18.9426 47.4257 18.8606 47.4496 18.7786C47.4735 18.6917 47.5022 18.6193 47.5262 18.5469Z" fill="#DCDCDC"/>
</g>
<defs>
<clipPath id="clip0_1_43">
<rect width="150" height="76" fill="white"/>
</clipPath>
</defs>
</svg>
