<svg width="150" height="75" viewBox="0 0 150 75" fill="none" xmlns="http://www.w3.org/2000/svg">
<path d="M74.6413 74.7503L40.0431 0.638426C40.0113 0.570483 39.9967 0.495232 40.0006 0.419784C40.0046 0.344337 40.0271 0.271191 40.0658 0.207271C40.1046 0.143352 40.1584 0.0907673 40.2222 0.0544998C40.286 0.0182322 40.3576 -0.000521206 40.4303 1.10206e-05H54.8251C54.9057 -0.000577413 54.985 0.0225751 55.0534 0.0667825C55.1219 0.11099 55.1771 0.174447 55.2123 0.249826L82.5998 58.8871C82.6281 58.9476 82.6429 59.014 82.6429 59.0814C82.6429 59.1487 82.6281 59.2152 82.5998 59.2756L75.4158 74.7365C75.3826 74.8136 75.3291 74.8795 75.2613 74.9261C75.1934 74.9728 75.1142 74.9984 75.0328 74.9999C74.9514 75.0013 74.8714 74.9786 74.802 74.9344C74.7328 74.8901 74.6769 74.8264 74.6413 74.7503Z" fill="url(#paint0_linear_7_362)"/>
<path d="M87.6739 14.2256H67.9378C67.8625 14.2255 67.7886 14.2033 67.7249 14.1616C67.6611 14.1198 67.6099 14.0603 67.5773 13.9897L61.3814 0.596782C61.352 0.53335 61.3386 0.463224 61.3425 0.392952C61.3462 0.322681 61.3671 0.254563 61.4031 0.194956C61.4392 0.13535 61.4891 0.0861992 61.5484 0.0521064C61.6076 0.0180133 61.6742 8.68069e-05 61.7419 0H109.6C109.668 8.68069e-05 109.734 0.0180133 109.793 0.0521064C109.853 0.0861992 109.903 0.13535 109.939 0.194956C109.975 0.254563 109.995 0.322681 109.999 0.392952C110.003 0.463224 109.99 0.53335 109.96 0.596782L86.0448 51.9339C86.0133 52.005 85.9631 52.0653 85.9 52.108C85.8371 52.1509 85.7636 52.1743 85.6884 52.1758C85.6131 52.1772 85.5391 52.1566 85.4746 52.1163C85.41 52.0759 85.3578 52.0176 85.3237 51.9477L78.0596 36.4731C78.0335 36.4168 78.0199 36.3552 78.0199 36.2926C78.0199 36.2302 78.0335 36.1686 78.0596 36.1122L88.0344 14.8224C88.0638 14.759 88.0771 14.6888 88.0734 14.6186C88.0696 14.5483 88.0487 14.4802 88.0126 14.4206C87.9767 14.361 87.9267 14.3118 87.8674 14.2777C87.8082 14.2436 87.7416 14.2257 87.6739 14.2256Z" fill="white"/>
<defs>
<linearGradient id="paint0_linear_7_362" x1="-25.999" y1="68.0053" x2="121.022" y2="12.2019" gradientUnits="userSpaceOnUse">
<stop offset="0.550525" stop-color="#FDFDFD"/>
<stop offset="0.600701" stop-color="#FDFDFD"/>
</linearGradient>
</defs>
</svg>
