<svg xmlns="http://www.w3.org/2000/svg" xmlns:xlink="http://www.w3.org/1999/xlink" width="150" zoomAndPan="magnify" viewBox="0 0 112.5 56.249996" height="75" preserveAspectRatio="xMidYMid meet" version="1.0"><defs><clipPath id="0ea38519c8"><path d="M 40 1.523438 L 72 1.523438 L 72 54 L 40 54 Z M 40 1.523438 " clip-rule="nonzero"/></clipPath></defs><path fill="#ffffff" d="M 80.449219 22.101562 C 80.097656 20.285156 79.546875 18.53125 78.800781 16.839844 C 78.242188 15.605469 77.585938 14.425781 76.832031 13.304688 C 76.074219 12.179688 75.230469 11.128906 74.292969 10.148438 C 73.359375 9.167969 72.351562 8.273438 71.265625 7.464844 C 70.179688 6.65625 69.03125 5.941406 67.824219 5.324219 C 66.617188 4.707031 65.367188 4.195312 64.074219 3.789062 C 62.78125 3.382812 61.460938 3.089844 60.117188 2.90625 C 58.777344 2.722656 57.425781 2.652344 56.070312 2.695312 C 54.714844 2.738281 53.375 2.898438 52.042969 3.167969 C 51.136719 3.347656 50.242188 3.582031 49.359375 3.871094 C 48.082031 4.1875 46.84375 4.613281 45.640625 5.140625 C 44.875 5.480469 44.128906 5.855469 43.402344 6.269531 C 42.675781 6.6875 41.976562 7.136719 41.296875 7.625 C 40.617188 8.113281 39.964844 8.632812 39.339844 9.1875 C 38.714844 9.742188 38.121094 10.328125 37.558594 10.945312 C 36.992188 11.5625 36.460938 12.203125 35.964844 12.875 C 35.464844 13.546875 35.003906 14.242188 34.578125 14.960938 C 34.152344 15.675781 33.765625 16.414062 33.414062 17.175781 C 33.066406 17.933594 32.757812 18.707031 32.488281 19.496094 C 32.21875 20.285156 31.992188 21.089844 31.804688 21.902344 C 31.617188 22.714844 31.476562 23.535156 31.375 24.363281 C 31.273438 25.191406 31.214844 26.023438 31.199219 26.859375 C 31.183594 27.691406 31.210938 28.527344 31.285156 29.355469 C 31.355469 30.1875 31.46875 31.015625 31.625 31.832031 C 31.78125 32.652344 31.980469 33.460938 32.21875 34.261719 C 32.460938 35.0625 32.742188 35.847656 33.0625 36.617188 C 33.386719 37.386719 33.746094 38.136719 34.144531 38.871094 C 34.71875 39.917969 35.363281 40.921875 36.078125 41.878906 C 36.800781 42.824219 37.585938 43.714844 38.433594 44.554688 C 39.265625 45.382812 40.152344 46.144531 41.097656 46.84375 C 42.039062 47.542969 43.027344 48.167969 44.0625 48.722656 C 45.097656 49.28125 46.167969 49.757812 47.269531 50.160156 C 48.375 50.558594 49.5 50.878906 50.652344 51.117188 C 51.800781 51.355469 52.960938 51.511719 54.136719 51.582031 C 55.308594 51.652344 56.480469 51.640625 57.648438 51.542969 C 58.820312 51.445312 59.976562 51.261719 61.121094 50.996094 C 62.265625 50.730469 63.386719 50.386719 64.480469 49.957031 L 66.035156 49.300781 L 67.449219 48.597656 C 68.398438 48.0625 69.308594 47.46875 70.179688 46.8125 L 71.453125 45.824219 L 72.015625 45.308594 L 72.535156 44.886719 L 73.476562 44.039062 L 73.804688 43.757812 L 74.089844 43.429688 L 74.9375 42.488281 C 76 41.285156 76.925781 39.988281 77.714844 38.589844 C 78.960938 36.425781 79.839844 34.125 80.355469 31.683594 C 81.03125 28.496094 81.0625 25.300781 80.449219 22.101562 Z M 72.203125 44.320312 L 71.640625 44.835938 L 71.074219 45.355469 L 69.851562 46.339844 C 68.992188 46.964844 68.097656 47.53125 67.164062 48.03125 L 65.75 48.738281 L 64.246094 49.347656 L 61.9375 50.097656 L 61.699219 50.097656 C 58.515625 50.761719 55.328125 50.777344 52.140625 50.148438 C 50.332031 49.78125 48.589844 49.214844 46.910156 48.457031 C 45.136719 47.65625 43.488281 46.652344 41.964844 45.449219 C 40.347656 44.15625 38.917969 42.683594 37.679688 41.03125 C 37.035156 40.179688 36.457031 39.285156 35.933594 38.355469 C 35.652344 37.886719 35.417969 37.414062 35.183594 36.898438 C 34.945312 36.382812 34.710938 35.910156 34.570312 35.394531 C 34.1875 34.40625 33.875 33.394531 33.628906 32.363281 C 33.386719 31.332031 33.210938 30.289062 33.105469 29.234375 C 33 28.179688 32.964844 27.125 33 26.066406 C 33.035156 25.007812 33.144531 23.953125 33.320312 22.910156 C 33.5 21.863281 33.746094 20.835938 34.058594 19.824219 C 34.375 18.8125 34.757812 17.824219 35.203125 16.863281 C 35.652344 15.902344 36.160156 14.976562 36.734375 14.082031 C 37.304688 13.191406 37.933594 12.339844 38.621094 11.53125 L 38.996094 11.152344 L 39.234375 10.871094 L 39.515625 10.589844 L 40.082031 10.074219 L 41.210938 9.085938 C 42.550781 8.003906 43.992188 7.078125 45.53125 6.308594 C 47.074219 5.535156 48.679688 4.941406 50.351562 4.519531 C 52.023438 4.097656 53.71875 3.859375 55.445312 3.804688 C 57.167969 3.753906 58.875 3.882812 60.570312 4.199219 C 63.011719 4.640625 65.320312 5.453125 67.496094 6.644531 C 68.898438 7.410156 70.199219 8.320312 71.402344 9.367188 L 72.347656 10.214844 L 72.675781 10.496094 L 72.957031 10.824219 L 73.804688 11.765625 C 76.535156 14.878906 78.3125 18.464844 79.128906 22.523438 C 79.757812 25.6875 79.742188 28.851562 79.082031 32.011719 C 78.710938 33.796875 78.148438 35.519531 77.386719 37.179688 C 76.554688 38.953125 75.519531 40.597656 74.277344 42.113281 L 73.289062 43.242188 Z M 51.054688 50.429688 C 48.789062 49.960938 46.636719 49.179688 44.601562 48.078125 C 43.585938 47.523438 42.609375 46.894531 41.683594 46.199219 C 40.769531 45.503906 39.90625 44.753906 39.089844 43.945312 C 38.296875 43.144531 37.566406 42.289062 36.894531 41.382812 C 36.222656 40.476562 35.621094 39.527344 35.089844 38.535156 C 34.554688 37.542969 34.097656 36.515625 33.710938 35.457031 C 33.328125 34.398438 33.019531 33.316406 32.792969 32.214844 C 32.5625 31.109375 32.414062 29.996094 32.347656 28.871094 C 32.28125 27.746094 32.292969 26.625 32.386719 25.503906 C 32.480469 24.378906 32.65625 23.269531 32.910156 22.171875 C 33.167969 21.074219 33.5 20 33.910156 18.953125 C 34.097656 18.433594 34.332031 17.964844 34.523438 17.496094 L 34.804688 16.886719 C 34.070312 18.546875 33.539062 20.269531 33.203125 22.054688 C 32.75 24.292969 32.621094 26.550781 32.8125 28.828125 C 33.007812 31.105469 33.511719 33.308594 34.332031 35.441406 C 34.523438 35.957031 34.757812 36.476562 34.992188 36.945312 C 35.230469 37.414062 35.464844 37.933594 35.746094 38.402344 C 36.265625 39.347656 36.847656 40.257812 37.488281 41.125 C 38.742188 42.800781 40.1875 44.289062 41.824219 45.589844 C 43.375 46.816406 45.058594 47.832031 46.863281 48.644531 C 48.980469 49.59375 51.1875 50.226562 53.488281 50.535156 C 55.789062 50.847656 58.085938 50.828125 60.382812 50.476562 C 57.269531 51.082031 54.160156 51.066406 51.054688 50.429688 Z M 80.210938 31.683594 C 79.714844 34.121094 78.851562 36.425781 77.621094 38.589844 C 76.847656 39.984375 75.9375 41.285156 74.890625 42.488281 L 74.042969 43.429688 L 73.757812 43.757812 L 73.429688 44.039062 L 72.535156 44.835938 L 72.628906 44.835938 L 73.710938 43.710938 L 74.703125 42.535156 C 75.933594 40.96875 76.953125 39.28125 77.761719 37.460938 C 78.792969 35.128906 79.4375 32.695312 79.695312 30.160156 C 79.953125 27.621094 79.8125 25.109375 79.269531 22.617188 C 78.988281 21.296875 78.597656 20.015625 78.09375 18.765625 C 77.679688 17.710938 77.195312 16.691406 76.632812 15.710938 C 75.84375 14.3125 74.917969 13.015625 73.855469 11.8125 L 73.003906 10.871094 L 72.722656 10.542969 L 72.394531 10.261719 L 71.453125 9.414062 C 70.265625 8.292969 68.980469 7.308594 67.589844 6.457031 C 66.605469 5.878906 65.585938 5.378906 64.527344 4.953125 C 63.273438 4.433594 61.988281 4.027344 60.664062 3.730469 C 58.695312 3.296875 56.699219 3.109375 54.683594 3.167969 C 58.363281 2.84375 61.925781 3.347656 65.375 4.671875 L 66.882812 5.28125 L 68.34375 6.03125 C 69.277344 6.550781 70.171875 7.128906 71.027344 7.769531 L 72.253906 8.757812 L 72.816406 9.273438 L 73.382812 9.792969 L 74.464844 10.871094 L 75.457031 12 C 76.679688 13.519531 77.699219 15.160156 78.515625 16.933594 C 79.277344 18.589844 79.84375 20.3125 80.210938 22.101562 C 80.859375 25.277344 80.859375 28.457031 80.210938 31.636719 Z M 80.210938 31.683594 " fill-opacity="1" fill-rule="nonzero"/><g clip-path="url(#0ea38519c8)"><path fill="#ffffff" d="M 52.140625 9.453125 C 50.65625 12.839844 46.941406 24.105469 44.929688 31.667969 C 43.019531 38.699219 41.90625 44.941406 41.800781 48.484375 C 41.746094 49.964844 41.640625 52.398438 42.964844 52.398438 C 45.140625 52.398438 52.457031 47.320312 60.199219 34.363281 C 68.101562 21.089844 70.539062 9.773438 70.328125 4.589844 C 70.222656 3.109375 69.851562 2.367188 69.109375 2.367188 C 68.738281 2.367188 68.257812 2.898438 68.046875 3.214844 C 67.835938 3.53125 67.730469 3.796875 67.570312 3.796875 C 67.199219 3.796875 67.144531 3.265625 67.410156 2.789062 C 67.78125 1.996094 68.3125 1.574219 69.214844 1.519531 C 70.59375 1.519531 71.492188 3.054688 71.546875 4.378906 C 72.078125 11.359375 67.304688 25.742188 61.367188 35.050781 C 55.585938 44.148438 47.367188 53.136719 42.964844 53.136719 C 41.109375 53.136719 40.421875 51.128906 40.527344 48.695312 C 40.738281 44.519531 41.957031 37.539062 43.65625 31.136719 C 45.351562 24.6875 49.433594 13.210938 50.921875 9.773438 C 51.609375 8.238281 52.351562 8.976562 52.140625 9.453125 Z M 52.140625 9.453125 " fill-opacity="1" fill-rule="nonzero"/></g></svg>