<svg width="150" height="75" viewBox="0 0 150 75" fill="none" xmlns="http://www.w3.org/2000/svg">
<path d="M25.848 45.2015C26.1348 45.3028 26.4359 45.4765 26.7227 45.4765C30.8665 45.4765 34.9959 45.5055 39.1397 45.4041C40.4732 45.3752 41.3191 45.7805 42.1794 46.8229C49.3343 55.3935 56.5609 63.8917 63.7587 72.4189C63.8448 72.5202 63.9021 72.6505 64.1028 72.969C63.3716 72.969 62.7694 72.969 62.1815 72.969C56.8906 72.969 51.5854 72.969 46.2946 72.998C45.2192 72.998 44.4736 72.7374 43.728 71.8398C37.075 63.8628 30.2499 56.016 23.7259 47.9377C22.1631 46.0122 20.6719 45.3317 18.3204 45.4476C14.4777 45.6213 10.6206 45.491 6.76362 45.491C6.30479 45.491 5.8603 45.4476 5 45.4041C24.2134 31.1295 43.1114 17.1009 62.0811 3C71.3724 10.1952 80.6494 17.376 90.2274 24.7884C92.1344 22.7616 93.9841 20.7347 95.9197 18.8093C96.4216 18.317 97.2102 17.8682 97.8841 17.8538C103.906 17.7814 109.914 17.7958 115.936 17.7958C116.108 17.7958 116.28 17.8393 116.424 17.8682C108.451 26.0045 100.537 34.0973 92.5072 42.2915C82.4416 34.4014 72.3618 26.4823 62.2819 18.5776C61.9521 17.405 61.2495 17.2891 60.3319 17.9117C59.1418 18.7224 57.966 19.5476 56.8046 20.4018C52.6035 23.5144 48.388 26.627 44.2012 29.7541C38.4658 34.0249 32.7161 38.2813 27.0381 42.6245C26.4359 43.0878 26.2638 44.1446 25.891 44.9264C25.848 44.9409 25.7763 44.9553 25.7763 44.9698C25.7763 45.0422 25.7907 45.1146 25.805 45.187L25.848 45.2015Z" fill="white"/>
<path d="M89.4674 72.9256C84.9365 72.9256 80.4199 72.9256 75.889 72.9256C75.2294 72.2742 74.5268 71.6661 73.9246 70.9712C71.9602 68.6693 70.0245 66.3384 68.0745 64.0221C64.5329 59.7802 61.0057 55.5239 57.4354 51.311C56.8619 50.645 56.059 50.1672 55.3707 49.6026C55.2847 49.2841 55.2273 48.9512 55.1126 48.6471C54.8975 48.0825 54.6394 47.5324 54.41 46.9678C55.0696 46.7795 55.7148 46.461 56.3744 46.4176C59.1847 46.2728 62.0094 46.157 64.8341 46.1281C66.1102 46.1281 67.4293 46.186 68.6624 46.5045C69.4223 46.7072 70.1106 47.3586 70.6984 47.9522C71.5731 48.8353 72.333 49.8343 73.1503 50.7753C75.6022 53.5839 78.054 56.407 80.5059 59.2156C80.635 59.4617 80.6923 59.7802 80.893 59.9539C82.2982 61.17 83.7607 60.8515 85.3666 59.1287C87.1446 57.2467 88.9942 55.437 90.8296 53.6129C91.5465 52.9035 92.3781 52.3099 93.0663 51.5716C95.0881 49.4144 96.9664 47.098 99.0741 45.0423C101.927 42.2481 105.025 39.7146 107.878 36.935C112.022 32.9103 116.036 28.7553 120.094 24.6292C120.453 24.2673 120.668 23.775 120.955 23.3407C121.141 23.1525 121.342 22.9498 121.528 22.7616C122.689 21.6903 123.837 20.619 124.998 19.5477C129.701 18.5053 134.476 19.1133 139.222 18.9975C139.723 18.9975 140.412 19.3015 140.684 19.6924C140.856 19.9385 140.526 20.7203 140.211 21.0823C138.218 23.3118 136.225 25.5268 134.146 27.655C130.217 31.6942 126.217 35.6609 122.274 39.6712C121.299 40.6556 120.424 41.7414 119.463 42.7259C117.427 44.8251 115.334 46.8664 113.312 48.9801C111.85 50.5002 110.487 52.1072 109.011 53.6129C105.225 57.4783 101.411 61.3438 97.5686 65.1513C95.002 67.6993 92.8799 70.7396 89.6108 72.5058C89.5248 72.5492 89.5248 72.7664 89.4817 72.9112L89.4674 72.9256Z" fill="white"/>
<path d="M89.4674 72.9255C89.5104 72.7807 89.5104 72.5636 89.5964 72.5201C92.8656 70.7539 95.002 67.7137 97.5543 65.1656C101.397 61.3436 105.197 57.4927 108.996 53.6272C110.473 52.1216 111.835 50.5001 113.298 48.9945C115.334 46.8952 117.413 44.8395 119.449 42.7402C120.41 41.7413 121.299 40.67 122.259 39.6855C126.217 35.6753 130.203 31.7085 134.131 27.6693C136.211 25.5267 138.218 23.3116 140.197 21.0966C140.512 20.7492 140.842 19.9529 140.67 19.7068C140.397 19.3159 139.709 18.9974 139.207 19.0119C134.461 19.1277 129.687 18.5196 124.984 19.562C125.371 19.0843 125.758 18.592 126.145 18.1143C131.465 18.1143 136.784 18.1143 142.104 18.0998C142.663 18.0998 143.208 17.955 143.767 17.8682H145C144.226 18.6934 143.638 19.3159 143.05 19.9239C139.035 24.0645 135.035 28.205 130.991 32.3166C127.579 35.7911 124.123 39.2222 120.711 42.7113C118.23 45.2448 115.821 47.8218 113.355 50.3698C108.58 55.3066 103.777 60.2144 99.0168 65.1656C96.7656 67.4965 94.5575 69.8708 92.3638 72.2451C91.5178 73.1716 90.4998 73.0268 89.4387 72.9255H89.4674Z" fill="white"/>
<path d="M58.3243 38.3974V29.4648H67.4292V38.3974H58.3243Z" fill="white"/>
<path d="M25.9197 44.9411C26.2925 44.1593 26.4502 43.1025 27.0667 42.6392C32.7447 38.296 38.4944 34.0397 44.2298 29.7689C48.4309 26.6418 52.6321 23.5291 56.8332 20.4165C57.9947 19.5623 59.1704 18.7371 60.3605 17.9264C61.2781 17.3039 61.9807 17.4052 62.3105 18.5924C61.7226 18.8674 61.0631 19.0701 60.5469 19.4465C50.467 26.9313 40.4158 34.445 30.3359 41.9298C28.9021 42.9867 27.3965 43.9422 25.934 44.9411H25.9197Z" fill="white"/>
<path d="M120.969 23.3551C120.682 23.7894 120.467 24.2817 120.109 24.6436C116.051 28.7552 112.022 32.9102 107.892 36.9494C105.039 39.729 101.942 42.277 99.0885 45.0567C96.9807 47.1269 95.1024 49.4288 93.0807 51.5859C92.3925 52.3243 91.5608 52.9179 90.8439 53.6273C89.0086 55.4514 87.1589 57.2611 85.381 59.1431C83.7607 60.8515 82.2982 61.1844 80.9074 59.9683C80.7067 59.7946 80.6493 59.4761 80.5203 59.23C80.8931 59.23 81.2659 59.23 81.6387 59.23C81.9541 59.4471 82.2552 59.6643 82.5707 59.8959C83.0151 59.7512 83.56 59.7367 83.8611 59.4471C85.295 58.0863 86.6428 56.653 88.0479 55.2632C89.1376 54.1919 90.213 53.0626 91.4318 52.1506C92.1057 51.6583 92.4785 51.224 92.3351 50.3988C92.4211 50.3119 92.4928 50.2251 92.5789 50.1382C92.6936 50.0369 92.8083 49.9355 92.9086 49.8342L92.8943 49.8487C92.9947 49.7473 93.095 49.646 93.1954 49.5302L93.1811 49.5446C93.2814 49.4433 93.3818 49.3275 93.4965 49.2261C93.5825 49.1393 93.6542 49.0524 93.7403 48.9655C93.855 48.8642 93.9553 48.7484 94.0701 48.6471C94.2564 48.4588 94.4428 48.2851 94.6292 48.0969C94.7296 48.0245 94.8443 47.9377 94.9447 47.8653L95.2888 47.5178C95.3605 47.4165 95.4465 47.3007 95.5182 47.1993C96.4932 46.2438 97.4826 45.2883 98.4576 44.3328C98.644 44.1446 98.8304 43.9564 99.0168 43.7827L99.0455 43.7537C99.2032 43.6089 99.3466 43.4786 99.5043 43.3339L99.4756 43.3628C99.576 43.2615 99.6764 43.1601 99.7911 43.0443H99.7767C100.178 42.6679 100.58 42.2915 100.967 41.9151V41.944C101.067 41.8137 101.182 41.6834 101.282 41.5531C101.34 41.4952 101.411 41.4229 101.469 41.3649C101.598 41.2346 101.727 41.0899 101.87 40.9596C101.87 40.8438 101.942 40.7858 102.057 40.7714C102.186 40.6556 102.315 40.5397 102.444 40.4384L102.401 40.4673C103.089 40.062 103.878 39.7724 104.437 39.2368C107.276 36.5585 110.072 33.8367 112.81 31.0716C113.628 30.2463 114.187 29.175 114.875 28.205C115.248 27.8286 115.621 27.4522 115.993 27.0903C116.868 27.1916 117.284 26.8152 117.198 25.9176C117.958 25.1503 118.732 24.383 119.492 23.6012C119.98 23.5144 120.481 23.413 120.969 23.3262V23.3551Z" fill="white"/>
<path d="M81.6386 59.2153C81.2658 59.2153 80.893 59.2153 80.5202 59.2153C78.0683 56.4067 75.6165 53.5981 73.1646 50.775C72.3473 49.834 71.5874 48.8206 70.7128 47.9519C70.1249 47.3583 69.4366 46.6924 68.6767 46.5042C67.4436 46.1857 66.1245 46.1133 64.8483 46.1278C62.0237 46.1567 59.2134 46.2725 56.3887 46.4173C55.7291 46.4463 55.0696 46.7792 54.4243 46.9675C54.6681 47.5321 54.9118 48.0822 55.1269 48.6468C55.2416 48.9508 55.299 49.2838 55.385 49.6023C54.6968 49.2259 53.9942 48.835 53.3059 48.4586C53.2199 48.3718 53.1339 48.2849 53.0622 48.1835C53.1626 47.3004 53.2629 46.4028 53.3633 45.5197C58.6972 45.5052 64.0311 45.4763 69.3649 45.4908C69.7521 45.4908 70.2539 45.6645 70.4833 45.9396C74.2257 50.3551 77.925 54.7997 81.6386 59.2298V59.2153Z" fill="white"/>
<path d="M55.3708 49.588C56.059 50.1527 56.862 50.6159 57.4355 51.2964C61.0058 55.5093 64.533 59.7656 68.0746 64.0075C70.0103 66.3383 71.946 68.6547 73.9247 70.9566C74.5269 71.6515 75.2295 72.2596 75.889 72.911C75.5019 72.911 75.1147 72.911 74.7419 72.911L71.5158 70.0011C71.3294 69.7984 71.1287 69.5957 70.9423 69.393C70.9996 68.481 70.8276 67.7426 69.6662 67.8584C69.6231 67.8295 69.5945 67.8005 69.5801 67.7426C69.0639 67.1201 68.5621 66.4976 68.0459 65.8895C67.6444 65.1657 67.3147 64.3694 66.8128 63.7324C65.1496 61.6042 63.4576 59.4905 61.6797 57.4637C60.9628 56.6385 59.9877 56.0594 59.1274 55.3645C59.0127 55.2197 58.898 55.0605 58.7833 54.9157C58.5826 54.6841 58.3962 54.4524 58.1954 54.2353C58.009 54.0471 57.837 53.8589 57.6506 53.6706C57.4212 53.1205 57.2491 52.5559 56.9623 52.0492C56.4605 51.195 55.9013 50.3843 55.3564 49.5591L55.3708 49.588Z" fill="white"/>
<path d="M114.861 28.2344C114.173 29.1899 113.613 30.2757 112.796 31.1009C110.057 33.8805 107.247 36.5878 104.422 39.2661C103.863 39.8018 103.075 40.0913 102.386 40.4967C105.942 36.9497 109.484 33.4173 113.054 29.8848C113.628 29.3057 114.259 28.7845 114.875 28.2489L114.861 28.2344Z" fill="white"/>
<path d="M92.3352 50.4131C92.4786 51.2383 92.1058 51.6581 91.4319 52.1648C90.2131 53.0769 89.1377 54.1917 88.048 55.2775C86.6428 56.6528 85.295 58.1006 83.8612 59.4614C83.5601 59.751 83.0009 59.7655 82.5707 59.9102C85.4671 57.0582 88.3635 54.2062 91.2598 51.3686C91.6039 51.0356 91.9911 50.7461 92.3495 50.4276L92.3352 50.4131Z" fill="white"/>
<path d="M59.1561 55.408C60.0164 56.1029 60.9914 56.682 61.7083 57.5072C63.4863 59.534 65.1782 61.6477 66.8414 63.7759C67.3433 64.4129 67.6731 65.2091 68.0745 65.933C65.1065 62.4295 62.1241 58.9115 59.1561 55.408Z" fill="white"/>
<path d="M143.781 17.8535C143.222 17.9404 142.677 18.0851 142.118 18.0851C136.798 18.0996 131.479 18.0851 126.159 18.0996C125.873 18.0417 125.571 17.9838 125.285 17.9404C126.575 17.8969 127.851 17.8101 129.142 17.8101C134.017 17.8101 138.906 17.839 143.781 17.8535Z" fill="white"/>
<path d="M55.3708 49.588C55.9156 50.4133 56.4748 51.224 56.9767 52.0781C57.2634 52.5849 57.4498 53.1639 57.6649 53.6996C56.2024 51.9478 54.7542 50.1961 53.2917 48.4443C53.9799 48.8207 54.6825 49.2116 55.3708 49.588Z" fill="white"/>
<path d="M53.349 45.5202C53.2487 46.4033 53.1483 47.3009 53.0479 48.184C52.288 47.3588 51.5281 46.5336 50.7538 45.7084C50.7825 45.5926 50.8111 45.4767 50.8398 45.3464C51.6714 45.4043 52.5174 45.4623 53.349 45.5202Z" fill="white"/>
<path d="M125.012 19.5621C123.851 20.6334 122.704 21.7047 121.542 22.7761C121.643 22.2983 121.743 21.8061 121.829 21.3283C122.13 21.0388 122.417 20.7492 122.718 20.4452C122.905 20.257 123.105 20.0833 123.292 19.8951L123.32 19.8661C123.88 19.7648 124.453 19.6634 125.012 19.5476V19.5621Z" fill="white"/>
<path d="M71.5157 70.0295L74.7419 72.9395C74.2114 72.6789 73.5805 72.5196 73.179 72.1288C72.5481 71.5207 72.0749 70.7389 71.5301 70.044L71.5157 70.0295Z" fill="white"/>
<path d="M124.998 19.5618C124.439 19.6632 123.865 19.7645 123.306 19.8803C123.966 19.2433 124.625 18.5918 125.285 17.9548C125.572 18.0127 125.873 18.0707 126.159 18.1286C125.772 18.6063 125.385 19.0985 124.998 19.5763V19.5618Z" fill="white"/>
<path d="M121.829 21.3137C121.729 21.7915 121.628 22.2837 121.542 22.7615C121.356 22.9497 121.155 23.1523 120.969 23.3405C120.481 23.4274 119.98 23.5288 119.492 23.6156C120.281 22.8483 121.055 22.081 121.843 21.3137H121.829Z" fill="white"/>
<path d="M68.0602 65.9329C68.5764 66.5554 69.0782 67.1779 69.5944 67.786C69.0782 67.1634 68.5764 66.5409 68.0602 65.9329Z" fill="white"/>
<path d="M69.6804 67.9019C70.8418 67.7861 71.0138 68.5244 70.9565 69.4365C70.5263 68.9298 70.1105 68.4086 69.6804 67.9019Z" fill="white"/>
<path d="M117.198 25.9463C117.284 26.8439 116.868 27.2203 115.993 27.119C116.395 26.7281 116.796 26.3372 117.198 25.9463Z" fill="white"/>
</svg>
