<svg width="150" height="75" viewBox="0 0 150 75" fill="none" xmlns="http://www.w3.org/2000/svg">
<path d="M37.7638 63.3388C37.0276 64.383 36.2915 65.417 35.4326 66.6234C36.6432 66.6234 37.6984 66.6234 38.7535 66.6234C39.3424 67.9514 39.9477 69.2592 40.5121 70.6075C40.8393 71.3779 41.1092 72.1788 41.4037 72.9695C39.8496 72.9695 38.2873 72.9695 36.7332 72.9695C36.5614 72.5133 36.4142 72.0369 36.2179 71.601C35.539 70.0905 34.8437 68.5901 34.1648 67.0796C33.6822 66.0151 33.1996 64.9507 32.7416 63.8761C32.3244 62.9029 31.9482 61.8993 31.531 60.9261C31.073 59.8515 30.6067 58.787 30.1241 57.7226C29.6088 56.5872 29.0608 55.4619 28.5373 54.3164C28.1038 53.3533 27.6866 52.3801 27.2613 51.4069C27.6376 50.8392 28.0056 50.2613 28.3983 49.7139C28.8972 49.0246 29.4125 48.3656 29.9196 47.6965C30.5822 49.1868 31.2529 50.6668 31.9073 52.1571C32.1445 52.6944 32.4062 53.11 32.9624 52.8464C32.2017 53.9007 31.4492 54.9652 30.6149 56.131C32.1036 56.131 33.535 56.131 34.9582 56.131C34.9746 56.2628 34.9582 56.4047 35.0073 56.5061C35.5553 57.753 36.1524 58.9695 36.6596 60.2469C37.044 61.2099 37.772 61.9804 37.7556 63.1766V63.1563C37.7556 63.207 37.7556 63.2679 37.7556 63.3186L37.7638 63.3388Z" fill="white"/>
<path d="M69.2795 72.9697C64.699 72.9697 60.1184 72.9697 55.5379 72.9697C55.4643 72.6554 55.4316 72.3006 55.3089 72.0167C54.63 70.4758 53.9265 68.9552 53.2394 67.4143C53.1331 67.171 53.084 66.8871 53.0104 66.6235C57.591 66.6235 62.1797 66.6235 66.7602 66.6235C67.1037 67.5866 67.4145 68.5801 67.8072 69.5127C68.2407 70.5366 68.7723 71.4997 69.2386 72.5033C69.2958 72.625 69.2631 72.8075 69.2795 72.9595V72.9697Z" fill="white"/>
<path d="M43.9148 45.6287C45.8206 43.0233 47.7265 40.4078 49.6486 37.8025C50.7202 36.3426 51.808 34.9031 52.8959 33.4534C52.9614 33.5852 53.0677 33.6967 53.0922 33.8387C53.1495 34.1529 53.0922 34.5179 53.1986 34.8017C53.6403 35.998 54.0901 37.1841 54.5973 38.3296C54.7772 38.7351 55.1289 39.0291 55.3988 39.3839C53.1004 42.5367 50.7938 45.6895 48.4953 48.8423C47.931 49.6127 47.3502 50.3731 46.7695 51.1334C46.7449 51.1536 46.7204 51.1739 46.704 51.2145C46.6386 51.3057 46.565 51.3868 46.4995 51.4781C46.1887 51.1435 45.7961 50.8799 45.5834 50.4744C44.8309 48.9741 43.9966 47.494 43.9148 45.6388V45.6287Z" fill="white"/>
<path d="M24.8729 3.01001C29.3307 3.01001 33.7804 3.01001 38.2382 3.01001C38.3118 3.32427 38.3445 3.66895 38.4672 3.96294C39.0971 5.47344 39.7596 6.97381 40.3976 8.48431C40.5121 8.74788 40.5612 9.06215 40.6348 9.35614C36.2588 9.35614 31.8909 9.35614 27.5149 9.35614C27.0077 8.241 26.4761 7.136 25.9935 5.99046C25.5845 5.01725 25.241 4.00349 24.8647 3.01001H24.8729Z" fill="white"/>
<path d="M64.3554 62.4772C60.6337 62.4874 56.9202 62.5076 53.1985 62.5178C52.5033 62.5178 51.8162 62.4975 51.1209 62.4772C50.9982 62.1224 50.9001 61.7574 50.761 61.4128C50.0003 59.659 49.2315 57.9052 48.4708 56.1514C52.9286 56.1514 57.3864 56.1514 61.8443 56.1514C62.2205 57.1043 62.5968 58.0674 62.9812 59.0102C63.1694 59.4664 63.3902 59.9023 63.5702 60.3686C63.8483 61.0681 64.1018 61.7777 64.3636 62.4772H64.3554Z" fill="white"/>
<path d="M45.1826 19.8285C40.9375 19.8285 36.6923 19.8285 32.4389 19.8285C32.3899 19.6561 32.349 19.4838 32.2835 19.3216C31.5474 17.6793 30.7867 16.037 30.0587 14.3846C29.9442 14.1312 29.9605 13.7865 29.9115 13.4925C34.1157 13.4925 38.32 13.4925 42.5243 13.4925C42.5325 13.6243 42.5161 13.7763 42.5652 13.8676C43.3341 15.449 44.1193 17.0102 44.8718 18.6018C45.0436 18.9567 45.0763 19.4128 45.1744 19.8183L45.1826 19.8285Z" fill="white"/>
<path d="M27.2613 51.4171C27.6866 52.3903 28.0956 53.3635 28.5373 54.3266C29.0526 55.4721 29.6006 56.5873 30.1241 57.7328C30.6067 58.7871 31.073 59.8617 31.531 60.9363C31.9482 61.9095 32.3244 62.9131 32.7416 63.8863C33.1996 64.9609 33.6822 66.0254 34.1648 67.0898C34.8437 68.6003 35.5472 70.1007 36.2179 71.6112C36.4142 72.0471 36.5614 72.5236 36.7332 72.9797C35.3917 72.9797 34.0421 72.9797 32.7007 72.9797C32.5126 72.5438 32.3244 72.1181 32.1445 71.672C31.9154 71.0942 31.6864 70.5062 31.4901 69.9081C30.9912 68.3773 29.9196 67.1912 29.6988 65.4779C29.6906 65.407 29.4861 65.3867 29.3716 65.336C29.9933 64.454 30.6231 63.5619 31.3756 62.4874C29.8788 62.4874 28.57 62.4874 27.2695 62.4874C27.2204 62.2136 27.2286 61.9095 27.1223 61.6763C26.4597 60.176 25.7399 58.7162 25.1265 57.1854C24.8484 56.496 24.7829 55.6648 24.6193 54.9044C25.5027 53.7386 26.3779 52.5728 27.2613 51.4171Z" fill="white"/>
<path d="M53.264 3.01001C54.4827 3.01001 55.7015 3.01001 56.9202 3.01001C56.9939 3.3851 57.002 3.7906 57.1493 4.11501C57.8772 5.77757 58.7034 7.37931 59.3577 9.08242C60.2657 11.4141 61.5171 13.5024 62.4005 15.8543C63.2021 17.9934 64.1673 20.031 65.1161 22.0788C65.4842 22.8797 65.7623 23.8123 66.5148 24.2584C65.6723 25.3938 64.838 26.5393 63.9955 27.6747C63.9464 27.472 63.9301 27.2388 63.8483 27.0564C63.0467 25.3127 62.2287 23.5893 61.419 21.8558C61.8443 21.2374 62.2778 20.6089 62.8177 19.8181C61.9261 19.8181 61.1899 19.8181 60.4456 19.8181C59.5949 17.8007 58.7116 15.8036 57.91 13.766C57.591 12.9651 56.7894 12.3264 57.2392 11.2316C57.0102 11.2316 56.8221 11.2316 56.634 11.2316C57.0429 10.6436 57.4437 10.0556 57.9427 9.346H55.906C55.8651 9.20407 55.8405 9.04187 55.7751 8.91008C55.0062 7.20697 54.221 5.50386 53.4603 3.7906C53.354 3.55744 53.3212 3.27359 53.2558 3.01001H53.264Z" fill="white"/>
<path d="M41.5264 41.2391C41.5264 41.2391 41.4528 41.3303 41.4201 41.3708C41.0847 40.4889 40.7003 39.6373 40.4222 38.7351C40.0541 37.549 39.0562 36.7785 39.0071 35.3897C39.7678 34.3252 40.5203 33.2506 41.2974 32.1862C42.8515 30.0674 44.4056 27.9588 45.9679 25.8502C46.0906 25.688 46.2623 25.5866 46.4096 25.465C47.3666 25.5157 47.5138 25.7083 47.7183 26.7018C47.8328 27.2492 47.9964 27.8878 48.3154 28.2528C48.7326 28.7394 49.0679 29.1956 49.0843 29.9154C49.0925 30.26 49.0925 30.6149 49.1006 30.9595C46.9085 33.9603 44.7082 36.9711 42.5079 39.9617C42.2871 40.2658 42.0253 40.5294 41.7881 40.8031C41.7472 40.8741 41.7145 40.9552 41.6736 41.0262C41.6736 41.0667 41.6491 41.0971 41.6164 41.1174C41.5918 41.1579 41.5591 41.1884 41.5346 41.2289L41.5264 41.2391Z" fill="white"/>
<path d="M28.7827 19.8281C27.1386 19.8281 25.5027 19.8281 23.8586 19.8281C23.8423 19.595 23.875 19.3314 23.7932 19.1388C23.237 17.831 22.6644 16.5436 22.0918 15.2561C21.3066 13.4719 20.5132 11.6877 19.7116 9.92371C19.5889 9.65 19.3681 9.45738 19.1963 9.22422V3.02002C19.8915 3.02002 20.5541 3.02002 21.2084 3.02002C21.2657 3.24305 21.2902 3.47621 21.372 3.67896C22.4845 6.25391 23.5969 8.81871 24.7338 11.3734C24.832 11.5964 25.0692 11.7181 25.2409 11.8904C25.2573 12.3871 25.2818 12.894 25.2982 13.4212C25.609 13.4617 25.8626 13.4921 26.1243 13.5226C26.5579 14.5262 26.9995 15.5197 27.4249 16.5233C27.8829 17.6283 28.3246 18.7434 28.7745 19.8484L28.7827 19.8281Z" fill="white"/>
<path d="M107.772 56.1514C111.052 56.1514 114.332 56.1514 117.612 56.1514C117.653 56.344 117.669 56.567 117.743 56.7393C118.275 57.966 118.831 59.1724 119.354 60.399C119.641 61.0782 119.87 61.7879 120.123 62.4874C116.933 62.4874 113.743 62.4874 110.553 62.4874C110.382 62.2035 110.21 61.9095 110.046 61.6257C110.046 61.5648 110.046 61.504 110.038 61.4432C109.915 61.2404 109.793 61.0478 109.67 60.8451C109.621 60.6322 109.58 60.4091 109.531 60.1963C109.449 60.105 109.375 60.0036 109.294 59.9124C109.294 59.8009 109.285 59.6894 109.277 59.5677C109.073 59.2129 108.868 58.8581 108.664 58.5033C108.369 57.7227 108.075 56.9421 107.78 56.1615L107.772 56.1514Z" fill="white"/>
<path d="M112.565 66.6337C115.764 66.6337 118.954 66.6337 122.152 66.6337C122.872 68.276 123.608 69.9182 124.311 71.5707C124.499 72.0167 124.638 72.5033 124.794 72.9697C121.555 72.9697 118.324 72.9697 115.085 72.9697C114.741 72.1181 114.398 71.2767 114.062 70.4251C113.555 69.1579 113.056 67.8907 112.557 66.6337H112.565Z" fill="white"/>
<path d="M56.634 11.2317H57.2392C56.7894 12.3266 57.591 12.9652 57.91 13.7661C58.7116 15.8139 59.5949 17.8008 60.4456 19.8182C57.5828 19.8182 54.72 19.8182 51.8653 19.8182C51.5218 18.8552 51.3091 17.7907 50.8183 16.9696C50.1803 15.895 49.9595 14.6683 49.5914 13.4924C51.1864 13.4822 52.7732 13.4924 54.3601 13.4315C54.6872 13.4214 55.0553 13.168 55.3171 12.8943C55.7915 12.3874 56.1923 11.7893 56.6258 11.2216L56.634 11.2317Z" fill="white"/>
<path d="M79.5039 62.4772C76.7228 62.4772 73.95 62.4772 71.169 62.4772C71.0381 62.0514 70.9317 61.6155 70.7763 61.1999C70.1547 59.517 69.5249 57.8342 68.8951 56.1514C71.5861 56.1514 74.2772 56.1514 76.9764 56.1514C77.0909 56.4758 77.1809 56.8204 77.3199 57.1347C77.9743 58.6249 78.6532 60.105 79.2994 61.5952C79.4139 61.8588 79.4384 62.1832 79.5039 62.4772Z" fill="white"/>
<path d="M53.264 3.01014C53.3294 3.27371 53.3621 3.55757 53.4685 3.79073C54.2292 5.50398 55.0144 7.20709 55.7833 8.91021C55.8405 9.042 55.8732 9.19406 55.9141 9.34613C53.0513 9.34613 50.1885 9.34613 47.3338 9.34613C46.8267 8.07893 46.3277 6.80159 45.8043 5.5344C45.4689 4.71325 44.929 4.01376 44.929 3.01014C46.3605 3.01014 47.7919 3.01014 49.2151 3.01014C49.2151 3.77045 49.4114 4.38885 50.1149 4.88559C50.0576 4.14555 50.0167 3.57784 49.9758 3C51.0719 3 52.1597 3 53.2558 3L53.264 3.01014Z" fill="white"/>
<path d="M100.452 66.6337C103.184 66.6337 105.924 66.6337 108.656 66.6337C108.697 66.8871 108.697 67.1608 108.787 67.3737C109.204 68.3266 109.654 69.2593 110.087 70.2021C110.504 71.1145 110.905 72.0471 111.306 72.9697C108.574 72.9697 105.834 72.9697 103.102 72.9697C103.094 72.8683 103.102 72.7466 103.069 72.6655C102.292 70.932 101.499 69.2086 100.722 67.4852C100.607 67.2217 100.542 66.9175 100.46 66.6337H100.452Z" fill="white"/>
<path d="M73.3202 66.6337C75.9703 66.6337 78.6205 66.6337 81.2706 66.6337C81.5896 67.3534 81.9168 68.0631 82.2195 68.793C82.792 70.1818 83.3564 71.5808 83.9208 72.9697C81.2297 72.9697 78.5305 72.9697 75.8394 72.9697C75.8394 72.7264 75.9212 72.4324 75.8394 72.2296C75.6513 71.7633 75.3732 71.3578 75.1687 70.9016C74.5389 69.4823 73.9254 68.0529 73.312 66.6235L73.3202 66.6337Z" fill="white"/>
<path d="M106.504 62.4772C103.895 62.4772 101.286 62.4772 98.6767 62.4772C98.6194 62.1528 98.6194 61.798 98.5049 61.5141C97.736 59.7198 96.9426 57.9356 96.1574 56.1514C98.7666 56.1514 101.376 56.1514 103.985 56.1514C104.018 56.4352 103.985 56.7596 104.092 57.0029C104.394 57.7328 104.746 58.4323 105.065 59.1622C105.556 60.2672 106.03 61.3722 106.504 62.4874V62.4772Z" fill="white"/>
<path d="M66.523 24.2684C65.7705 23.8223 65.4924 22.8897 65.1243 22.0888C64.1673 20.0512 63.2103 18.0034 62.4087 15.8643C61.5253 13.5124 60.2738 11.4241 59.3659 9.09243C58.7034 7.38932 57.8772 5.78758 57.1574 4.12502C57.0184 3.80061 57.002 3.38497 56.9284 3.02002C57.6891 3.06057 58.4416 3.11125 59.2023 3.15181C59.2596 3.37483 59.2841 3.61813 59.3741 3.82089C60.0857 5.43276 60.7973 7.04464 61.5417 8.63624C62.0406 9.70068 62.605 10.7144 63.1367 11.7485C62.7768 12.2756 62.425 12.8129 61.9506 13.5124H63.8565C64.2 14.4248 64.519 15.3575 64.9034 16.2394C65.5987 17.8108 66.3348 19.3517 67.0465 20.9129C67.2918 21.4501 67.2673 22.2916 68.0362 22.2206C67.5291 22.91 67.0219 23.5993 66.5148 24.2785L66.523 24.2684Z" fill="white"/>
<path d="M61.419 21.8558C62.2287 23.5894 63.0467 25.3229 63.8483 27.0564C63.9301 27.2389 63.9464 27.4721 63.9955 27.6748C62.6377 29.5503 61.2717 31.4359 59.9139 33.3113C59.8076 33.4634 59.6767 33.5952 59.554 33.7371C59.2514 33.4532 58.8506 33.2403 58.6625 32.8754C58.0735 31.7197 57.5828 30.4829 57.0184 29.307C56.8875 29.0231 56.6176 28.8406 56.4049 28.6176C58.0735 26.3671 59.7422 24.1165 61.4108 21.866L61.419 21.8558Z" fill="white"/>
<path d="M68.9032 56.1514C69.533 57.8342 70.1629 59.5069 70.7845 61.1999C70.9399 61.6155 71.0462 62.0514 71.1771 62.4772C68.9032 62.4772 66.6293 62.4772 64.3636 62.4772C64.1018 61.7777 63.8483 61.0681 63.5702 60.3686C63.3902 59.9124 63.1694 59.4765 62.9812 59.0102C62.5968 58.0572 62.2205 57.1043 61.8443 56.1514C64.2 56.1514 66.5557 56.1514 68.9114 56.1514H68.9032Z" fill="white"/>
<path d="M49.5996 13.5026C49.9677 14.6785 50.1885 15.9052 50.8265 16.9798C51.3173 17.8009 51.5381 18.8755 51.8735 19.8284C49.6405 19.8284 47.4156 19.8284 45.1826 19.8284C45.0845 19.4229 45.0436 18.9667 44.88 18.6119C44.1275 17.0203 43.3422 15.4591 42.5734 13.8777C42.5243 13.7763 42.5488 13.6242 42.5325 13.5026C44.8882 13.5026 47.2439 13.5026 49.5996 13.5026Z" fill="white"/>
<path d="M73.3202 66.6337C73.9418 68.0631 74.5471 69.4925 75.1769 70.9117C75.3814 71.3679 75.6595 71.7734 75.8476 72.2397C75.9294 72.4324 75.8476 72.7264 75.8476 72.9798C73.6637 72.9798 71.4716 72.9798 69.2877 72.9798C69.2795 72.8277 69.304 72.6453 69.2468 72.5236C68.7724 71.52 68.2489 70.5569 67.8153 69.533C67.4146 68.6004 67.1119 67.6069 66.7684 66.6438C68.9523 66.6438 71.1444 66.6438 73.3283 66.6438L73.3202 66.6337Z" fill="white"/>
<path d="M44.9291 3.01014C44.9291 4.01376 45.4689 4.71325 45.8043 5.5344C46.3196 6.80159 46.8185 8.07893 47.3338 9.34613C45.1008 9.34613 42.876 9.34613 40.643 9.34613C40.5612 9.05214 40.5203 8.74801 40.4058 8.47429C39.7678 6.96379 39.1052 5.47357 38.4754 3.95293C38.3527 3.66908 38.32 3.3244 38.2464 3C40.4794 3 42.7042 3 44.9372 3L44.9291 3.01014Z" fill="white"/>
<path d="M56.4131 28.6076C56.6176 28.8407 56.8875 29.0232 57.0266 29.2969C57.5909 30.4729 58.0817 31.7097 58.6706 32.8653C58.8588 33.2404 59.2596 33.4432 59.5622 33.727C58.1717 35.6126 56.7894 37.4881 55.3988 39.3737C55.1289 39.029 54.7772 38.735 54.5972 38.3194C54.0901 37.1738 53.6321 35.9877 53.1985 34.7915C53.0922 34.5076 53.1413 34.1528 53.0922 33.8284C53.0677 33.6865 52.9613 33.575 52.8959 33.4432C54.0738 31.8212 55.2434 30.2093 56.4213 28.5873L56.4131 28.6076Z" fill="white"/>
<path d="M122.904 56.1514C123.747 56.1514 124.589 56.1514 125.424 56.1514C125.563 56.638 125.653 57.155 125.849 57.601C126.577 59.2636 127.346 60.9059 128.082 62.5583C129.145 64.9508 130.176 67.3534 131.247 69.7357C131.427 70.1412 131.73 70.4758 131.975 70.8306C131.975 70.9117 131.984 70.9827 131.992 71.0638C132.019 72.4492 131.471 73.0845 130.348 72.9696C130.331 72.8378 130.348 72.6959 130.299 72.5945C129.374 70.5062 128.458 68.4178 127.509 66.3498C127.362 66.0254 127.084 65.8023 126.871 65.5286C126.863 64.8291 126.806 64.1296 126.847 63.4302C126.888 62.7104 126.7 62.4164 126.119 62.5279C125.98 62.5583 125.833 62.5076 125.685 62.4874C124.761 60.3787 123.837 58.2701 122.913 56.1615L122.904 56.1514Z" fill="white"/>
<path d="M49.0924 30.9493C49.0924 30.6046 49.0924 30.2498 49.0761 29.9051C49.0515 29.1752 48.7244 28.7191 48.3072 28.2426C47.9882 27.8776 47.8246 27.2491 47.7101 26.6915C47.5138 25.698 47.3584 25.5054 46.4014 25.4547C47.0639 24.5018 47.7183 23.5387 48.389 22.6061C48.4544 22.5148 48.6262 22.5351 48.7489 22.5351C50.8674 22.5351 52.9859 22.5351 55.3334 22.5351C53.174 25.4446 51.1291 28.202 49.0843 30.9493H49.0924Z" fill="white"/>
<path d="M29.3798 65.3462C29.4943 65.3867 29.6988 65.4172 29.707 65.4881C29.9278 67.2014 30.9994 68.3773 31.4983 69.9182C31.6946 70.5164 31.9236 71.1043 32.1527 71.6822C32.3244 72.1282 32.5208 72.554 32.7089 72.9899C29.7724 72.9899 26.8278 72.9899 23.8096 72.9899C23.9323 72.7466 23.9977 72.5439 24.1204 72.3817C25.6091 70.3643 27.0977 68.3469 28.5864 66.3397C28.7255 66.1471 28.8972 65.995 29.0526 65.8227C29.0935 65.7618 29.1263 65.6909 29.1672 65.63C29.2408 65.5388 29.3144 65.4476 29.388 65.3462H29.3798Z" fill="white"/>
<path d="M131.975 70.8306C131.73 70.4656 131.427 70.1412 131.247 69.7357C130.176 67.3534 129.145 64.9508 128.082 62.5583C127.346 60.8958 126.577 59.2636 125.849 57.601C125.653 57.155 125.563 56.638 125.424 56.1514C126.266 56.1514 127.109 56.1514 127.951 56.1514C128 56.3237 128.041 56.5062 128.107 56.6582C129.194 59.1217 130.274 61.5851 131.378 64.0485C131.542 64.4135 131.779 64.7176 131.984 65.0522C131.984 66.9783 131.984 68.9044 131.984 70.8407L131.975 70.8306Z" fill="white"/>
<path d="M38.7617 44.9595C37.6329 46.5004 36.5042 48.0413 35.3754 49.5822C34.5656 47.5851 33.7558 45.5981 32.9461 43.601C33.9931 42.1818 35.04 40.7727 36.087 39.3534C36.2179 39.7792 36.2997 40.2455 36.496 40.6105C37.1912 41.8878 37.9274 43.1144 38.6308 44.3715C38.7208 44.5236 38.7208 44.7567 38.7617 44.9493V44.9595Z" fill="white"/>
<path d="M24.6193 54.9146C24.7829 55.6749 24.8484 56.5062 25.1265 57.1955C25.7399 58.7263 26.4679 60.1861 27.1223 61.6865C27.2286 61.9196 27.2204 62.2238 27.2695 62.4975C24.5866 62.4975 21.8955 62.4975 19 62.4975C20.9385 59.882 22.7789 57.3983 24.6193 54.9044V54.9146Z" fill="white"/>
<path d="M38.1891 53.4445C39.3834 51.8225 40.5694 50.2005 41.7636 48.5785C41.6982 49.0144 41.51 49.4909 41.5918 49.8862C41.69 50.383 42.009 50.8088 42.2216 51.2751C42.786 52.5119 43.3422 53.7588 43.8984 55.0057C42.9333 56.3135 41.9599 57.6212 40.9947 58.9188C40.8802 58.7972 40.7166 58.6958 40.6512 58.5336C40.3649 57.8544 40.1441 57.1346 39.8251 56.4757C39.3097 55.4315 38.7454 54.438 38.1973 53.4243L38.1891 53.4445Z" fill="white"/>
<path d="M79.5039 62.4772C79.4384 62.1832 79.4139 61.8588 79.2994 61.5952C78.6532 60.105 77.9743 58.6249 77.3199 57.1347C77.1809 56.8204 77.0909 56.4758 76.9764 56.1514H81.5242C81.9414 57.2057 82.3504 58.2701 82.7757 59.3244C83.201 60.3787 83.6264 61.4229 84.0517 62.4772C82.5385 62.4772 81.0171 62.4772 79.5039 62.4772Z" fill="white"/>
<path d="M38.1892 53.4446C38.7372 54.4583 39.3098 55.4518 39.8169 56.496C40.1359 57.1448 40.3567 57.8747 40.643 58.5539C40.7085 58.7161 40.872 58.8074 40.9866 58.9391C39.9069 60.3584 38.8353 61.7777 37.7556 63.1969C37.772 62.0007 37.044 61.2302 36.6596 60.2672C36.1525 58.9898 35.5554 57.7733 35.0073 56.5264C34.9583 56.425 34.9746 56.273 34.9583 56.1513C35.8498 56.2932 36.5124 55.9181 37.0195 54.9753C37.3303 54.4076 37.7884 53.9616 38.181 53.4547L38.1892 53.4446Z" fill="white"/>
<path d="M19.1963 9.21436C19.3681 9.44752 19.5889 9.65028 19.7116 9.91386C20.5214 11.6879 21.3066 13.4721 22.0918 15.2462C22.6644 16.5337 23.237 17.8313 23.7932 19.1289C23.875 19.3215 23.8423 19.5851 23.8586 19.8183C22.329 19.8183 20.8077 19.8183 19.1963 19.8183V9.20422V9.21436Z" fill="white"/>
<path d="M32.9379 43.6112C33.7477 45.6083 34.5574 47.5953 35.3672 49.5924C34.5656 50.6872 33.764 51.772 32.9706 52.8668C32.4062 53.1304 32.1445 52.7148 31.9155 52.1775C31.2611 50.6872 30.5904 49.197 29.9278 47.7169C30.9339 46.3484 31.94 44.9798 32.9379 43.6213V43.6112Z" fill="white"/>
<path d="M38.7617 44.9594C38.7208 44.7668 38.7208 44.5336 38.6308 44.3816C37.9274 43.1245 37.1831 41.8877 36.496 40.6205C36.2997 40.2556 36.2179 39.7892 36.087 39.3635C37.0604 38.0354 38.0419 36.7074 39.0153 35.3895C39.0644 36.7784 40.0623 37.5488 40.4303 38.7349C40.7084 39.6372 41.0929 40.4989 41.4282 41.3707C40.5367 42.5669 39.6533 43.7632 38.7617 44.9594Z" fill="white"/>
<path d="M45.4362 66.6235C46.7858 66.6235 48.1272 66.6235 49.4769 66.6235C49.9267 67.7691 50.3521 68.9349 50.8265 70.0703C51.2355 71.0537 51.6935 71.9965 52.127 72.9595C50.8265 72.9595 49.5178 72.9595 48.2172 72.9595C48.0455 72.6453 47.8491 72.3513 47.6937 72.0269C47.1539 70.8712 46.614 69.7155 46.1069 68.5395C45.8452 67.9313 45.657 67.2622 45.4362 66.6235Z" fill="white"/>
<path d="M45.4362 66.6235C45.6571 67.2622 45.837 67.9313 46.1069 68.5395C46.6141 69.7155 47.1539 70.8712 47.6937 72.0269C47.8492 72.3513 48.0373 72.6554 48.2172 72.9595C46.7858 72.9595 45.3544 72.9595 43.9312 72.9595C43.8821 71.4186 42.8924 70.4251 42.467 69.1072C42.1971 68.2658 41.8454 67.4548 41.5346 66.6235C42.8351 66.6235 44.1438 66.6235 45.4444 66.6235H45.4362Z" fill="white"/>
<path d="M25.2491 11.8704C25.0774 11.698 24.8402 11.5764 24.742 11.3534C23.6051 8.7987 22.4926 6.22375 21.3802 3.65894C21.2984 3.45619 21.2657 3.22303 21.2166 3C22.4354 3 23.6541 3 24.8729 3C25.2491 3.99348 25.5927 5.00724 26.0017 5.98045C26.4761 7.11586 27.0159 8.22085 27.523 9.34613H25.2491V11.8704Z" fill="white"/>
<path d="M111.298 72.9697C110.889 72.0471 110.488 71.1246 110.079 70.2021C109.654 69.2593 109.195 68.3266 108.778 67.3737C108.688 67.1608 108.688 66.877 108.647 66.6337C109.948 66.6337 111.257 66.6337 112.557 66.6337C113.056 67.9009 113.555 69.1681 114.062 70.4251C114.398 71.2767 114.741 72.1181 115.085 72.9697C113.825 72.9697 112.557 72.9697 111.298 72.9697Z" fill="white"/>
<path d="M106.504 62.4772C106.022 61.3722 105.547 60.2571 105.065 59.1521C104.746 58.4323 104.386 57.7328 104.091 56.9928C103.993 56.7495 104.018 56.4352 103.985 56.1412C105.245 56.1412 106.513 56.1412 107.772 56.1412C108.067 56.9218 108.361 57.7024 108.656 58.483C108.86 58.8378 109.065 59.1926 109.269 59.5475C109.269 59.659 109.277 59.7705 109.285 59.8921C109.367 59.9834 109.441 60.0848 109.523 60.176C109.572 60.3889 109.613 60.6119 109.662 60.8248C109.784 61.0276 109.907 61.2202 110.03 61.4229C110.03 61.4837 110.03 61.5446 110.038 61.6054C110.079 61.8994 110.12 62.1832 110.153 62.4772C108.934 62.4772 107.715 62.4772 106.496 62.4671L106.504 62.4772Z" fill="white"/>
<path d="M48.4708 56.1513C49.2315 57.9051 50.0085 59.6589 50.7611 61.4127C50.9083 61.7472 51.0064 62.1223 51.121 62.4771C49.7795 62.4771 48.4299 62.4771 47.0885 62.4771C46.9576 61.9399 46.8594 61.3823 46.6795 60.8855C46.2296 59.669 45.3953 58.6654 45.3217 57.2259C45.747 56.354 46.3278 55.9485 47.1703 56.1107C47.5956 56.1918 48.0373 56.1412 48.4708 56.1513Z" fill="white"/>
<path d="M52.127 72.9697C51.6935 72.0066 51.2355 71.0537 50.8265 70.0804C50.3521 68.945 49.9268 67.7792 49.4769 66.6337C50.6547 66.6337 51.8326 66.6337 53.0104 66.6337C53.084 66.8972 53.1331 67.1811 53.2395 67.4244C53.9265 68.9653 54.63 70.4859 55.3089 72.0269C55.4316 72.3107 55.4643 72.6554 55.5379 72.9798C54.401 72.9798 53.264 72.9798 52.127 72.9798V72.9697Z" fill="white"/>
<path d="M28.7827 19.8284C28.3328 18.7234 27.8911 17.6083 27.4331 16.5033C27.0077 15.4997 26.566 14.496 26.1325 13.5026C27.3922 13.5026 28.6518 13.5026 29.9196 13.5026C29.9687 13.8067 29.9524 14.1412 30.0669 14.3947C30.7948 16.0471 31.5474 17.6792 32.2917 19.3317C32.3653 19.4837 32.398 19.6662 32.4471 19.8386C31.2284 19.8386 30.0096 19.8386 28.7909 19.8386L28.7827 19.8284Z" fill="white"/>
<path d="M43.8984 55.0159C43.3422 53.769 42.786 52.5221 42.2216 51.2853C42.009 50.819 41.69 50.3932 41.5918 49.8965C41.51 49.5011 41.6981 49.0246 41.7636 48.5887C42.4834 47.6054 43.195 46.622 43.9148 45.6387C43.9966 47.504 44.8309 48.9739 45.5834 50.4743C45.7879 50.8899 46.1887 51.1535 46.4995 51.4779C45.6325 52.6539 44.7655 53.84 43.8984 55.0159Z" fill="white"/>
<path d="M83.9208 72.9595C83.3564 71.5707 82.7921 70.1717 82.2195 68.7828C81.9168 68.0529 81.5897 67.3433 81.2707 66.6235C82.4485 66.6235 83.6264 66.6235 84.8042 66.6235C85.2704 67.7995 85.753 68.9755 86.2111 70.1615C86.5628 71.0841 86.8736 72.0269 87.209 72.9595C86.1129 72.9595 85.0251 72.9595 83.929 72.9595H83.9208Z" fill="white"/>
<path d="M97.417 72.9697C96.2801 72.9697 95.1513 72.9697 94.0143 72.9697C93.8835 72.5642 93.7853 72.1384 93.6217 71.7633C93.0001 70.3339 92.3539 68.9248 91.7323 67.5055C91.6177 67.2419 91.5687 66.9277 91.4951 66.6337C92.5911 66.6337 93.679 66.6337 94.775 66.6337C94.8568 66.9277 94.9059 67.2419 95.0204 67.5055C95.8138 69.3303 96.6236 71.155 97.4252 72.9697H97.417Z" fill="white"/>
<path d="M100.452 66.6337C100.542 66.9175 100.599 67.2217 100.713 67.4852C101.49 69.2188 102.284 70.9421 103.061 72.6655C103.102 72.7466 103.085 72.8683 103.094 72.9697C101.998 72.9697 100.91 72.9697 99.8136 72.9697C99.7809 72.7669 99.7891 72.5439 99.7154 72.3817C99.1838 71.155 98.6194 69.9487 98.0877 68.7119C97.7933 68.0327 97.5561 67.323 97.2861 66.6337C98.3413 66.6337 99.3883 66.6337 100.443 66.6337H100.452Z" fill="white"/>
<path d="M84.0517 62.4772C83.6264 61.4229 83.1928 60.3787 82.7757 59.3244C82.3504 58.2701 81.9414 57.2158 81.5242 56.1514C82.5712 56.1514 83.6264 56.1514 84.6733 56.1514C84.9678 56.8914 85.2541 57.6416 85.5485 58.3816C86.0966 59.7502 86.6446 61.1086 87.2008 62.4671C86.1538 62.4671 85.0987 62.4671 84.0517 62.4671V62.4772Z" fill="white"/>
<path d="M131.984 65.042C131.779 64.7075 131.542 64.4034 131.378 64.0384C130.274 61.5851 129.194 59.1217 128.107 56.6481C128.041 56.4859 128 56.3136 127.951 56.1412C129.145 56.1412 130.34 56.1412 131.526 56.121C131.885 56.121 132 56.2933 132 56.7191C131.984 59.4968 131.984 62.2643 131.984 65.042Z" fill="white"/>
<path d="M86.8245 56.1514C87.8306 56.1514 88.8449 56.1514 89.851 56.1514C89.9082 56.3947 89.9409 56.6582 90.0391 56.8813C90.6362 58.3005 91.266 59.6995 91.8549 61.1188C92.0349 61.5446 92.1167 62.0312 92.2476 62.4874H89.352C89.3111 62.2542 89.3111 62.0008 89.2293 61.8081C88.6731 60.5409 88.0924 59.2839 87.5443 58.0167C87.2826 57.4084 87.0617 56.7799 86.8327 56.1615L86.8245 56.1514Z" fill="white"/>
<path d="M68.0444 22.2107C67.2755 22.2817 67.3 21.4403 67.0546 20.903C66.343 19.3418 65.5987 17.8009 64.9116 16.2296C64.5272 15.3476 64.2082 14.4149 63.8646 13.5026C64.6253 13.5026 65.3778 13.5026 66.1385 13.5026C66.1876 13.756 66.1876 14.0297 66.2776 14.2426C66.8092 15.4794 67.3655 16.6959 67.9217 17.9225C68.3388 18.8349 68.756 19.7473 69.1731 20.6597C68.7969 21.1767 68.4206 21.6836 68.0444 22.2006V22.2107Z" fill="white"/>
<path d="M63.1367 11.7385C62.605 10.7044 62.0406 9.68054 61.5417 8.62623C60.7973 7.03463 60.0857 5.42276 59.3741 3.81088C59.2841 3.60813 59.2596 3.36483 59.2023 3.1418C59.9139 3.10125 60.6337 3.05056 61.3454 3.01001C61.419 3.33441 61.4435 3.67909 61.5662 3.96294C62.2942 5.65592 63.0303 7.3489 63.7992 9.01146C63.9383 9.31559 64.2736 9.46765 64.519 9.69068C64.061 10.3699 63.5947 11.0491 63.1367 11.7283V11.7385Z" fill="white"/>
<path d="M41.5264 66.6337C41.8372 67.4548 42.1889 68.2658 42.4589 69.1174C42.8842 70.4454 43.8739 71.4287 43.923 72.9697C43.0805 72.9697 42.238 72.9697 41.4037 72.9697C41.1092 72.1789 40.8393 71.3781 40.5121 70.6076C39.9396 69.2694 39.3425 67.9516 38.7535 66.6235C39.6778 66.6235 40.6021 66.6235 41.5264 66.6235V66.6337Z" fill="white"/>
<path d="M97.2943 66.6337C97.5561 67.323 97.8014 68.0327 98.0959 68.7119C98.6276 69.9385 99.1838 71.155 99.7236 72.3817C99.7972 72.554 99.7891 72.777 99.8218 72.9697C99.0202 72.9697 98.2268 72.9697 97.4252 72.9697C96.6236 71.1449 95.8138 69.3303 95.0204 67.5055C94.9059 67.2419 94.8568 66.9277 94.775 66.6337C95.6175 66.6337 96.46 66.6337 97.2943 66.6337Z" fill="white"/>
<path d="M87.2008 72.9697C86.8736 72.037 86.5546 71.0942 86.2029 70.1717C85.753 68.9856 85.2704 67.8096 84.796 66.6337C85.6385 66.6337 86.481 66.6337 87.3153 66.6337C87.8224 67.9009 88.3378 69.1681 88.8285 70.4454C89.1475 71.2767 89.4256 72.1282 89.7201 72.9697C88.8776 72.9697 88.0351 72.9697 87.2008 72.9697Z" fill="white"/>
<path d="M45.3135 57.2361C45.3953 58.6655 46.2214 59.6691 46.6713 60.8958C46.8594 61.4026 46.9494 61.9602 47.0803 62.4874C45.2317 62.4874 43.375 62.4874 41.3301 62.4874C42.7288 60.6423 44.013 58.9392 45.3053 57.2361H45.3135Z" fill="white"/>
<path d="M89.7283 72.9595C89.4338 72.1181 89.1557 71.2665 88.8367 70.4353C88.3459 69.1579 87.8306 67.8907 87.3235 66.6235C88.0351 66.6235 88.7549 66.6235 89.4665 66.6235C90.219 68.3976 90.9716 70.1818 91.7077 71.966C91.8386 72.2803 91.8958 72.625 91.994 72.9595C91.2333 72.9595 90.4808 72.9595 89.7201 72.9595H89.7283Z" fill="white"/>
<path d="M126.871 65.5186C127.084 65.7923 127.362 66.0254 127.509 66.3397C128.458 68.4078 129.374 70.4961 130.299 72.5845C130.348 72.6858 130.331 72.8379 130.348 72.9595C129.636 72.9595 128.916 72.9595 128.205 72.9595C127.747 71.814 127.297 70.6583 126.839 69.5128C126.454 68.5497 126.07 67.5866 125.685 66.6236H126.781C126.814 66.2079 126.839 65.8632 126.871 65.5186Z" fill="white"/>
<path d="M96.1574 56.1514C96.9426 57.9356 97.736 59.7097 98.5049 61.5142C98.6276 61.798 98.6276 62.1528 98.6766 62.4772C97.965 62.4772 97.2452 62.4772 96.5336 62.4772C96.4764 62.1528 96.4763 61.7879 96.3537 61.5142C95.8956 60.5004 95.3803 59.5272 94.9222 58.5134C94.5787 57.7531 94.3088 56.9421 94.0061 56.1514C94.7178 56.1514 95.4376 56.1514 96.1492 56.1514H96.1574Z" fill="white"/>
<path d="M94.0143 56.1514C94.317 56.9421 94.5869 57.7531 94.9304 58.5134C95.3803 59.5272 95.9038 60.5004 96.3618 61.5142C96.4845 61.7879 96.4845 62.1528 96.5418 62.4772C95.8302 62.4772 95.1104 62.4772 94.3988 62.4772C93.8916 61.2202 93.3927 59.9428 92.8692 58.6959C92.5093 57.8342 92.1249 57.0029 91.7486 56.1514C92.5093 56.1514 93.2618 56.1514 94.0225 56.1514H94.0143Z" fill="white"/>
<path d="M67.8971 13.5026C68.9032 13.5026 69.9093 13.5026 70.9154 13.5026C71.2507 14.2325 71.5861 14.9522 71.9051 15.6821C72.0278 15.966 72.0932 16.2803 72.1832 16.5742C71.5207 17.4664 70.8663 18.3585 70.2038 19.2506C70.2447 18.7133 70.1792 18.247 69.7457 17.9631C69.6721 17.9124 69.6394 17.7502 69.5903 17.6387C69.2386 16.8784 68.8705 16.1181 68.5515 15.3375C68.3061 14.7495 68.118 14.1108 67.9053 13.5026H67.8971Z" fill="white"/>
<path d="M86.8245 56.1514C87.0617 56.7698 87.2744 57.4084 87.5361 58.0065C88.0842 59.2839 88.6731 60.5308 89.2211 61.798C89.3029 61.9906 89.3029 62.2441 89.3438 62.4671C88.6322 62.4671 87.9124 62.4671 87.2008 62.4671C86.6527 61.1086 86.0965 59.7401 85.5485 58.3816C85.2541 57.6416 84.9678 56.8914 84.6733 56.1514C85.3849 56.1514 86.1047 56.1514 86.8163 56.1514H86.8245Z" fill="white"/>
<path d="M67.6763 5.47344C66.9565 6.46693 66.2367 7.45027 65.5251 8.44375C65.4269 8.33224 65.296 8.241 65.2306 8.09908C64.6417 6.8116 64.0609 5.52413 63.4965 4.22652C63.333 3.84129 63.2348 3.41551 63.1039 3.01001C64.1509 3.01001 65.1979 3.01001 66.253 3.01001C66.5475 3.68923 66.8256 4.37859 67.161 5.02739C67.2673 5.23014 67.5045 5.33152 67.6845 5.47344H67.6763Z" fill="white"/>
<path d="M122.904 56.1514C123.829 58.26 124.753 60.3686 125.677 62.4772C124.925 62.4772 124.164 62.4772 123.412 62.4772C123.035 61.4837 122.675 60.47 122.283 59.4866C121.833 58.3614 121.358 57.2564 120.892 56.1412C121.563 56.1412 122.234 56.1412 122.913 56.1412L122.904 56.1514Z" fill="white"/>
<path d="M91.7404 56.1514C92.1167 57.0029 92.5093 57.8342 92.861 58.6959C93.3845 59.953 93.8835 61.2202 94.3906 62.4772C93.6708 62.4772 92.9592 62.4772 92.2394 62.4772C92.1085 62.021 92.0185 61.5344 91.8468 61.1087C91.2578 59.6894 90.628 58.2904 90.0309 56.8711C89.9327 56.6481 89.9082 56.3845 89.8428 56.1412C90.4726 56.1412 91.1024 56.1412 91.7404 56.1412V56.1514Z" fill="white"/>
<path d="M92.0022 72.9595C91.9122 72.625 91.8468 72.2702 91.7159 71.966C90.9797 70.1818 90.219 68.4077 89.4747 66.6235C90.1454 66.6235 90.8161 66.6235 91.495 66.6235C91.5768 66.9175 91.6177 67.2216 91.7322 67.4954C92.3539 68.9248 93.0001 70.3339 93.6217 71.7531C93.7853 72.1384 93.8835 72.554 94.0143 72.9595C93.3436 72.9595 92.6647 72.9595 91.994 72.9595H92.0022Z" fill="white"/>
<path d="M125.677 66.6234C126.062 67.5865 126.446 68.5496 126.831 69.5126C127.289 70.6582 127.747 71.8139 128.197 72.9594C127.567 72.9594 126.937 72.9797 126.307 72.9797C126.242 72.7161 126.209 72.4323 126.111 72.189C125.342 70.3236 124.557 68.4685 123.78 66.6133C124.409 66.6133 125.039 66.6133 125.669 66.6133L125.677 66.6234Z" fill="white"/>
<path d="M67.8971 13.5026C68.1098 14.1108 68.2979 14.7495 68.5433 15.3375C68.8705 16.1181 69.2386 16.8682 69.5821 17.6387C69.6312 17.7502 69.6639 17.9124 69.7375 17.9631C70.1792 18.247 70.2447 18.7133 70.1956 19.2506C69.852 19.727 69.5003 20.1934 69.1568 20.6698C68.7396 19.7575 68.3143 18.8451 67.9053 17.9327C67.3491 16.706 66.8011 15.4895 66.2612 14.2527C66.1631 14.0399 66.1631 13.756 66.1222 13.5127C66.7111 13.5127 67.3 13.5127 67.889 13.5127L67.8971 13.5026Z" fill="white"/>
<path d="M63.1039 3.01001C63.2348 3.41551 63.3248 3.84129 63.4965 4.22652C64.0609 5.52413 64.6417 6.8116 65.2306 8.09908C65.296 8.241 65.4269 8.33224 65.5251 8.44375C65.1897 8.8594 64.8544 9.27504 64.5108 9.69068C64.2654 9.46765 63.9301 9.30545 63.791 9.01146C63.014 7.3489 62.286 5.65592 61.558 3.96294C61.4353 3.67909 61.4108 3.32427 61.3372 3.01001C61.9261 3.01001 62.515 3.01001 63.1039 3.01001Z" fill="white"/>
<path d="M120.123 62.4874C119.87 61.7879 119.641 61.0782 119.354 60.399C118.831 59.1724 118.275 57.966 117.743 56.7393C117.669 56.567 117.653 56.344 117.612 56.1514C118.201 56.1514 118.79 56.1514 119.379 56.1514C119.714 56.9928 120.042 57.8443 120.377 58.6858C120.884 59.953 121.391 61.2202 121.898 62.4874H120.123Z" fill="white"/>
<path d="M123.788 66.6337C124.565 68.4888 125.35 70.344 126.119 72.2093C126.217 72.4526 126.25 72.7365 126.315 73.0001C125.808 73.0001 125.309 72.9798 124.802 72.9697C124.638 72.5033 124.508 72.0167 124.319 71.5707C123.608 69.9182 122.88 68.276 122.16 66.6337C122.708 66.6337 123.256 66.6337 123.796 66.6337H123.788Z" fill="white"/>
<path d="M121.898 62.4874C121.391 61.2202 120.884 59.953 120.377 58.6858C120.042 57.8443 119.714 56.9928 119.379 56.1514C119.886 56.1514 120.385 56.1514 120.892 56.1514C121.358 57.2665 121.833 58.3715 122.283 59.4968C122.675 60.4801 123.035 61.4939 123.412 62.4874C122.904 62.4874 122.405 62.4874 121.898 62.4874Z" fill="white"/>
<path d="M72.1914 16.5742C72.1014 16.2803 72.036 15.9559 71.9133 15.6821C71.5943 14.9421 71.2507 14.2223 70.9236 13.5026C72.0196 13.5026 73.1075 13.5026 74.2036 13.5026C74.2526 13.533 74.3017 13.5735 74.3426 13.6039C73.6228 14.5974 72.903 15.5909 72.1914 16.5844V16.5742Z" fill="white"/>
<path d="M67.6763 5.47344C67.4963 5.33152 67.2591 5.23014 67.1528 5.02739C66.8256 4.37859 66.5475 3.67909 66.2449 3.01001C67.1692 3.01001 68.0934 3.01001 69.0259 3.01001C69.1159 3.10125 69.1977 3.19249 69.2876 3.29386C68.7478 4.02377 68.2161 4.75367 67.6763 5.48358V5.47344Z" fill="white"/>
<path d="M49.984 3.01001C50.0249 3.57771 50.0658 4.14542 50.1231 4.8956C49.4278 4.38872 49.2151 3.78047 49.2233 3.02015C49.4769 3.02015 49.7304 3.02015 49.984 3.02015V3.01001Z" fill="white"/>
<path d="M110.161 62.4873C110.12 62.1933 110.079 61.9095 110.046 61.6155C110.218 61.8993 110.39 62.1933 110.553 62.4772C110.422 62.4772 110.292 62.4772 110.161 62.4772V62.4873Z" fill="white"/>
<path d="M69.2877 3.28385C69.1977 3.19261 69.1159 3.10138 69.0259 3C69.1404 3.01014 69.2631 3.02027 69.3776 3.03041C69.3449 3.11151 69.3204 3.19261 69.2877 3.27372V3.28385Z" fill="white"/>
<path d="M74.3426 13.5925C74.2935 13.5625 74.2444 13.5225 74.2036 13.4925C74.2608 13.4925 74.3181 13.4925 74.3753 13.4925C74.3671 13.5325 74.359 13.5725 74.3508 13.6025L74.3426 13.5925Z" fill="white"/>
<path d="M46.704 51.2132C46.704 51.2132 46.7373 51.1532 46.7706 51.1332C46.7706 51.1832 46.7457 51.2132 46.704 51.2132Z" fill="white"/>
<path d="M41.5264 41.2374C41.5264 41.2374 41.5847 41.1674 41.6097 41.1274C41.5847 41.1674 41.5514 41.1974 41.5264 41.2374Z" fill="white"/>
</svg>
