<svg width="531" height="152" viewBox="0 0 531 152" fill="none" xmlns="http://www.w3.org/2000/svg">
<path d="M527.4 78.1316L526.3 78.1116L523.82 78.1716C523.227 78.1849 522.92 77.8949 522.9 77.3016L522.82 75.4116C522.8 74.8182 523.087 74.5216 523.68 74.5216L525.74 74.5416C526.16 74.5482 526.37 74.3382 526.37 73.9116L526.36 4.22155C526.36 3.77489 526.137 3.57489 525.69 3.62155L523.78 3.81155C523.387 3.85155 523.13 3.68489 523.01 3.31155L522.9 2.96155C522.787 2.61489 522.547 2.44155 522.18 2.44155L451.33 2.74155L418.82 3.17155C418.5 3.17822 418.187 3.23489 417.88 3.34155C417.613 3.43489 417.3 3.48489 416.94 3.49155L416.16 2.75155C416.058 2.64994 415.937 2.56938 415.803 2.51447C415.67 2.45956 415.526 2.43138 415.38 2.43155L269.25 2.46155C268.803 2.46155 268.513 2.65155 268.38 3.03155L268.27 3.34155C268.163 3.62822 267.96 3.77155 267.66 3.77155H262.02C261.7 3.77155 261.447 3.63822 261.26 3.37155C261.167 3.23155 261.1 3.08155 261.06 2.92155C260.973 2.54822 260.737 2.36155 260.35 2.36155L101.89 2.44155L100.57 2.43155H39.4601C39.8868 2.63822 39.4968 2.73822 38.2901 2.73155C38.0501 2.37822 37.8168 2.22489 37.5901 2.27155C37.4968 2.29155 37.4401 2.30155 37.4201 2.30155C27.6934 2.57489 17.9701 2.58489 8.25011 2.33155C7.97011 2.31822 7.76678 2.43822 7.64011 2.69155C7.06678 3.85155 6.11011 4.15822 4.77011 3.61155C4.66717 3.57086 4.55585 3.55591 4.44582 3.568C4.33579 3.58009 4.23038 3.61886 4.13873 3.68094C4.04709 3.74303 3.97198 3.82654 3.91994 3.92424C3.8679 4.02194 3.8405 4.13086 3.84011 4.24155C3.83345 25.5416 3.83678 46.8882 3.85011 68.2816C3.85011 68.6216 3.97011 68.8549 4.21011 68.9816L4.10011 70.9416C3.73345 71.7882 3.60678 72.6216 3.72011 73.4416C3.80011 74.0216 4.06011 74.3949 4.50011 74.5616C4.95345 74.7282 5.48345 74.6749 6.09011 74.4016C6.81011 74.5749 7.34344 75.6516 7.69011 77.6316C6.73011 77.9849 5.63011 78.1349 4.39011 78.0816C4.04345 78.0616 3.87011 78.2282 3.87011 78.5816L3.86011 147.592C3.86011 147.945 4.03345 148.162 4.38011 148.242C5.10011 148.412 6.16011 148.052 6.76011 148.332C7.12011 148.492 7.34345 148.748 7.43011 149.102C7.51678 149.442 7.73678 149.612 8.09011 149.612L83.5901 149.562L118.42 149.372L145.8 149.412L180.39 148.982C180.583 149.415 181.037 149.628 181.75 149.622C221.737 149.435 247.403 149.418 258.75 149.572C260.11 149.592 261.02 149.262 261.48 148.582C261.66 148.322 261.91 148.192 262.23 148.192L267.54 148.222C267.709 148.221 267.874 148.271 268.014 148.366C268.155 148.46 268.265 148.594 268.33 148.752C268.423 148.965 268.557 149.142 268.73 149.282C269.003 149.508 269.383 149.622 269.87 149.622C302.34 149.752 334.8 149.302 367.25 149.502C409.917 149.755 452.583 149.805 495.25 149.652C495.577 149.652 495.753 149.545 495.78 149.332L496.76 149.552L522.12 149.592C522.493 149.592 522.747 149.415 522.88 149.062L523.04 148.622C523.147 148.328 523.353 148.188 523.66 148.202L525.74 148.312C525.822 148.317 525.905 148.306 525.982 148.278C526.06 148.25 526.13 148.207 526.19 148.151C526.251 148.094 526.298 148.026 526.331 147.951C526.364 147.875 526.38 147.794 526.38 147.712L526.14 92.0816C526.387 92.8616 526.83 92.8249 527.47 91.9716L527.27 147.392C527.268 147.518 527.293 147.643 527.343 147.759C527.393 147.875 527.467 147.979 527.56 148.065C527.654 148.15 527.764 148.216 527.885 148.257C528.005 148.297 528.133 148.313 528.26 148.302L529.73 148.172C530.023 148.145 530.173 148.278 530.18 148.572L530.21 151.322C530.217 151.662 530.05 151.832 529.71 151.832L523.58 151.812C523.267 151.812 523.057 151.662 522.95 151.362L522.8 150.962C522.693 150.668 522.483 150.522 522.17 150.522H269.06C268.941 150.522 268.825 150.561 268.73 150.631C268.634 150.701 268.564 150.799 268.53 150.912L268.45 151.202C268.395 151.385 268.283 151.546 268.13 151.661C267.977 151.776 267.791 151.839 267.6 151.842L261.64 151.852C261.504 151.851 261.372 151.802 261.269 151.714C261.166 151.626 261.099 151.504 261.08 151.372L261.04 151.102C260.973 150.695 260.733 150.492 260.32 150.492L8.27011 150.512C7.89011 150.512 7.61344 150.682 7.44011 151.022L7.24011 151.402C7.11345 151.668 6.90345 151.802 6.61011 151.802L0.530112 151.852C0.460602 151.853 0.391537 151.84 0.327159 151.813C0.262782 151.787 0.204451 151.747 0.155751 151.696C0.107051 151.645 0.0690097 151.585 0.0439645 151.519C0.0189194 151.453 0.0073993 151.382 0.0101119 151.312L0.120112 148.712C0.123693 148.624 0.145285 148.538 0.183545 148.459C0.221805 148.38 0.275915 148.309 0.34251 148.252C0.409105 148.195 0.486759 148.152 0.570644 148.126C0.654529 148.1 0.742849 148.092 0.830112 148.102L2.24011 148.262C2.78011 148.328 3.05011 148.088 3.05011 147.542V78.8016C3.05011 78.2816 2.79011 78.0382 2.27011 78.0716L0.690112 78.1816C0.601109 78.1885 0.511628 78.1768 0.42742 78.1472C0.343212 78.1175 0.26614 78.0706 0.201156 78.0094C0.136172 77.9482 0.0847151 77.874 0.0500912 77.7917C0.0154673 77.7094 -0.00155718 77.6208 0.000111862 77.5316L0.0501118 75.0816C0.0514198 74.9971 0.0694301 74.9137 0.103072 74.8365C0.136713 74.7592 0.185299 74.6896 0.245939 74.6317C0.30658 74.5739 0.378036 74.529 0.456059 74.4998C0.534082 74.4705 0.617079 74.4575 0.700112 74.4616L2.48011 74.5416C2.82678 74.5616 3.00011 74.3982 3.00011 74.0516L3.06011 4.25155C3.06031 4.17583 3.04488 4.10089 3.01477 4.03141C2.98466 3.96193 2.94053 3.89942 2.88515 3.84779C2.82976 3.79616 2.76431 3.75652 2.69289 3.73136C2.62147 3.70619 2.54563 3.69605 2.47011 3.70155L0.790112 3.80155C0.270112 3.83489 0.0134452 3.59155 0.0201118 3.07155L0.0401118 0.751553C0.0467785 0.264887 0.293445 0.0248867 0.780112 0.0315534L6.58011 0.111553C6.95345 0.11822 7.21011 0.29822 7.35011 0.651553L7.49011 1.01155C7.62345 1.35155 7.87011 1.52155 8.23011 1.52155L260.26 1.56155C260.687 1.56155 260.943 1.35155 261.03 0.931553C261.07 0.73822 261.157 0.564887 261.29 0.411553C261.497 0.17822 261.757 0.0615533 262.07 0.0615533L267.37 0.0415534C267.73 0.0415534 268.003 0.19822 268.19 0.511553L268.52 1.06155C268.7 1.35489 268.963 1.50489 269.31 1.51155C290.96 1.71155 312.6 1.31155 334.24 1.49155C352.16 1.64489 370.08 1.70489 388 1.67155C432.48 1.58489 476.96 1.54822 521.44 1.56155C521.887 1.56155 522.237 1.47155 522.49 1.29155C522.723 1.11822 522.923 0.90822 523.09 0.661554C523.27 0.381554 523.523 0.234887 523.85 0.221553L529.17 0.0015534C529.837 -0.0251133 530.177 0.291553 530.19 0.951553L530.23 2.97155C530.25 3.61155 529.94 3.89489 529.3 3.82155L528.03 3.66155C527.583 3.60822 527.36 3.80489 527.36 4.25155L527.37 73.9716C527.37 74.3516 527.56 74.5416 527.94 74.5416L529.57 74.5116C529.97 74.5049 530.167 74.7016 530.16 75.1016V77.5416C530.16 78.0216 529.923 78.2182 529.45 78.1316C528.777 78.0049 528.093 78.0049 527.4 78.1316Z" fill="#F8F4EF"/>
<path d="M451.39 3L495.19 83.77C495.226 83.839 495.28 83.8966 495.347 83.9365C495.414 83.9764 495.49 83.9969 495.568 83.9959C495.646 83.9949 495.722 83.9723 495.787 83.9306C495.853 83.889 495.906 83.8299 495.94 83.76L508.55 59.02C508.575 58.9714 508.612 58.9304 508.658 58.9014C508.704 58.8724 508.757 58.8566 508.812 58.8556C508.866 58.8545 508.92 58.8684 508.967 58.8956C509.015 58.9228 509.054 58.9623 509.08 59.01L525.63 89.73C526.15 90.6967 526.407 90.6333 526.4 89.54L526.36 78.37L527.46 78.39L527.53 92.23C526.89 93.0833 526.447 93.12 526.2 92.34L496.82 149.81L495.84 149.59L417 3.75C417.36 3.74333 417.673 3.69333 417.94 3.6C418.247 3.49333 418.56 3.43667 418.88 3.43L451.39 3Z" fill="#FFB913"/>
<path d="M100.47 2L101.79 2.01L180.29 148.55L145.7 148.98L101.83 67.76C101.804 67.7151 101.766 67.6777 101.722 67.6516C101.677 67.6256 101.626 67.6118 101.575 67.6118C101.524 67.6118 101.474 67.6256 101.431 67.6516C101.388 67.6777 101.353 67.7151 101.33 67.76L88.55 92.55C88.3833 92.87 88.3833 93.1833 88.55 93.49L118.32 148.94L83.49 149.13L39.75 67.84C39.7208 67.7883 39.6781 67.7454 39.6266 67.7159C39.575 67.6864 39.5164 67.6714 39.457 67.6724C39.3976 67.6734 39.3396 67.6905 39.2891 67.7217C39.2386 67.753 39.1974 67.7973 39.17 67.85L21.51 102.02C21.4876 102.067 21.4527 102.106 21.4091 102.134C21.3655 102.163 21.3149 102.178 21.2631 102.179C21.2112 102.18 21.1601 102.167 21.1154 102.14C21.0708 102.114 21.0343 102.076 21.01 102.03L7.59 77.2C7.24333 75.22 6.71 74.1433 5.99 73.97L4 70.51L4.11 68.55L38.19 2.3C39.3967 2.30667 39.7867 2.20667 39.36 2L70.17 59.26C70.4633 59.8067 70.7533 59.8033 71.04 59.25L100.47 2Z" fill="#FFB913"/>
<path d="M299.552 113.43C299.529 113.387 299.494 113.352 299.452 113.327C299.41 113.303 299.362 113.29 299.312 113.29C299.263 113.29 299.214 113.303 299.17 113.327C299.126 113.352 299.089 113.387 299.062 113.43C287.929 131.736 271.932 143.283 251.072 148.07C246.492 149.116 239.732 149.416 230.792 148.97C190.272 146.95 161.422 109.64 164.182 70.4796C166.902 31.9096 199.302 2.38959 237.832 3.00959C263.562 3.42959 285.552 16.7696 298.982 38.8196C299.015 38.8703 299.059 38.9123 299.112 38.9414C299.164 38.9705 299.223 38.9858 299.282 38.9858C299.342 38.9858 299.399 38.9705 299.45 38.9414C299.501 38.9123 299.543 38.8703 299.572 38.8196C327.702 -8.95041 397.522 -9.10041 424.882 39.5096C445.252 75.7096 432.532 120.63 396.292 140.77C377.582 151.17 352.422 152.04 332.832 143.3C318.752 137.013 307.659 127.056 299.552 113.43ZM236.152 117.418C246.978 117.512 257.398 113.257 265.121 105.588C272.843 97.9197 277.235 87.4656 277.331 76.5258C277.426 65.5861 273.217 55.0568 265.63 47.2545C258.043 39.4521 247.698 35.0157 236.872 34.9212C226.047 34.8267 215.626 39.0819 207.904 46.7507C200.182 54.4195 195.79 64.8736 195.694 75.8134C195.599 86.7531 199.808 97.2823 207.395 105.085C214.982 112.887 225.327 117.323 236.152 117.418ZM362.094 117.419C372.921 117.401 383.296 113.037 390.937 105.287C398.579 97.5381 402.861 87.0385 402.842 76.0984C402.823 65.1582 398.504 54.6737 390.836 46.9512C383.167 39.2286 372.777 34.9008 361.95 34.9197C351.124 34.9386 340.749 39.3027 333.108 47.0519C325.466 54.8011 321.183 65.3006 321.203 76.2408C321.222 87.181 325.541 97.6655 333.209 105.388C340.878 113.111 351.268 117.438 362.094 117.419Z" fill="#FFB913"/>
</svg>
